<?xml version="1.0" encoding="UTF-8"?>
<svg id="Layer_1" data-name="Layer 1" xmlns="http://www.w3.org/2000/svg" version="1.1" viewBox="0 0 34 34">
  <defs>
    <style>
      .cls-1, .cls-2, .cls-3, .cls-4, .cls-5, .cls-6, .cls-7 {
        stroke-miterlimit: 10;
        stroke-width: .2px;
      }

      .cls-1, .cls-3, .cls-4, .cls-7 {
        stroke-linecap: round;
      }

      .cls-1, .cls-3, .cls-5, .cls-7 {
        stroke: #000;
      }

      .cls-1, .cls-8 {
        fill: #2a58a0;
      }

      .cls-2 {
        stroke: #3f429a;
      }

      .cls-2, .cls-9, .cls-3, .cls-4, .cls-5, .cls-6 {
        fill: none;
      }

      .cls-9, .cls-10, .cls-11, .cls-12, .cls-13, .cls-14, .cls-15, .cls-8, .cls-16, .cls-17, .cls-18, .cls-19, .cls-20, .cls-21, .cls-22, .cls-23, .cls-24 {
        stroke-width: 0px;
      }

      .cls-10 {
        fill: #f9ddd2;
      }

      .cls-11 {
        fill: #087d7c;
      }

      .cls-12 {
        fill: #4e4ea1;
      }

      .cls-4, .cls-6 {
        stroke: #070808;
      }

      .cls-13 {
        fill: #edbfa9;
      }

      .cls-14 {
        fill: #4eafab;
      }

      .cls-15 {
        fill: #2d2d2d;
      }

      .cls-16 {
        fill: #e09d7c;
      }

      .cls-17 {
        fill: #ededed;
      }

      .cls-18 {
        fill: #e15750;
      }

      .cls-19 {
        fill: #60a2c6;
      }

      .cls-7 {
        fill: #0e151e;
      }

      .cls-20 {
        fill: #3f429a;
      }

      .cls-21 {
        fill: #e53525;
      }

      .cls-22 {
        fill: #ef9f5e;
      }

      .cls-23 {
        fill: #fff;
      }

      .cls-25 {
        display: none;
      }

      .cls-24 {
        fill: #231f20;
      }
    </style>
  </defs>
  <g class="cls-25">
    <path class="cls-21" d="M6.8,9.2s-.5-3.4,1.5-4.6c0,0,.3-.6,5.2-.5h3.5c0,0,2.2.5,2.5,2.7v2.9s-2.2-.1-2.2-.1v-1.6s.5-1.7-1.8-1.7h-4.8s-1.5-.3-1.5,1.7v1.7h-2.3c0,0,0-.4,0-.4Z"/>
    <path class="cls-9" d="M5.1,9.7h16.7c1.6,0,2.9,1.2,2.9,2.6v15c0,1.4-1.3,2.6-2.9,2.6H5.9s-1.6,0-2-.2c-1-.5-1.7-1.3-1.7-2.4v-15c0-1.4,1.3-2.6,2.9-2.6"/>
    <path class="cls-21" d="M9.5,21.7h-.7c-.3,0-.5-.2-.5-.5v-2.5c0-.3.2-.5.5-.5h2.2c.3,0,.5-.2.5-.5v-1.9c0-.3.2-.5.5-.5h2.8c.3,0,.5.2.5.5v1.9c0,.3.2.5.5.5h2.2c.3,0,.5.2.5.5v2.5c0,.3-.2.5-.5.5h-2.2c-.3,0-.5.2-.5.5v1.9c0,.3-.2.5-.5.5h-2.9c-.3,0-.5-.2-.5-.5v-1.9c0-.3-.2-.5-.5-.5h-1.4Z"/>
    <path class="cls-9" d="M10.5,21.7h.5c.3,0,.5.2.5.5v1.9c0,.3.2.5.5.5h2.9c.3,0,.5-.2.5-.5v-1.9c0-.3.2-.5.5-.5h2.2c.3,0,.5-.2.5-.5v-2.5c0-.3-.2-.5-.5-.5h-2.2c-.3,0-.5-.2-.5-.5v-1.9c0-.3-.2-.5-.5-.5h-2.8c-.3,0-.5.2-.5.5v1.9c0,.3-.2.5-.5.5h-2.2c-.3,0-.5.2-.5.5v2.5c0,.3.2.5.5.5h.7"/>
    <path class="cls-18" d="M26.7,26.8l-1.6-2.4c-.5-.7-.1-1.8.7-2.2h0c.9-.6,2-.4,2.5.4l1.6,2.3"/>
    <path class="cls-9" d="M29.9,25c.5.7,3.3,3.4,1.1,4.5h0c-2.1,1.4-3.6-2.1-4.1-2.8l3-1.7Z"/>
    <path class="cls-3" d="M29.9,25l1.6,2.3c.5.7.3,1.7-.6,2.2h0c-.8.5-1.9.2-2.5-.5l-1.6-2.3"/>
    <line class="cls-3" x1="29.9" y1="25" x2="26.9" y2="26.7"/>
    <line class="cls-3" x1="27.1" y1="19.9" x2="28.3" y2="19"/>
    <path class="cls-3" d="M3.9,29.7c-1-.4-1.7-1.3-1.7-2.4v-15c0-1.4,1.3-2.6,2.9-2.6"/>
    <path class="cls-3" d="M5.1,9.7h16.7c1.6,0,2.9,1.2,2.9,2.6v15c0,1.4-1.3,2.6-2.9,2.6H5.9"/>
    <line class="cls-3" x1="27.1" y1="19.9" x2="28.3" y2="19"/>
    <path class="cls-6" d="M9,9.7v-2.1s0-1.3,1.2-1.3h5.8s1.1,0,1.2,1.2c0,1.2,0,2.1,0,2.1"/>
    <path class="cls-4" d="M6.8,9.6v-2.2s0-3.2,3.4-3.3h3.7"/>
    <path class="cls-4" d="M15.4,4.1h.9s3.2,0,3.2,3.2c0,2.8,0,2.5,0,2.5"/>
  </g>
  <g class="cls-25">
    <path class="cls-23" d="M15.5,7.3l11.9.2s-1.9.9-1.4,3.1,1.7,2,1.7,2h-12.3s-2.3-2.7,0-5.3Z"/>
    <path class="cls-12" d="M6.2,12.7s-1.8-1.6-1.2-3.8c0,0,.6-1.4,1.9-1.6h8.8s-2.1,1.7-1.2,3.9c0,0,.3,1.1,1.1,1.4H6.2Z"/>
    <path class="cls-23" d="M4.4,19.1s3.5-2.3,1.3-5.2c0,0-1.1-1.1-2.1-1.3h13.9s3,1.9,1.9,4.6c0,0-.7,1.9-2.5,1.9H4.4Z"/>
    <path class="cls-19" d="M28.1,12.6s2.5-.3,3.1,2.2c.6,2.5-.9,4-1.9,4.3h-12.1s2.6-.9,2.4-3.6c0,0-.8-1.9-1.6-2.9,0,0,10.1,0,10.1,0Z"/>
    <path class="cls-23" d="M16,19.8s0-.7,2.1-.7h13.1s-.8.5-.7,2.7v2.7s-.3,1.4,1.6,2.2h-14.6s-1.7,0-1.7-2.6c0,0-.1-3,.3-4.2Z"/>
    <path class="cls-8" d="M16.9,26.7H4.2s-2.5.5-2.4-2.7v-3.2s.2-1.7,2-1.7h13s-.6.7-.6,3.2c0,2.5-.3,3.8,1.7,4.4h-1Z"/>
    <path class="cls-3" d="M15,19.1h17.2s-1.8,0-1.8,2.1,0,3.7,0,3.7c0,0,0,1.3,1.4,1.8,0,0,0,0,0,0H9.1"/>
    <path class="cls-3" d="M7,26.7h-3.6s-1.5-.3-1.6-2.1v-2.7s-.2-2.8,1.7-2.8h8.5"/>
    <path class="cls-5" d="M17.1,19.1s-.9.4-.9,2.3c0,1.6,0,3.5,0,3.5,0,0,0,1.3,1.2,1.9"/>
    <path class="cls-5" d="M4.4,19.1s3.5-2.3,1.3-5.2c0,0-1.1-1.1-2.1-1.3h24.6s2.5-.3,3.1,2.2c.6,2.5-.9,4-1.9,4.3"/>
    <path class="cls-5" d="M17.7,12.6s4.6,3.9-.3,6.5"/>
    <path class="cls-3" d="M22.9,7.3h5.2s-2.5.1-2,3.5c0,0,.2,1,1.3,1.8"/>
    <path class="cls-3" d="M6.2,12.6s-1.8-1.4-1.1-3.7c0,0,.4-1.4,1.7-1.6h14.4"/>
    <path class="cls-5" d="M15.7,7.3s-2.5,1.9-.8,4.4c0,0,.3.5.8.9"/>
    <path class="cls-17" d="M13.6,15.9"/>
    <polygon class="cls-22" points="15 15.9 15 20.8 13.4 19.6 12.1 20.8 12.1 15.9 15 15.9"/>
    <line class="cls-5" x1="10.6" y1="15.9" x2="16.2" y2="15.9"/>
  </g>
  <g class="cls-25">
    <path class="cls-14" d="M18.3,11.4l-1.4,1.5s-1.1,1.8.7,1.5c0,0,.4,0,1-.6s1.2-1.2,1.2-1.2c0,0-.2-1.2-1.4-1.2Z"/>
    <rect class="cls-11" x="12.7" y="5.5" width="19.4" height="3"/>
    <path class="cls-3" d="M1.9,26s2.5-1.5,3.3-2,1.8-1.3,2-3,.7-5.6.8-6.1.3-1,.7-1.4,3-2.9,3-2.9"/>
    <path class="cls-3" d="M8.5,31.1s5.1-4.2,5.9-4.7c.8-.4,3.3-1.5,3.8-3.9,0,0,0-1.9,1.2-2.9"/>
    <path class="cls-3" d="M10.6,15.9s.9,1.1,2.3-.2,4.1-3.7,4.1-3.7c0,0,1.6-1.3,2.5,0,0,0,.7.9-.5,2.3l-3.6,4.2s-1,.9-1,2.2c0,0,.3.8-.6,1.9s-1.6,1.4-1.6,1.4"/>
    <path class="cls-3" d="M29.4,18.6c-3.8,0-13.1,0-13.1,0"/>
    <path class="cls-3" d="M12.7,13.6V4.5s0-1.4,1.2-1.5c1.2-.1,17,0,17,0,0,0,1.2.1,1.2,1.8v12.3s0,1.1-1,1.5"/>
    <line class="cls-3" x1="29.4" y1="8.6" x2="32.1" y2="8.6"/>
    <line class="cls-3" x1="12.7" y1="8.6" x2="27.1" y2="8.6"/>
    <path class="cls-15" d="M24,15.1h-1.9c-.2,0-.4-.2-.4-.4v-.6c0-.2.2-.4.4-.4h1.9c.2,0,.4.2.4.4v.6c0,.2-.2.4-.4.4Z"/>
    <path class="cls-11" d="M30,15.5h-3.6c-.4,0-.6-.3-.6-.6v-.9c0-.4.3-.6.6-.6h3.6c.4,0,.6.3.6.6v.9c0,.4-.3.6-.6.6Z"/>
  </g>
  <g class="cls-25">
    <path class="cls-1" d="M19.8,2.7c0-.4-.2-.5-.6-.5-.5,0-.6.5-.6.5l-.2,3.4s0,.7,0,1c.2.4.7.5.9.2.1-.2.1-.5.2-1h0c0-.5.3-3.1.3-3.6Z"/>
    <path class="cls-8" d="M12,20.5s1.6-.6,2.8-.5c0,0-.2.8.5,1.2.7.5,2.1.8,2.9.2.7-.5.9-1.2.9-1.2,0,0,2.3,1.1,2.3,1.6,0,0-1.3,2-5.5,1.6,0,0-3-1-3.8-3Z"/>
    <path class="cls-3" d="M23.5,33.7l-18.2-2.2c-1.2-.1-2-1-1.9-1.9L6.1,6.5c0-.9,1.1-1.5,2.3-1.4l8.5,1"/>
    <path class="cls-3" d="M20.3,6.5l7.9.9c1.4.2,2.5,1,2.4,1.9l-2.7,23.2c0,.6-.6,1-1.3,1.2"/>
    <path class="cls-3" d="M6,7.4s23,2.4,24.6,2.7"/>
    <line class="cls-3" x1="8.2" y1="26.8" x2="24" y2="28.9"/>
    <path class="cls-3" d="M21.3,14.4c.9,1,1.5,2.3,1.5,3.7,0,3-2.5,5.5-5.7,5.5s-5.7-2.5-5.7-5.5.9-4.3,3.6-5.2"/>
    <path class="cls-7" d="M15.1,17.7v-.8s-1-.4-1.3-1c-.3-.6,0-1.4.6-2,0,0,0-.9.3-1.4s.6-1.3,1.9-1.6,2.5.8,2.8,1.1c0,0,.8-.1,1.5.2s.5,1.2.3,1.5c-.2.3-1.2.8-2.8.8,0,0-.8,0-1.1,0,0,0-.2-.1-.2.2,0,0,0,.9-.6.6,0,0-.6-.3-.8,0-.2.2-.2.9,0,1.2.3.3.7.5.4.8l-1,.7Z"/>
    <path class="cls-3" d="M21.1,13.8s.2.4.3.9c0,.4-.1,4.1-.1,4.1,0,0,0,.5-.5.7s-2.4.4-3.2-.8"/>
    <path class="cls-3" d="M19,19.6s.1.7,0,1.1c-.1.4-1.1,1.2-2.7.9-1.6-.3-1.6-.9-1.5-1.3,0-.5.5-2.9.5-2.9"/>
    <path class="cls-3" d="M19.8,2.7c0-.4-.2-.5-.6-.5-.5,0-.6.5-.6.5l-.2,3.4s0,.7,0,1c.2.4.7.5.9.2.1-.2.1-.5.2-1h0c0-.5.3-3.1.3-3.6Z"/>
    <path class="cls-3" d="M14.5.3s1,1.9,3.4,2.8"/>
    <path class="cls-3" d="M20.7,3.7c1.1,0,3.9.2,5.6-.9"/>
  </g>
  <g class="cls-25">
    <circle class="cls-20" cx="9.9" cy="28.1" r="1.1"/>
    <circle class="cls-20" cx="13.7" cy="28.1" r="1.1"/>
    <circle class="cls-20" cx="21.5" cy="28.1" r="1.1"/>
    <circle class="cls-20" cx="25.2" cy="28.1" r="1.1"/>
    <path class="cls-3" d="M25.6,23.9s1.2,0,1.6-1c.6-1.4,4.7-12.7,4.7-12.7H15.4"/>
    <path class="cls-3" d="M3.7,6.8s1.9.6,1.8,2.5v13s0,1.7,1.3,1.7h17.2"/>
    <line class="cls-3" x1="5.5" y1="10.2" x2="12.6" y2="10.2"/>
    <path class="cls-5" d="M22.8,10.3l-4.9,12.2s-.4,1.4-1.8,1.4"/>
    <line class="cls-2" x1="25.2" y1="14" x2="21.7" y2="20.9"/>
    <line class="cls-2" x1="27" y1="14.2" x2="23.5" y2="21.1"/>
    <path class="cls-5" d="M9.5,5.9s.6,0,1.3.8c.7.8.5,1.9.5,2.3s0,1.1,0,1.1"/>
    <path class="cls-5" d="M7.2,24c0,0,0,2.1,0,2.1,0,0,0,.7.8.8.8,0,19.3,0,19.3,0"/>
    <path class="cls-20" d="M8.7,6.8H2.5c-.4,0-.8-.4-.8-.8v-.4c0-.4.4-.8.8-.8h6.2c.4,0,.8.4.8.8v.3c0,.4-.4.8-.8.8Z"/>
  </g>
  <g>
    <path class="cls-13" d="M17.6,2.3l8.2,8.3s-4.6.8-6.5.3c0,0-1.7,0-1.8-2.1s0-6.4,0-6.4h.2Z"/>
    <path class="cls-10" d="M3.6,5.2s-.2-2.9,1.9-2.9h12v6.2s0,2,1.8,2.3,6.5,0,6.5,0l.3,18.1s.1,2.6-2.6,2.9H6.2s-2.4,0-2.6-2.7,0-23.9,0-23.9Z"/>
    <path class="cls-24" d="M6.2,32.1c-.2,0-2.7,0-2.9-2.9-.2-2.7,0-22.9,0-23.9,0-.2,0-1.7.7-2.6.4-.4.9-.6,1.4-.6h12.3v6.5c0,0,0,1.8,1.6,2,1.8.2,6.4,0,6.4,0h.3s.3,18.4.3,18.4c0,0,.1,2.9-2.9,3.2H6.2s0,0,0,0ZM5.5,2.6c-.4,0-.8.2-1,.4-.7.7-.6,2.2-.6,2.2h0c0,.2-.2,21.2,0,23.9.2,2.4,2.2,2.4,2.3,2.4h17.2c2.4-.2,2.3-2.5,2.3-2.6l-.3-17.8c-1.1,0-4.6.2-6.2,0-1.7-.2-2.1-1.8-2.1-2.6V2.6H5.5Z"/>
    <path class="cls-24" d="M19.5,14.9h-8.1c-.2,0-.3-.1-.3-.3s.1-.3.3-.3h8.1c.2,0,.3.1.3.3s-.1.3-.3.3Z"/>
    <path class="cls-24" d="M19.7,19h-8.1c-.2,0-.3-.1-.3-.3s.1-.3.3-.3h8.1c.2,0,.3.1.3.3s-.1.3-.3.3Z"/>
    <path class="cls-24" d="M19.7,23.2h-8.1c-.2,0-.3-.1-.3-.3s.1-.3.3-.3h8.1c.2,0,.3.1.3.3s-.1.3-.3.3Z"/>
    <path class="cls-16" d="M20.2,26s-.8.7-.8,1.4-.2,1.9.8,2,1.6,0,1.6,0c0,0,.6,0,1.1-.6s7.3-7.4,7.3-7.4c0,0,.8-.6-.3-1.7s-1.4-1.8-2.3-.9-7.3,7.2-7.3,7.2Z"/>
    <g>
      <circle class="cls-23" cx="8.6" cy="14.6" r=".8"/>
      <path class="cls-24" d="M8.6,15.7c-.6,0-1.1-.5-1.1-1.1s.5-1.1,1.1-1.1,1.1.5,1.1,1.1-.5,1.1-1.1,1.1ZM8.6,14c-.3,0-.6.2-.6.6s.2.6.6.6.6-.2.6-.6-.2-.6-.6-.6Z"/>
    </g>
    <g>
      <circle class="cls-23" cx="8.6" cy="18.7" r=".8"/>
      <path class="cls-24" d="M8.6,19.9c-.6,0-1.1-.5-1.1-1.1s.5-1.1,1.1-1.1,1.1.5,1.1,1.1-.5,1.1-1.1,1.1ZM8.6,18.2c-.3,0-.6.2-.6.6s.2.6.6.6.6-.2.6-.6-.2-.6-.6-.6Z"/>
    </g>
    <g>
      <circle class="cls-23" cx="8.6" cy="22.9" r=".8"/>
      <path class="cls-24" d="M8.6,24c-.6,0-1.1-.5-1.1-1.1s.5-1.1,1.1-1.1,1.1.5,1.1,1.1-.5,1.1-1.1,1.1ZM8.6,22.3c-.3,0-.6.2-.6.6s.2.6.6.6.6-.2.6-.6-.2-.6-.6-.6Z"/>
    </g>
    <path class="cls-24" d="M21.1,29.7c-.2,0-.5,0-.8,0-1,0-1-1.2-1-1.9,0-.1,0-.3,0-.4,0-.8.8-1.6.8-1.7.3-.3,6.4-6.3,7.3-7.2,1-.9,1.5-.4,2.2.3.2.2.3.4.5.6.5.5.7.9.7,1.3,0,.5-.3.7-.4.8,0,0-6.8,6.8-7.3,7.4-.6.6-1.3.7-1.3.7,0,0-.3,0-.8,0ZM28.3,18.7c-.2,0-.3.1-.6.3-1,.9-7.3,7.2-7.3,7.2h0c-.2.2-.7.7-.7,1.2,0,.1,0,.3,0,.4,0,.9,0,1.2.5,1.3.9,0,1.5,0,1.5,0,0,0,.5,0,.9-.5.5-.6,7.1-7.1,7.4-7.4,0,0,.2-.1.2-.4,0-.3-.2-.6-.5-.9-.2-.2-.4-.4-.6-.6-.4-.4-.6-.6-.8-.6ZM20.2,26h0,0Z"/>
    <path class="cls-24" d="M25.8,10.8c0,0-.2,0-.2,0L17.4,2.5c-.1-.1-.1-.3,0-.4.1-.1.3-.1.4,0l8.1,8.2c.1.1.1.3,0,.4,0,0-.1,0-.2,0Z"/>
  </g>
</svg>