<?xml version="1.0" encoding="utf-8"?>
<!-- Generator: Adobe Illustrator 23.0.5, SVG Export Plug-In . SVG Version: 6.00 Build 0)  -->
<svg version="1.1" id="Layer_1" xmlns="http://www.w3.org/2000/svg" xmlns:xlink="http://www.w3.org/1999/xlink" x="0px" y="0px"
	 viewBox="0 0 34 34" style="enable-background:new 0 0 34 34;" xml:space="preserve">
<style type="text/css">
	.st0{fill:#F3BE79;}
	.st1{fill:#F9DFD4;}
	.st2{fill:#509AC6;}
	.st3{display:none;}
	.st4{display:inline;}
	.st5{fill:#9FCD9E;}
	.st6{fill:#D1ECF6;}
</style>
<g>
	<g>
		<path class="st0" d="M21.48,23.86c0,0-1.03-0.47-2.3-0.81c-1.27-0.34-1.02,0.51-1.02,0.51v4.75c0,0.21-0.17,0.38-0.38,0.38H2.04
			c-0.21,0-0.38-0.17-0.38-0.38v-7.59c0,0,0.21-3.86,4.24-4.84c4.03-0.98,8.57,0.28,9.92,0.66c1.36,0.38,8.73,3.29,11.62,4.68
			l-2.59,3.43L21.48,23.86z"/>
	</g>
	<g>
		<circle class="st1" cx="9.82" cy="9.69" r="4.39"/>
		<path d="M9.82,14.39c-2.59,0-4.69-2.11-4.69-4.69S7.23,5,9.82,5s4.69,2.11,4.69,4.69S12.41,14.39,9.82,14.39z M9.82,5.61
			c-2.25,0-4.09,1.83-4.09,4.09c0,2.25,1.83,4.09,4.09,4.09c2.25,0,4.09-1.83,4.09-4.09C13.91,7.44,12.07,5.61,9.82,5.61z"/>
	</g>
	<g>
		<circle class="st1" cx="26.16" cy="16.61" r="3.25"/>
		<path d="M26.16,20.17c-1.96,0-3.56-1.6-3.56-3.56c0-1.96,1.6-3.56,3.56-3.56c1.96,0,3.56,1.6,3.56,3.56
			C29.72,18.57,28.12,20.17,26.16,20.17z M26.16,13.66c-1.63,0-2.95,1.32-2.95,2.95c0,1.63,1.32,2.95,2.95,2.95
			c1.63,0,2.95-1.32,2.95-2.95C29.11,14.98,27.78,13.66,26.16,13.66z"/>
	</g>
	<g>
		<path d="M17.77,29H2.04c-0.38,0-0.69-0.32-0.69-0.7v-7.88c0-0.06,0.27-3.77,4.47-4.83c1.91-0.48,5.22-0.76,10.08,0.66
			c0.82,0.24,3.85,1.33,6.51,2.42l-0.17,0.56c-2.27-0.78-5.7-2.16-6.51-2.39c-4.74-1.38-7.92-1.12-9.77-0.66
			c-3.75,0.94-4,4.12-4.01,4.26l0,7.86c0,0.05,0.04,0.1,0.08,0.1h15.73c0.04,0,0.08-0.04,0.08-0.1V23.4
			c-0.03-0.13-0.07-0.48,0.18-0.73c0.24-0.25,0.65-0.29,1.22-0.13c1.27,0.35,1.24,0.4,1.25,0.41l-0.21,0.57
			c-0.01,0,0.04-0.05-1.2-0.39c-0.41-0.11-0.59-0.07-0.63-0.03c-0.03,0.03-0.03,0.14-0.02,0.18l0.01,0.08v4.93
			C18.46,28.68,18.15,29,17.77,29z"/>
	</g>
	<g>
		<path class="st2" d="M20.57,28.69h11.46c0.17,0,0.31-0.15,0.3-0.34c-0.05-0.91-0.29-3.47-1.55-5.13c-1.32-1.74-4.28-2.99-7.49-1.3
			c-0.77,0.4-1.4,1.03-1.85,1.78c-0.63,1.06-0.95,2.32-1.07,4.79C20.39,28.6,20.47,28.69,20.57,28.69z"/>
		<path d="M32.04,29H20.57c-0.13,0-0.25-0.05-0.34-0.15c-0.09-0.1-0.14-0.23-0.14-0.37c0.11-2.42,0.41-3.76,1.11-4.93
			c0.49-0.82,1.17-1.48,1.97-1.9c3.2-1.68,6.38-0.57,7.87,1.39c1.3,1.71,1.56,4.27,1.61,5.3c0.01,0.17-0.05,0.34-0.17,0.47
			C32.36,28.93,32.2,29,32.04,29z M20.71,28.39h11.33c-0.04-0.77-0.26-3.36-1.49-4.98c-1.33-1.76-4.2-2.74-7.1-1.22
			c-0.7,0.37-1.3,0.94-1.73,1.67C21.09,24.92,20.82,26.16,20.71,28.39z"/>
	</g>
</g>
<g class="st3">
	<g class="st4">
		<g>
			<circle class="st1" cx="12.99" cy="6.36" r="4.59"/>
			<path d="M12.99,11.28c-2.71,0-4.92-2.21-4.92-4.92c0-2.71,2.21-4.92,4.92-4.92s4.92,2.21,4.92,4.92
				C17.9,9.07,15.7,11.28,12.99,11.28z M12.99,2.1c-2.35,0-4.27,1.91-4.27,4.27c0,2.35,1.91,4.27,4.27,4.27s4.27-1.91,4.27-4.27
				C17.25,4.01,15.34,2.1,12.99,2.1z"/>
		</g>
		<g>
			<path class="st5" d="M1.91,24.16l3.43-9.44c0,0,0.75-1.96,2.52-2.06h9.89c0,0,1.71-0.16,2.73,1.62l1.65,4.43l2.7-3.74
				c0,0,0.96-1.33,2.43-0.79c0,0,1.03,0.37,1.2,1.2c0.09,0.46,0.58,1.4-0.7,3.12L24.53,23c-0.14,0.2-0.51,0.72-0.64,0.93
				c-0.4,0.66-1.7,2.53-2.88,1.59c-0.51-0.4-1.38-1.32-1.65-1.72c-0.04-0.06-0.13-0.04-0.12,0.04l0.43,4.5H6.36l0.42-4.56
				c0.01-0.06-0.08-0.09-0.1-0.03l-1.36,2.29c0,0-0.8,1.75-2.22,1.38C1.05,26.89,1.91,24.16,1.91,24.16z"/>
			<path d="M20.01,28.66H6.02l0.34-3.79l-0.79,1.33c-0.3,0.66-1.24,1.87-2.56,1.52c-0.6-0.16-1.04-0.49-1.3-1
				c-0.58-1.1-0.11-2.61-0.09-2.68l0-0.01l3.43-9.44c0.04-0.09,0.85-2.16,2.8-2.27l9.9,0c0.05-0.01,1.89-0.15,3,1.77l0.02,0.05
				l1.45,3.9l2.37-3.28c0.38-0.52,1.45-1.39,2.78-0.9c0.05,0.02,1.2,0.44,1.4,1.44c0.01,0.05,0.02,0.1,0.04,0.16
				c0.15,0.55,0.43,1.58-0.8,3.23l-3.25,4.49c-0.15,0.21-0.51,0.72-0.63,0.91c-0.32,0.53-1.17,1.78-2.18,1.98
				c-0.41,0.08-0.8-0.02-1.14-0.3c-0.33-0.26-0.82-0.74-1.2-1.16L20.01,28.66z M6.7,28.01h12.63l-0.4-4.14
				c-0.02-0.18,0.08-0.34,0.24-0.41c0.16-0.06,0.35,0,0.45,0.15c0.23,0.35,1.07,1.25,1.58,1.65c0.21,0.16,0.43,0.22,0.66,0.18
				c0.63-0.12,1.33-0.95,1.77-1.69c0.14-0.23,0.52-0.77,0.66-0.96l3.25-4.5c1.04-1.39,0.82-2.18,0.69-2.65
				c-0.02-0.08-0.04-0.15-0.05-0.21c-0.13-0.64-0.99-0.96-1-0.96c-1.25-0.46-2.08,0.67-2.09,0.68l-3.04,4.2l-1.84-4.95
				c-0.91-1.55-2.37-1.44-2.43-1.44l-9.91,0c-1.53,0.08-2.23,1.84-2.24,1.86l-3.42,9.43c-0.03,0.09-0.39,1.33,0.05,2.15
				c0.18,0.35,0.48,0.57,0.91,0.68c1.17,0.3,1.84-1.14,1.87-1.21l1.37-2.31c0.08-0.15,0.25-0.23,0.41-0.19
				c0.18,0.05,0.29,0.22,0.27,0.41L6.7,28.01z M19.55,23.8L19.55,23.8C19.55,23.81,19.55,23.81,19.55,23.8z M6.47,23.74
				C6.47,23.74,6.47,23.74,6.47,23.74L6.47,23.74z"/>
		</g>
		<g>
			<rect x="2.84" y="30.28" class="st6" width="20.29" height="1.95"/>
			<path d="M23.46,32.55H2.52v-2.6h20.94V32.55z M3.17,31.9H22.8v-1.3H3.17V31.9z"/>
		</g>
	</g>
	<g class="st4">
		<path d="M27.8,14.66c-0.09,0-0.19-0.03-0.27-0.1c-0.17-0.16-0.19-0.43-0.05-0.61l4.37-5.41c0.15-0.18,0.41-0.2,0.58-0.05
			c0.17,0.16,0.19,0.43,0.05,0.61l-4.37,5.41C28.03,14.6,27.92,14.66,27.8,14.66z"/>
	</g>
</g>
</svg>
