<?xml version="1.0" encoding="utf-8"?>
<!-- Generator: Adobe Illustrator 23.0.5, SVG Export Plug-In . SVG Version: 6.00 Build 0)  -->
<svg version="1.1" id="Layer_1" xmlns="http://www.w3.org/2000/svg" xmlns:xlink="http://www.w3.org/1999/xlink" x="0px" y="0px"
	 viewBox="0 0 34 34" style="enable-background:new 0 0 34 34;" xml:space="preserve">
<style type="text/css">
	.st0{display:none;}
	.st1{display:inline;}
	.st2{fill:#A0CFA0;}
	.st3{fill:#C7E4C8;}
	.st4{fill:#F9DED3;}
	.st5{fill:#EEBCAE;}
	.st6{fill:#231F20;}
	.st7{fill:#E7CEC9;}
	.st8{fill:#E2B290;}
	.st9{fill:#EAD0B2;}
	.st10{fill:#EEE0DC;}
	.st11{fill:#FCC066;}
	.st12{fill:#FBB343;}
	.st13{fill:#7AC8A5;}
	.st14{fill:#ED6261;}
	.st15{fill:#75CDDD;}
	.st16{fill:#49C3D7;}
	.st17{fill:#58BE92;}
	.st18{fill:#E74343;}
	.st19{fill:#FFD469;}
	.st20{fill:#96D0A4;}
	.st21{fill:#62C8D8;}
	.st22{fill:#070707;}
	.st23{fill:#121112;}
	.st24{fill:#0B0B0B;}
	.st25{fill:#F9DFD4;}
	.st26{fill:#0F0F10;}
	.st27{fill:#EE9E5E;}
	.st28{fill:#BAC6E5;}
	.st29{fill:#DDDDDC;}
	.st30{fill:#7DA97D;}
	.st31{fill:#E6E8EE;}
	.st32{fill:#0C0D0D;}
	.st33{fill:#FDC166;}
	.st34{fill:#14151F;}
	.st35{fill:#D1ECF6;}
	.st36{fill:#0065A2;}
	.st37{fill:#5BACCD;}
	.st38{fill:#FFFFFF;}
	.st39{fill:#DAD9ED;}
	.st40{fill:#DCEDDB;}
	.st41{fill:#DDF0F2;}
	.st42{fill:#6867AE;}
	.st43{fill:#CFECF6;}
	.st44{fill:#84C7DF;}
	.st45{fill:#0E3B51;}
	.st46{fill:#B1DBE5;}
	.st47{display:none;fill:#FFFFFF;}
	.st48{fill:#E43525;}
	.st49{fill:none;}
	.st50{fill:#E25750;}
	.st51{fill:#E9F5F1;}
	.st52{fill:#151515;}
	.st53{fill:#1B5286;}
	.st54{fill:#1B5287;}
	.st55{fill:#BCE4EE;}
	.st56{fill:#5DA1D0;}
	.st57{fill:#161616;}
	.st58{fill:#E5EBF7;}
	.st59{fill:#F9F9F9;}
	.st60{fill:#2867AE;}
	.st61{display:inline;fill:#5DA1D0;}
	.st62{display:inline;fill:#151515;}
	.st63{fill:#F4BF7A;}
	.st64{fill:#62A9CC;}
</style>
<g class="st0">
	<g class="st1">
		<path class="st2" d="M1.77,11.04l1.7-7.74c0,0,0.37-2.76,3.62-2.12l22.33,4.66c0,0,2.75,0.17,1.7,4.66L1.77,11.04z"/>
	</g>
	<g class="st1">
		<path class="st3" d="M4.19,10.51L7.2,5.84c0,0,1.24-1.24,3.91-0.55l16.46,4.78L4.19,10.51z"/>
	</g>
	<g class="st1">
		<path class="st2" d="M16.27,27.81L3.66,27.75c0,0-1.99,0.27-1.99-3.55V11.92c0,0-0.22-2.47,2.53-2.47h24.87
			c0,0,3.26-0.54,3.26,2.86v12.25c0,0,0.72,2.99-2.9,3.24H16.27z"/>
	</g>
	<g class="st1">
		<path class="st3" d="M4.19,14.57v7.85c0,0,2.36-0.61,2.27,2.36l20.9-0.16c0,0,0.5-2.59,2.08-2.77v-7.17c0,0-2.06,0.29-2.24-2.36
			L6.22,12.16C6.22,12.16,6.52,15.26,4.19,14.57z"/>
	</g>
	<g class="st1">
		<path class="st4" d="M9.25,32.61v-4.83l6.78,0.03l4.46-4.15V17.1l0.82-1.38c0,0,1.96-0.46,2.15-0.46s1.19,0.95,1.19,0.95l0,3.96
			l-0.05,4.22l0.05,4.81v3.55L9.25,32.61z"/>
	</g>
	<g class="st1">
		<circle class="st2" cx="17.11" cy="18.46" r="3.97"/>
	</g>
	<g class="st1">
		<path class="st5" d="M16.48,29.99c0,0,0-5.26,5.16-5.41l0-6.6c0-0.5,0.11-1.01,0.34-1.45c0.28-0.53,0.79-1.08,1.69-1.15
			c0,0-2.98-0.89-3.22,2.14c-0.24,3.03,0,5.68,0,5.68s-2.79,0.72-3.22,1.58C16.81,25.64,16.01,27.58,16.48,29.99z"/>
	</g>
	<g class="st1">
		<path class="st6" d="M29.8,28.12h-2.85v-0.63h2.85c1.22,0,2.21-0.96,2.21-2.15V11.92c0-1.19-0.99-2.15-2.21-2.15H4.2
			c-1.22,0-2.21,0.96-2.21,2.15v13.42c0,1.19,0.99,2.15,2.21,2.15h10.61v0.63H4.2c-1.57,0-2.84-1.25-2.84-2.78V11.92
			c0-1.53,1.27-2.78,2.84-2.78h25.6c1.57,0,2.84,1.25,2.84,2.78v13.42C32.64,26.87,31.37,28.12,29.8,28.12z"/>
	</g>
	<g class="st1">
		<path class="st6" d="M15.8,25.1H6.1l0.01-0.33c0.03-0.8-0.14-1.36-0.52-1.66c-0.53-0.43-1.32-0.25-1.33-0.24l-0.39,0.09l0-0.4
			v-8.43l0.44,0.18c0,0,0.58,0.23,1.02-0.07c0.41-0.28,0.62-0.94,0.62-1.92V12h21.52l0.04,0.27c0.01,0.09,0.31,2.22,1.91,2.12
			l0.33-0.02v7.83l-0.21,0.07c-0.08,0.03-1.86,0.66-1.86,2.51h-0.63c0-1.88,1.51-2.76,2.08-3.02v-6.75
			c-1.36-0.12-1.99-1.46-2.19-2.39H6.57c-0.05,1.05-0.35,1.77-0.9,2.13C5.27,15.03,4.82,15.04,4.5,15v7.2
			c0.39-0.02,0.99,0.02,1.48,0.42c0.48,0.39,0.73,1.01,0.76,1.85h9.06V25.1z"/>
	</g>
	<g class="st1">
		<path class="st6" d="M17.11,22.55c-2.26,0-4.09-1.84-4.09-4.09s1.84-4.09,4.09-4.09c1.08,0,2.09,0.41,2.86,1.17l-0.44,0.45
			C18.88,15.35,18.02,15,17.11,15c-1.91,0-3.46,1.55-3.46,3.46s1.55,3.46,3.46,3.46c0.51,0,1-0.11,1.45-0.32l0.26,0.57
			C18.29,22.43,17.71,22.55,17.11,22.55z"/>
	</g>
	<g class="st1">
		<path class="st6" d="M2.44,10.56l-0.62-0.11l1.42-7.62c0.01-0.04,0.52-1.96,3.08-1.96c1.94,0,17.16,3.4,23.6,4.86
			c1.08,0.25,1.84,1.2,1.84,2.31v2.02h-0.63V8.04c0-0.82-0.56-1.51-1.35-1.7C24.77,5.21,8.25,1.5,6.32,1.5
			c-2.05,0-2.45,1.41-2.46,1.47L2.44,10.56z"/>
	</g>
	<g class="st1">
		<path class="st6" d="M25.02,9.75c-0.09-0.03-9.22-2.98-13.32-4.01c-3.78-0.95-4.5,0.6-4.5,0.61L7.16,6.42L4.93,9.63L4.41,9.27
			l2.22-3.19c0.14-0.3,1.15-1.97,5.22-0.95c4.12,1.03,13.27,3.99,13.36,4.02L25.02,9.75z"/>
	</g>
	<g class="st1">
		<rect x="8.93" y="29.19" class="st6" width="0.63" height="3.94"/>
	</g>
	<g class="st1">
		<path class="st6" d="M24.32,33.13l-0.08-15.18l0.01-0.04c0-0.01,0.28-1.28-0.26-1.94c-0.23-0.28-0.59-0.42-1.1-0.39
			c-2,0.07-2.09,1.48-2.09,1.54l0,6.82l-0.29,0.03c-3.95,0.37-3.92,3.38-3.92,3.51v2.56h-0.63v-2.56c0-0.03-0.06-3.57,4.21-4.12
			V17.1c0-0.03,0.12-2.06,2.7-2.15c0.7-0.03,1.24,0.19,1.6,0.62c0.68,0.83,0.45,2.19,0.4,2.44l0.08,15.11L24.32,33.13z"/>
	</g>
</g>
<g class="st0">
	<g class="st1">
		<path class="st7" d="M30.07,20.13c0,0,1.71,2.62,0.93,4.85c-0.64,1.82-3.36,3.58-6.43,2.57c0,0,1.91,1.67,4.26,1.12
			s3.24-2.89,3.5-3.69C32.59,24.18,32.38,21.41,30.07,20.13z"/>
	</g>
	<g class="st1">
		<polygon class="st8" points="1.7,10 14.34,3.14 27.07,10.09 14.52,17.03 		"/>
	</g>
	<g class="st1">
		<polygon class="st8" points="1.76,10.38 14.52,17.03 14.52,30.54 1.67,23.4 		"/>
	</g>
	<g class="st1">
		<polygon class="st9" points="14.62,30.37 27.31,23.59 27.32,10.19 14.08,17.24 		"/>
	</g>
	<g class="st1">
		<path class="st6" d="M14.84,30.73l-0.46,0.09L1.36,23.83l0.1-13.96l13.38,6.97V30.73z M1.98,23.46l12.23,6.56l0-12.79L2.07,10.9
			L1.98,23.46z"/>
	</g>
	<g class="st1">
		<path class="st6" d="M14.77,17.3l-0.3-0.55l12.21-6.56C24.46,8.99,15.74,4.31,14.5,3.65l-12.78,6.7L1.43,9.8L14.5,2.94l0.15,0.08
			c0,0,11.39,6.11,12.72,6.83c0.13,0.07,0.21,0.2,0.21,0.34c0,0.14-0.08,0.28-0.21,0.35L14.77,17.3z M27.07,10.4
			C27.07,10.4,27.07,10.4,27.07,10.4C27.07,10.4,27.07,10.4,27.07,10.4z M27.07,9.98C27.07,9.98,27.06,9.98,27.07,9.98L27.07,9.98z"
			/>
	</g>
	<g class="st1">
		
			<rect x="5.12" y="8.69" transform="matrix(0.8799 -0.4751 0.4751 0.8799 -2.7927 6.9614)" class="st6" width="14.51" height="0.63"/>
	</g>
	<g class="st1">
		
			<rect x="9.48" y="10.96" transform="matrix(0.8818 -0.4715 0.4715 0.8818 -3.3439 9.2106)" class="st6" width="14.46" height="0.63"/>
	</g>
	<g class="st1">
		<path class="st6" d="M9.99,19.24c-0.1,0-0.21-0.03-0.3-0.08l-3.71-2.02c-0.21-0.11-0.33-0.33-0.32-0.57l0.03-4.05l0.63,0
			l-0.03,4.06l3.71,2.02l0.1-3.8l0.63,0.02l-0.1,3.8c0,0.21-0.11,0.41-0.3,0.53C10.21,19.21,10.1,19.24,9.99,19.24z"/>
	</g>
	<g class="st1">
		<path class="st6" d="M27.43,17.62c-0.17,0-0.31-0.14-0.31-0.31l-0.11-7.11c0-0.17,0.14-0.32,0.31-0.32
			c0.19-0.01,0.32,0.14,0.32,0.31l0.11,7.11C27.74,17.47,27.61,17.62,27.43,17.62C27.43,17.62,27.43,17.62,27.43,17.62z"/>
	</g>
	<g class="st1">
		<path class="st6" d="M14.53,30.85c-0.11,0-0.22-0.06-0.28-0.17c-0.08-0.15-0.02-0.34,0.13-0.42l6.97-3.74
			c0.15-0.08,0.34-0.02,0.42,0.13c0.08,0.15,0.02,0.34-0.13,0.42l-6.97,3.74C14.63,30.84,14.57,30.85,14.53,30.85z"/>
	</g>
	<g class="st1">
		<path class="st6" d="M27.34,29.01c-2.92,0-5.3-2.35-5.3-5.24s2.38-5.24,5.3-5.24c2.92,0,5.3,2.35,5.3,5.24
			S30.27,29.01,27.34,29.01z M27.34,19.15c-2.58,0-4.67,2.07-4.67,4.62s2.1,4.62,4.67,4.62c2.58,0,4.67-2.07,4.67-4.62
			S29.92,19.15,27.34,19.15z"/>
	</g>
	<g class="st1">
		<polygon class="st6" points="26.84,25.42 24.92,23.54 25.36,23.09 26.84,24.54 29.25,22.12 29.69,22.57 		"/>
	</g>
</g>
<g class="st0">
	<g class="st1">
		<path class="st10" d="M20.41,31.11c0,0,8.66,2.64,7.07-7.71c0,0,0.88,0.65,1.09,1.43s0.44,2.31,0.17,3.18
			c-0.26,0.87-0.89,2.68-2.19,3.4c-1.3,0.72-3.03,1.33-4.94,0.88C21.62,32.29,20.64,32.2,20.41,31.11z"/>
	</g>
	<g class="st1">
		<path class="st11" d="M21.46,11.78l4.67-7.92c0,0-6.55-4.15-8.32-1.61c0,0-2.78,2.37-1.73,4.91C16.07,7.16,16.05,8.92,21.46,11.78
			z"/>
	</g>
	<g class="st1">
		<path class="st12" d="M16.59,4.45c0,0,0.82-1.44,2.93-1.65c1.85-0.18,5.55,2.19,5.55,2.19l0.66-1.36c0,0-4.13-2.04-5.32-2.19
			C19.22,1.27,16.19,3.05,16.59,4.45z"/>
	</g>
	<g class="st1">
		<path class="st13" d="M6.02,15.99l6.21,6.42c0,0,5.96-5.47,3.9-7.79c0,0-1.66-3.25-4.38-2.81C11.75,11.82,10.05,11.39,6.02,15.99z
			"/>
	</g>
	<g class="st1">
		<path class="st14" d="M12.23,22.15l-6.21-5.8c0,0-6.53,5.22-3.78,8.45c0,0,1.86,2.51,4.54,1.89C6.78,26.69,8.51,27.01,12.23,22.15
			z"/>
	</g>
	<g class="st1">
		<path class="st15" d="M26.08,3.92l-4.25,7.86c0,0,6.74,4.57,8.83,1.39c0,0,2.82-2.57,1.51-5.03C32.18,8.13,32.08,6.38,26.08,3.92z
			"/>
	</g>
	<g class="st1">
		<path class="st16" d="M25.15,4.98c0,0,1.69,0.85,2.1,1.08c0.41,0.23,2.51,1.07,3.7,2.37c0,0,1.12,1.23,0.58,3.22
			c0,0,0.37,0.14,0.4-0.12c0.03-0.27,0.32-1.07,0.3-1.21s-0.09-0.93-0.09-1.03c0-0.1-0.56-1.55-0.59-1.53
			c-0.03,0.01-1.17-1.62-1.17-1.62s-2.09-1.22-2.15-1.25s-2.39-0.9-2.39-0.9L25.15,4.98z"/>
	</g>
	<g class="st1">
		<path class="st17" d="M14.71,13.21c0,0,2.46,3.14-3.64,8.01l1.16,1.2c0,0,1.32-1.66,1.92-2.31c0.61-0.65,1.76-1.38,2-2.66
			c0.24-1.28,0.68-1.5,0.1-2.52C15.67,13.89,15.55,13.19,14.71,13.21z"/>
	</g>
	<g class="st1">
		<path class="st18" d="M10.94,21.35c0,0-2.2,2.75-3.02,3.42c-0.82,0.67-2.65,1.93-4.81,0.53c0,0-0.31,0.48-0.09,0.48
			s1.56,1.01,1.56,1.01h1.54c0,0,1.47-0.28,1.54-0.31s1.67-1.14,1.74-1.2c0.07-0.06,1.55-1.75,1.55-1.75l0.93-1.24L10.94,21.35z"/>
	</g>
	<g class="st1">
		<g>
			<path class="st6" d="M32.43,11.28l-0.57-0.23C32.1,10.44,32,9.5,31.93,9.2c-0.02-0.13-0.06-0.26-0.09-0.39l0.6-0.17
				c0.04,0.15,0.08,0.29,0.1,0.44C32.55,9.13,32.8,10.37,32.43,11.28z"/>
		</g>
		<g>
			<g>
				<path class="st6" d="M27.91,14.66c-0.76,0-1.5-0.19-2.19-0.55l-7.67-4.09c-2.28-1.21-3.14-4.05-1.93-6.33l0.03-0.05
					c1.21-2.28,4.05-3.14,6.33-1.93l7.67,4.1c1.12,0.6,1.93,1.6,2.29,2.83c0.05,0.16-0.05,0.34-0.21,0.38
					c-0.17,0.05-0.34-0.05-0.38-0.21c-0.31-1.06-1.01-1.94-1.98-2.45l-7.67-4.1c-1.97-1.05-4.44-0.3-5.49,1.67l-0.03,0.05
					c-1.05,1.97-0.3,4.44,1.67,5.49l7.67,4.09c0.95,0.51,2.05,0.61,3.09,0.3c1.04-0.32,1.89-1.01,2.4-1.97l0.03-0.05
					c0.13-0.25,0.24-0.51,0.31-0.77c0.05-0.16,0.22-0.26,0.38-0.21c0.16,0.05,0.26,0.22,0.21,0.38c-0.09,0.31-0.21,0.61-0.36,0.89
					l-0.03,0.05c-0.59,1.1-1.57,1.9-2.77,2.27C28.83,14.6,28.37,14.66,27.91,14.66z"/>
			</g>
			<g>
				<path class="st6" d="M21.77,11.97c-0.05,0-0.1-0.01-0.14-0.04c-0.15-0.08-0.21-0.27-0.13-0.42l4.07-7.8
					c0.08-0.15,0.27-0.21,0.42-0.13c0.15,0.08,0.21,0.27,0.13,0.42l-4.07,7.8C21.99,11.9,21.88,11.97,21.77,11.97z"/>
			</g>
		</g>
		<g>
			<g>
				<path class="st6" d="M5.92,27.23c-1.16,0-2.26-0.43-3.11-1.22c-0.89-0.83-1.4-1.96-1.44-3.18s0.39-2.38,1.22-3.27l6.22-6.65
					c0.39-0.42,0.84-0.75,1.36-1c0.16-0.07,0.34-0.01,0.41,0.15c0.07,0.15,0.01,0.34-0.15,0.41c-0.44,0.21-0.83,0.5-1.17,0.86
					l-6.22,6.65c-0.72,0.77-1.09,1.77-1.05,2.83s0.48,2.03,1.24,2.75c1.59,1.48,4.09,1.4,5.57-0.19l6.22-6.65
					c0.72-0.77,1.09-1.77,1.05-2.83c-0.04-1.06-0.48-2.03-1.24-2.75c-0.7-0.65-1.61-1.02-2.56-1.05c-0.17-0.01-0.31-0.15-0.3-0.32
					c0.01-0.17,0.14-0.29,0.32-0.3c1.11,0.04,2.16,0.47,2.97,1.22c0.89,0.83,1.4,1.96,1.44,3.18s-0.39,2.38-1.22,3.27l-6.22,6.65
					c-0.83,0.89-1.96,1.4-3.18,1.44C6.03,27.23,5.97,27.23,5.92,27.23z"/>
			</g>
			<g>
				<path class="st6" d="M11.99,22.72c-0.08,0-0.16-0.03-0.22-0.09L5.8,16.56c-0.12-0.12-0.12-0.32,0-0.44
					c0.12-0.12,0.32-0.12,0.44,0l5.97,6.07c0.12,0.12,0.12,0.32,0,0.44C12.15,22.69,12.07,22.72,11.99,22.72z"/>
			</g>
		</g>
		<g>
			<g>
				<path class="st6" d="M23.21,32.84c-2.29,0-4.34-1.3-5.36-3.38c-0.08-0.15-0.01-0.34,0.14-0.42c0.15-0.08,0.34-0.01,0.42,0.14
					c0.92,1.87,2.76,3.04,4.8,3.04c2.96,0,5.36-2.46,5.36-5.48s-2.41-5.48-5.36-5.48s-5.36,2.46-5.36,5.48
					c0,0.17-0.14,0.31-0.31,0.31s-0.31-0.14-0.31-0.31c0-3.37,2.69-6.1,5.99-6.1s5.99,2.74,5.99,6.1S26.51,32.84,23.21,32.84z"/>
			</g>
			<g>
				<path class="st6" d="M25.21,29.16c-0.08,0-0.17-0.03-0.23-0.1l-4.13-4.4c-0.12-0.12-0.11-0.32,0.01-0.44
					c0.12-0.12,0.32-0.11,0.44,0.01l4.13,4.4c0.12,0.12,0.11,0.32-0.01,0.44C25.36,29.14,25.29,29.16,25.21,29.16z"/>
			</g>
		</g>
	</g>
</g>
<g class="st0">
	<g class="st1">
		<polyline class="st19" points="10.24,6.48 2.5,6.48 2.5,32.78 10.24,32.78 		"/>
	</g>
	<g class="st1">
		<polyline class="st20" points="19.62,4.14 10.13,4.14 10.13,32.78 19.62,32.78 		"/>
	</g>
	<g class="st1">
		<rect x="19.76" y="1.22" class="st21" width="11.74" height="31.56"/>
	</g>
	<g class="st1">
		<polygon class="st14" points="27.9,1.22 27.9,11.11 25.59,9.93 23.32,11.11 23.32,1.22 		"/>
	</g>
	<g class="st1">
		<polygon class="st22" points="23,11.63 23,1.22 23.63,1.22 23.63,10.59 25.59,9.58 27.59,10.59 27.59,1.22 28.22,1.22 
			28.22,11.62 25.59,10.29 		"/>
	</g>
	<g class="st1">
		<rect x="4.74" y="9.59" class="st22" width="3.35" height="0.63"/>
	</g>
	<g class="st1">
		<rect x="13.17" y="12.23" class="st22" width="3.35" height="0.63"/>
	</g>
	<g class="st1">
		<rect x="23.75" y="27.48" class="st22" width="3.35" height="0.63"/>
	</g>
	<g class="st1">
		<path class="st22" d="M25.63,25.73c-1.06,0-1.92-0.86-1.92-1.92s0.86-1.92,1.92-1.92c1.06,0,1.92,0.86,1.92,1.92
			S26.69,25.73,25.63,25.73z M25.63,22.53c-0.71,0-1.29,0.58-1.29,1.29c0,0.71,0.58,1.29,1.29,1.29c0.71,0,1.29-0.58,1.29-1.29
			C26.92,23.1,26.34,22.53,25.63,22.53z"/>
	</g>
	<g class="st1">
		<path class="st22" d="M14.88,10.93c-1.06,0-1.92-0.86-1.92-1.92s0.86-1.92,1.92-1.92s1.92,0.86,1.92,1.92S15.93,10.93,14.88,10.93
			z M14.88,7.73c-0.71,0-1.29,0.58-1.29,1.29c0,0.71,0.58,1.29,1.29,1.29c0.71,0,1.29-0.58,1.29-1.29
			C16.16,8.3,15.59,7.73,14.88,7.73z"/>
	</g>
	<g class="st1">
		<path class="st23" d="M17.98,33.1h-7.87V3.83h7.59c0.17,0,0.32,0.14,0.32,0.32c0,0.17-0.14,0.32-0.32,0.32h-6.96v28.01h7.24
			c0.17,0,0.32,0.14,0.32,0.32S18.16,33.1,17.98,33.1z"/>
	</g>
	<g class="st1">
		<path class="st24" d="M8.75,33.1H2.18V6.17h6.56c0.17,0,0.32,0.14,0.32,0.32c0,0.17-0.14,0.32-0.32,0.32H2.81v25.67h5.93
			c0.17,0,0.32,0.14,0.32,0.32S8.92,33.1,8.75,33.1z"/>
	</g>
	<g class="st1">
		<path class="st23" d="M31.82,33.1H19.44V0.9h12.37V33.1z M20.07,32.47h11.11V1.53H20.07V32.47z"/>
	</g>
</g>
<g class="st0">
	<g class="st1">
		<path class="st25" d="M24.7,10.41c0,0-1.6,0.96-5.08,0c0,0-2.72-0.91-4.73,1.18c0,0,0.8-0.71,0.4-0.71c-0.4,0-2.77,0.75-3.78,0.46
			s-2.03-0.65-2.03-0.65L4.73,19.9c0,0,1.25,1.54,1.71,1.92s1.61,0.29,1.81,0.52c0.2,0.24-0.02,1.29,0.57,1.53s1.67,0.01,1.7,0.29
			c0.04,0.28-0.24,1.29,0.4,1.66s1.68-0.2,1.68,0.03s-0.05,0.89,0.21,1.33c0.26,0.44,2.3,1.12,2.96,0c0.66-1.12,0.38-1.37,0.94-1.1
			c0.57,0.27,1.89,2.23,3.31,0.38c0,0,0.19-0.59,0.86-0.27c0.66,0.31,1.97,0.57,2.71-0.45c0,0,0.75,0.3,1.42,0.19
			c0.67-0.11,0.8-0.83,1.24-0.79c0.44,0.04,1.35,0.59,1.98-0.05c0.63-0.64,0.63-1.45,0.17-1.98c-0.46-0.52-1.85-1.99-1.85-1.99
			l2.72-1.59C29.27,19.54,24.43,11.48,24.7,10.41z"/>
	</g>
	<g class="st1">
		<g>
			<path class="st26" d="M12.09,11.65c-1.96,0-3.04-0.97-3.09-1.01c-0.13-0.11-0.13-0.31-0.02-0.44c0.12-0.13,0.31-0.13,0.43-0.02
				c0.02,0.01,1.09,0.95,2.98,0.84c1.03-0.06,1.61-0.24,2.07-0.38c0.45-0.14,0.84-0.26,1.4-0.18c0.17,0.02,0.29,0.18,0.26,0.35
				c-0.02,0.17-0.18,0.29-0.35,0.26c-0.42-0.06-0.7,0.03-1.13,0.16c-0.47,0.14-1.11,0.34-2.22,0.4
				C12.32,11.64,12.21,11.65,12.09,11.65z"/>
		</g>
		<g>
			<path class="st26" d="M27.38,25.69c-0.42,0-0.87-0.14-1.29-0.42c-1.3-0.87-2.6-2.36-3.98-4.56c-0.09-0.14-0.05-0.33,0.1-0.42
				c0.14-0.09,0.33-0.05,0.42,0.1c1.33,2.12,2.57,3.55,3.8,4.37c0.57,0.38,1.11,0.36,1.42,0.21c0.24-0.11,0.38-0.3,0.4-0.54
				c0.02-0.22-0.54-1.11-1.53-2.2c-0.64-0.72-2.08-2.52-2.14-2.6c-0.11-0.13-0.08-0.33,0.05-0.43c0.13-0.1,0.33-0.08,0.43,0.05
				c0.01,0.02,1.49,1.87,2.12,2.57c0.8,0.89,1.74,2.08,1.68,2.67c-0.04,0.45-0.32,0.83-0.75,1.04
				C27.89,25.64,27.64,25.69,27.38,25.69z"/>
		</g>
		<g>
			<path class="st26" d="M24.56,26.39c-0.55,0-1.2-0.18-1.96-0.7c-2.44-1.69-2.69-3.9-2.69-4c-0.02-0.17,0.11-0.32,0.28-0.34
				c0.17-0.02,0.32,0.11,0.34,0.28c0,0.02,0.24,2.03,2.43,3.55c1.89,1.31,2.91,0.06,2.95,0c0.11-0.13,0.3-0.16,0.43-0.05
				c0.13,0.1,0.16,0.3,0.05,0.43C26.38,25.57,25.73,26.39,24.56,26.39z"/>
		</g>
		<g>
			<path class="st26" d="M21.78,26.85c-0.34,0-0.7-0.09-1.06-0.32c-1.68-1.12-2.79-3.18-2.84-3.27c-0.08-0.15-0.02-0.34,0.13-0.42
				c0.15-0.08,0.34-0.02,0.42,0.13c0.01,0.02,1.09,2.01,2.64,3.05c0.85,0.57,1.82-0.16,1.83-0.17c0.13-0.1,0.33-0.08,0.43,0.06
				c0.1,0.13,0.08,0.33-0.06,0.43C23.23,26.36,22.58,26.85,21.78,26.85z"/>
		</g>
		<g>
			<path class="st26" d="M18.51,27.5c-0.35,0-0.7-0.11-1.03-0.34c-0.87-0.59-1.43-1.18-1.46-1.2c-0.12-0.12-0.11-0.32,0.01-0.44
				c0.12-0.12,0.32-0.11,0.44,0.01c0.01,0.01,0.54,0.57,1.36,1.12c0.3,0.2,0.59,0.27,0.9,0.21c0.71-0.14,1.23-0.91,1.23-0.92
				c0.09-0.14,0.28-0.18,0.43-0.09c0.14,0.09,0.18,0.28,0.09,0.43c-0.03,0.04-0.67,0.99-1.63,1.18
				C18.73,27.48,18.62,27.5,18.51,27.5z"/>
		</g>
		<g>
			<path class="st26" d="M12.86,19.04c-0.73,0-1.13-0.42-1.26-0.6c-0.34-0.46-0.29-0.79-0.25-1.09l0.02-0.12
				c0.04-0.34,0.5-2.43,0.56-2.67c0.16-0.97,1.04-1.85,1.08-1.89l2.4-2c1.66-1.05,3.43-0.76,5.59-0.27c1.18,0.27,2.17,0.21,3.12-0.2
				c0.16-0.07,0.34,0.01,0.4,0.16c0.07,0.16-0.01,0.34-0.16,0.4c-1.06,0.45-2.2,0.53-3.5,0.23c-2.08-0.47-3.66-0.74-5.09,0.17
				l-2.35,1.96c0,0,0,0,0,0c0,0-0.76,0.77-0.89,1.55c-0.21,0.93-0.52,2.38-0.55,2.62l-0.02,0.13c-0.04,0.26-0.05,0.38,0.14,0.64
				c0.21,0.28,0.73,0.65,1.89,0c0.9-0.51,1.04-1.47,1.12-1.99c0.02-0.16,0.04-0.28,0.08-0.37c0.11-0.28,0.53-0.46,2.04-0.9
				c0.22-0.06,0.44-0.13,0.5-0.15c0.49-0.21,1.52,0.18,2.24,0.58c0.67,0.36,2.97,1.03,4.73-0.61c0.12-0.12,0.32-0.11,0.44,0.02
				c0.12,0.12,0.11,0.32-0.02,0.44c-2.04,1.89-4.62,1.14-5.44,0.69c-0.91-0.49-1.57-0.61-1.71-0.55c-0.09,0.04-0.25,0.09-0.56,0.18
				c-0.4,0.12-1.42,0.42-1.66,0.58c-0.01,0.05-0.02,0.11-0.03,0.19c-0.08,0.58-0.26,1.78-1.42,2.44
				C13.72,18.92,13.24,19.04,12.86,19.04z"/>
		</g>
		<g>
			<g>
				<path class="st26" d="M9.62,24.47c-0.5,0-0.92-0.21-1.23-0.62c-0.23-0.31-0.38-0.59-0.45-0.88c-0.02-0.13-0.13-0.71-0.11-0.96
					c0.01-0.17,0.16-0.3,0.33-0.28c0.17,0.01,0.3,0.16,0.28,0.33c-0.01,0.13,0.05,0.54,0.1,0.79c0.05,0.18,0.16,0.4,0.34,0.64
					c0.23,0.31,0.54,0.43,0.94,0.36c0.28-0.04,0.55-0.19,0.76-0.42c0.42-0.44,1.01-1.04,1.41-1.37c0.48-0.4,0.45-1.01,0.17-1.4
					c-0.32-0.44-0.98-0.58-1.47-0.31c-0.05,0.03-0.1,0.05-0.15,0.09c0,0-0.45,0.28-0.77,0.52c-0.14,0.1-0.33,0.07-0.43-0.07
					c-0.1-0.14-0.07-0.33,0.07-0.43c0.34-0.24,0.79-0.53,0.81-0.54c0.06-0.04,0.12-0.07,0.18-0.11c0.77-0.41,1.76-0.2,2.26,0.49
					c0.52,0.72,0.41,1.66-0.27,2.23c-0.4,0.33-1.02,0.97-1.36,1.32c-0.31,0.33-0.7,0.53-1.11,0.6C9.82,24.46,9.72,24.47,9.62,24.47z
					"/>
			</g>
			<g>
				<path class="st26" d="M11.62,26.39c-0.41,0-0.79-0.14-1.11-0.43c-0.32-0.29-0.47-0.73-0.42-1.31c0.01-0.06,0.1-0.53,0.33-1.03
					c0.07-0.16,0.25-0.23,0.41-0.16c0.16,0.07,0.23,0.25,0.16,0.41c-0.19,0.44-0.28,0.87-0.28,0.87c-0.02,0.34,0.05,0.61,0.22,0.77
					c0.53,0.47,1.18,0.24,1.63-0.03c1-0.61,1.71-1.24,1.94-1.71c0.31-0.62,0.31-1.09,0-1.48c-0.22-0.27-0.56-0.48-0.91-0.54
					c-0.21-0.04-0.61-0.09-0.81-0.04c-0.17,0.04-0.33-0.06-0.37-0.23c-0.04-0.17,0.06-0.33,0.23-0.37c0.39-0.09,0.99,0.02,1.06,0.03
					c0.49,0.08,0.97,0.37,1.28,0.76c0.46,0.58,0.48,1.3,0.07,2.13c-0.37,0.75-1.39,1.48-2.18,1.97
					C12.44,26.26,12.01,26.39,11.62,26.39z"/>
			</g>
			<g>
				<path class="st26" d="M14.19,28.17c-0.06,0-0.11,0-0.17-0.01c-0.56-0.04-1.05-0.3-1.33-0.69c-0.2-0.28-0.51-0.91-0.5-1.39
					c0.01-0.17,0.13-0.3,0.32-0.3c0.17,0.01,0.3,0.15,0.3,0.32c-0.01,0.26,0.19,0.74,0.38,1.01c0.17,0.24,0.5,0.41,0.88,0.44
					c0.4,0.03,0.76-0.09,1-0.34l0.04-0.03c0,0,0.35-0.26,0.52-0.6c0.17-0.35,0.14-0.85-0.09-1.21c-0.15-0.24-0.45-0.53-1.04-0.53
					c-0.17,0-0.31-0.14-0.31-0.31c0-0.17,0.14-0.31,0.31-0.31c0.68,0,1.23,0.29,1.56,0.82c0.34,0.54,0.38,1.27,0.12,1.81
					c-0.21,0.43-0.59,0.74-0.69,0.81C15.16,27.99,14.69,28.17,14.19,28.17z"/>
			</g>
			<g>
				<path class="st26" d="M7.3,22.65c-0.21,0-0.43-0.05-0.66-0.18c-0.44-0.25-0.66-0.52-0.73-0.89c-0.09-0.46,0.06-0.97,0.36-1.24
					l1.11-0.98c0.34-0.3,0.9-0.57,0.92-0.58l0.08-0.03c0.16-0.03,0.3-0.01,0.44,0c0.41,0.05,0.73,0.24,0.93,0.55
					c0.28,0.42,0.25,0.94,0.19,1.12c-0.09,0.28-0.34,0.63-0.84,1.14l-0.06,0.06C8.74,21.96,8.07,22.65,7.3,22.65z M8.53,19.35
					c-0.13,0.07-0.51,0.27-0.74,0.47l-1.11,0.98c-0.14,0.12-0.21,0.41-0.17,0.66c0.03,0.13,0.08,0.27,0.43,0.47
					c0.54,0.31,1.12-0.18,1.67-0.75l0.06-0.06c0.53-0.55,0.66-0.79,0.69-0.89c0.02-0.06,0.03-0.38-0.13-0.61
					c-0.1-0.15-0.26-0.24-0.48-0.26C8.68,19.35,8.6,19.35,8.53,19.35z M7.59,19.59L7.59,19.59L7.59,19.59z"/>
			</g>
		</g>
		<g>
			<polygon class="st27" points="1.66,6.35 1.66,19.33 4.36,20.45 9.38,10.51 			"/>
		</g>
		<g>
			<polygon class="st27" points="32.34,6.35 32.34,19.33 29.51,20.45 24.25,10.51 			"/>
		</g>
		<g>
			<path class="st26" d="M4.5,20.84l-3.15-1.3V5.83l8.43,4.55L4.5,20.84z M1.97,19.12l2.24,0.93l4.76-9.41L1.97,6.87V19.12z"/>
		</g>
		<g>
			<path class="st26" d="M29.37,20.83l-5.54-10.45l8.82-4.54v13.69L29.37,20.83z M24.66,10.64l4.99,9.41l2.37-0.94V6.86L24.66,10.64
				z"/>
		</g>
		<g>
			<path class="st26" d="M26.66,21.66c-0.1,0-0.2-0.05-0.26-0.14c-0.09-0.14-0.06-0.33,0.08-0.43c0.73-0.49,2.1-1.77,2.11-1.78
				c0.12-0.12,0.32-0.11,0.44,0.01c0.12,0.12,0.11,0.32-0.01,0.44c-0.06,0.05-1.42,1.32-2.19,1.84
				C26.78,21.64,26.72,21.66,26.66,21.66z"/>
		</g>
	</g>
</g>
<g class="st0">
	<g class="st1">
		<g>
			<path class="st28" d="M20.62,4.88h5.14c0,0,2.43,0.11,2.43,2.14v22.62c0,0,0.62,3.05-2.91,3H8.68c0,0-2.77,0.39-2.91-2.31V7.18
				c0,0-0.19-2.18,2.24-2.31h5.31"/>
		</g>
		<g>
			<path class="st26" d="M8.32,32.99c-0.49,0-1.31-0.09-1.96-0.63c-0.55-0.46-0.86-1.13-0.91-2l0-23.17c0-0.01-0.08-1.01,0.59-1.78
				C6.48,4.89,7.14,4.6,8,4.56l5.33,0V5.2H8.01C7.36,5.23,6.85,5.44,6.53,5.82C6.03,6.38,6.09,7.15,6.09,7.16l0,23.18
				c0.04,0.67,0.26,1.19,0.67,1.53c0.75,0.61,1.86,0.46,1.87,0.46l0.04,0h16.6c1.02,0.02,1.75-0.24,2.18-0.76
				c0.63-0.76,0.42-1.85,0.41-1.86l-0.01-0.06V7.02c0-1.7-2.04-1.82-2.13-1.82l-5.13,0V4.56h5.14c0.96,0.04,2.75,0.61,2.75,2.46
				v22.59c0.04,0.23,0.2,1.44-0.55,2.36c-0.56,0.67-1.46,1-2.68,0.99H8.7C8.65,32.97,8.51,32.99,8.32,32.99z"/>
		</g>
	</g>
	<g class="st1">
		<circle class="st29" cx="17.04" cy="17.44" r="5.46"/>
		<path class="st23" d="M17.04,23.2c-3.18,0-5.76-2.59-5.76-5.76s2.59-5.76,5.76-5.76s5.76,2.59,5.76,5.76S20.22,23.2,17.04,23.2z
			 M17.04,12.29c-2.84,0-5.15,2.31-5.15,5.15s2.31,5.15,5.15,5.15s5.15-2.31,5.15-5.15S19.88,12.29,17.04,12.29z"/>
	</g>
	<g class="st1">
		<path class="st30" d="M12.77,20.68c0,0,2.82-3.76,6.91-1.66c0,0,1.64,0.99,1.55,1.97C21.23,20.98,17.23,25.01,12.77,20.68z"/>
	</g>
	<g class="st1">
		<g>
			<path class="st31" d="M14.61,1.34h4.87v4.72c0,0-0.09,2.53-2.42,2.67c0,0-2.31-0.15-2.45-2.53V1.34z"/>
		</g>
		<g>
			<path class="st26" d="M17.08,9.04c-0.93-0.06-2.66-0.72-2.79-2.83l0-5.2h5.51v5.04C19.77,7.05,19.16,8.92,17.08,9.04z
				 M14.93,1.66v4.54C15.06,8.24,17,8.4,17.08,8.41c1.98-0.12,2.08-2.27,2.08-2.36l0-4.39H14.93z"/>
		</g>
	</g>
	<g class="st1">
		<path class="st23" d="M17.06,7.19c-0.72,0-1.31-0.59-1.31-1.31s0.59-1.31,1.31-1.31c0.72,0,1.31,0.59,1.31,1.31
			S17.79,7.19,17.06,7.19z M17.06,5.18c-0.38,0-0.69,0.31-0.69,0.69s0.31,0.69,0.69,0.69s0.69-0.31,0.69-0.69S17.45,5.18,17.06,5.18
			z"/>
	</g>
	<g class="st1">
		<circle class="st25" cx="17.04" cy="16.68" r="2.01"/>
		<path class="st23" d="M17.04,18.99c-1.28,0-2.31-1.04-2.31-2.31s1.04-2.31,2.31-2.31s2.31,1.04,2.31,2.31S18.32,18.99,17.04,18.99
			z M17.04,14.98c-0.94,0-1.7,0.76-1.7,1.7c0,0.94,0.76,1.7,1.7,1.7c0.94,0,1.7-0.76,1.7-1.7C18.74,15.74,17.98,14.98,17.04,14.98z"
			/>
	</g>
	<g class="st1">
		<path class="st23" d="M21.22,21.24c-0.11,0-0.21-0.06-0.27-0.16c-0.01-0.02-1.1-1.96-3.23-2.19c-0.17-0.02-0.29-0.17-0.27-0.34
			c0.02-0.17,0.18-0.29,0.34-0.27c2.46,0.26,3.66,2.41,3.71,2.5c0.08,0.15,0.03,0.34-0.12,0.42C21.33,21.23,21.27,21.24,21.22,21.24
			z"/>
	</g>
	<g class="st1">
		<path class="st23" d="M12.77,21.15c-0.06,0-0.11-0.02-0.16-0.05c-0.14-0.09-0.19-0.28-0.1-0.42c0.05-0.08,1.27-1.98,3.83-2.39
			c0.17-0.03,0.33,0.09,0.35,0.26c0.03,0.17-0.09,0.33-0.26,0.35c-2.29,0.37-3.39,2.09-3.41,2.11
			C12.98,21.09,12.88,21.15,12.77,21.15z"/>
	</g>
	<g class="st1">
		<path class="st23" d="M24.99,26.84H9.14c-0.17,0-0.31-0.14-0.31-0.31s0.14-0.31,0.31-0.31h15.85c0.17,0,0.31,0.14,0.31,0.31
			S25.16,26.84,24.99,26.84z"/>
	</g>
	<g class="st1">
		<path class="st23" d="M23.44,28.86H11.18c-0.17,0-0.31-0.14-0.31-0.31s0.14-0.31,0.31-0.31h12.25c0.17,0,0.31,0.14,0.31,0.31
			S23.61,28.86,23.44,28.86z"/>
	</g>
</g>
<g class="st0">
	<g class="st1">
		<path class="st4" d="M12.51,15.52c-0.06,0-0.12,0-0.18,0c-2.62,0-4.77-2.15-4.77-4.77s2.15-4.77,4.77-4.77
			c1.09,0,2.13,0.37,2.97,1.04"/>
	</g>
	<g class="st1">
		<path class="st4" d="M15.3,7.02c0.28,0.22,0.53,0.48,0.76,0.76c0,0,1.24,5.7-2.65,7.62c-0.29,0.07-0.6,0.11-0.9,0.12"/>
	</g>
	<g class="st1">
		<path class="st4" d="M20.43,15.36c0.35,0.09,0.71,0.14,1.08,0.15c2.62,0.07,4.83-2.02,4.9-4.64s-2.02-4.83-4.64-4.9
			c-1.45-0.04-2.84,0.58-3.78,1.69C17.99,7.66,16.85,13.16,20.43,15.36z"/>
	</g>
	<g class="st1">
		<path class="st11" d="M24.08,19c0,0,1.17-2.75,2.51-2.3c0,0,4.48,0.56,5.15,4.26l0.35,5.68l-5.15,0.34
			C26.95,26.98,25.66,19.64,24.08,19z"/>
	</g>
	<g class="st1">
		<path class="st11" d="M9.92,18.73c0,0-1.17-2.75-2.51-2.3c0,0-4.48,0.56-5.15,4.26L1.9,26.38l5.15,0.34
			C7.05,26.72,8.33,19.38,9.92,18.73z"/>
	</g>
	<g class="st1">
		<g>
			<circle class="st4" cx="16.93" cy="12.18" r="4.52"/>
		</g>
		<g>
			<path class="st32" d="M16.93,17.01c-2.67,0-4.83-2.17-4.83-4.83s2.17-4.83,4.83-4.83s4.83,2.17,4.83,4.83S19.6,17.01,16.93,17.01
				z M16.93,7.97c-2.32,0-4.21,1.89-4.21,4.21s1.89,4.21,4.21,4.21s4.21-1.89,4.21-4.21S19.25,7.97,16.93,7.97z"/>
		</g>
	</g>
	<g class="st1">
		<path d="M12.33,15.84c-2.8,0-5.08-2.28-5.08-5.08c0-2.8,2.28-5.08,5.08-5.08c1.14,0,2.27,0.39,3.16,1.1
			c0.14,0.11,0.16,0.3,0.05,0.44c-0.11,0.14-0.3,0.16-0.44,0.05c-0.79-0.62-1.77-0.97-2.78-0.97c-2.46,0-4.46,2-4.46,4.46
			c0,2.46,2,4.46,4.46,4.46c0.04,0,0.18-0.01,0.27-0.01l0.08,0c0.17-0.02,0.32,0.13,0.32,0.3c0.01,0.17-0.13,0.32-0.3,0.32l-0.08,0
			C12.52,15.83,12.37,15.84,12.33,15.84z"/>
	</g>
	<g class="st1">
		<path d="M21.64,15.82c-0.05,0-0.09,0-0.14,0c-0.17,0-0.31-0.15-0.3-0.32c0-0.17,0.15-0.3,0.32-0.3c1.18,0.03,2.31-0.4,3.18-1.23
			c0.87-0.82,1.37-1.93,1.4-3.11s-0.4-2.31-1.23-3.18c-0.82-0.87-1.93-1.37-3.11-1.4c-0.98-0.03-1.96,0.28-2.75,0.86
			c-0.14,0.1-0.34,0.07-0.44-0.07c-0.1-0.14-0.07-0.33,0.07-0.44c0.9-0.66,2.01-1,3.13-0.98c1.35,0.04,2.61,0.6,3.55,1.59
			c0.94,0.99,1.43,2.28,1.4,3.63c-0.04,1.35-0.6,2.61-1.59,3.55C24.17,15.33,22.94,15.82,21.64,15.82z"/>
	</g>
	<g class="st1">
		<path class="st14" d="M12.68,17.75l3.3,6.05c0,0,1.73,0.09,1.73,0c0-0.09,3.24-5.79,3.24-5.79s5.71,0.64,5.97,5.01l0.17,5.02H6.55
			V24.4c0,0-0.26-4.11,3.2-5.45L12.68,17.75z"/>
		<path class="st32" d="M27.41,28.34H6.24V24.4c0-0.02-0.23-4.33,3.4-5.74l3.18-1.31l3.35,6.14c0.52,0.02,1.09,0.04,1.33,0.03
			c0.23-0.45,0.94-1.74,3.18-5.66l0.1-0.18l0.2,0.02c0.06,0.01,5.97,0.73,6.24,5.3L27.41,28.34z M6.86,27.72h19.9l-0.16-4.69
			c-0.21-3.6-4.5-4.52-5.49-4.68c-1.19,2.09-2.87,5.07-3.1,5.51v0.07l-0.1,0.1c-0.1,0.1-0.18,0.17-1.96,0.08l-0.17-0.01l-3.25-5.96
			l-2.67,1.1c-3.21,1.25-3.01,5.1-3.01,5.14L6.86,27.72z M17.45,23.61c-0.03,0.04-0.06,0.1-0.06,0.16
			C17.39,23.75,17.4,23.71,17.45,23.61z"/>
	</g>
	<g class="st1">
		<path d="M32.42,26.95h-4.99v-0.62h4.33l-0.23-4.38c-0.07-2.73-1.74-3.58-2.63-4.04l-0.15-0.08c-0.66-0.35-2.23-0.83-2.82-1.01
			l-0.65,1.08l-0.54-0.32l0.9-1.5l0.23,0.07c0.09,0.03,2.29,0.67,3.17,1.13l0.14,0.07c0.94,0.48,2.89,1.48,2.97,4.57L32.42,26.95z"
			/>
	</g>
	<g class="st1">
		<path d="M6.54,26.95H1.58l0.01-0.32c0-0.03,0.13-3.18,0.33-5.5c0.2-2.31,1.87-3.26,2.87-3.83l0.23-0.13
			c0.93-0.55,2.95-1,3.03-1.02l0.21-0.05l0.96,1.47L8.7,17.92l-0.72-1.11c-0.53,0.13-1.96,0.49-2.64,0.9L5.1,17.84
			c-0.95,0.54-2.38,1.36-2.56,3.34c-0.16,1.86-0.28,4.28-0.31,5.14h4.31V26.95z"/>
	</g>
</g>
<g class="st0">
	<g class="st1">
		<path class="st33" d="M12.25,19.4c0,0-0.56,1.03-0.27,2.01c0.29,0.98,2.19,1.84,3.89,1.78s3.37,0.14,4.24-0.68
			c0.87-0.82,1.05-1.28,1.15-2.07c0,0-0.06-0.49-0.46-0.67S12.25,19.4,12.25,19.4z"/>
	</g>
	<g class="st1">
		<path class="st33" d="M12.31,22.02c0,0-0.56,1.03-0.27,2.01c0.29,0.98,2.19,1.84,3.89,1.78c1.7-0.06,3.37,0.14,4.24-0.68
			c0.87-0.82,1.05-1.28,1.15-2.07c0,0-0.06-0.49-0.46-0.67S12.31,22.02,12.31,22.02z"/>
	</g>
	<g class="st1">
		<path class="st33" d="M12.26,24.65c0,0-0.58,1.03-0.28,2.01s2.25,1.84,4,1.78c1.75-0.06,3.47,0.14,4.37-0.68s1.08-1.28,1.18-2.07
			c0,0-0.06-0.49-0.48-0.67C20.64,24.83,12.26,24.65,12.26,24.65z"/>
	</g>
	<g class="st1">
		<path class="st33" d="M12.33,27.08c0,0-0.58,1.03-0.28,2.01s2.25,1.84,4,1.78c1.75-0.06,3.47,0.14,4.37-0.68s1.08-1.28,1.18-2.07
			c0,0-0.06-0.49-0.48-0.67C20.71,27.26,12.33,27.08,12.33,27.08z"/>
	</g>
	<g class="st1">
		<path class="st33" d="M23.97,24.2c0,0-0.52,0.95-0.25,1.86c0.27,0.91,2.01,1.71,3.58,1.65c1.57-0.06,3.1,0.13,3.9-0.63
			c0.8-0.76,0.96-1.19,1.05-1.92c0,0-0.06-0.46-0.43-0.63C31.46,24.37,23.97,24.2,23.97,24.2z"/>
	</g>
	<g class="st1">
		<g>
			<path class="st11" d="M10.13,25.01c0,0.02,0,0.03,0,0.05c0,1.21-0.78,2.23-1.75,2.49c-1.7,0.45-4.83,0.27-5.68-0.23
				c-1.28-0.76-1.1-2.31-1.1-2.31s-0.03-0.57,0.38-0.87c0.4-0.31,6.69-0.52,7.53-0.2C9.5,23.94,10.01,24.3,10.13,25.01z"/>
		</g>
		<g>
			<path class="st11" d="M10.13,27.7c0.19,1.2-0.8,2.23-1.81,2.49c-1.76,0.45-5.01,0.27-5.89-0.23c-1.33-0.76-0.71-2.27-0.71-2.27
				s0.07-0.5,0.48-0.81c0.42-0.31,6.41-0.62,7.27-0.3C9.48,26.57,9.95,26.59,10.13,27.7z"/>
		</g>
		<g>
			<g>
				<ellipse class="st11" cx="5.89" cy="23.52" rx="4.05" ry="1.5"/>
			</g>
			<g>
				<path class="st23" d="M5.89,25.32c-2.11,0-4.36-0.63-4.36-1.8c0-1.17,2.25-1.8,4.36-1.8s4.36,0.63,4.36,1.8
					C10.25,24.69,8.01,25.32,5.89,25.32z M5.89,22.33c-2.28,0-3.74,0.7-3.74,1.19c0,0.48,1.46,1.19,3.74,1.19
					c2.29,0,3.74-0.7,3.74-1.19C9.64,23.03,8.18,22.33,5.89,22.33z"/>
			</g>
		</g>
		<g>
			<path class="st23" d="M6.84,27.76c-1.63,0-3.48-0.16-4.2-0.3c-1.5-0.3-1.24-2.4-1.23-2.48c0.02-0.17,0.18-0.28,0.34-0.26
				c0.17,0.02,0.29,0.18,0.26,0.34c0,0.02-0.2,1.61,0.74,1.8c0.91,0.18,3.9,0.4,5.59,0.23c0.52-0.05,0.89-0.23,1.11-0.53
				c0.35-0.47,0.24-1.13,0.2-1.33l-0.01-0.08c0-0.17,0.14-0.31,0.31-0.31c0.15,0,0.28,0.11,0.3,0.25c0.06,0.26,0.19,1.14-0.3,1.82
				c-0.33,0.45-0.84,0.71-1.54,0.78C7.95,27.74,7.41,27.76,6.84,27.76z"/>
		</g>
		<g>
			<path class="st23" d="M5.81,30.77c-1.26,0-2.46-0.09-2.97-0.21c-0.55-0.13-0.95-0.42-1.18-0.85c-0.47-0.85-0.12-1.94-0.11-1.98
				c0.05-0.16,0.23-0.25,0.39-0.2c0.16,0.05,0.25,0.23,0.2,0.39c0,0.01-0.28,0.89,0.06,1.5c0.15,0.28,0.41,0.46,0.79,0.55
				c0.82,0.2,3.68,0.3,5.4,0.04c0.52-0.08,0.87-0.26,1.08-0.56c0.25-0.35,0.3-0.86,0.17-1.57c-0.03-0.17,0.08-0.33,0.25-0.36
				c0.17-0.03,0.33,0.08,0.36,0.25c0.16,0.88,0.07,1.55-0.28,2.03c-0.31,0.43-0.81,0.7-1.49,0.81C7.71,30.72,6.74,30.77,5.81,30.77z
				"/>
		</g>
	</g>
	<g class="st1">
		<ellipse class="st33" cx="16.52" cy="19.28" rx="4.27" ry="1.26"/>
		<path class="st23" d="M16.52,20.85c-2.21,0-4.58-0.49-4.58-1.57c0-1.08,2.37-1.57,4.58-1.57s4.58,0.49,4.58,1.57
			C21.1,20.36,18.72,20.85,16.52,20.85z M16.52,18.32c-2.46,0-3.96,0.62-3.96,0.96c0,0.34,1.51,0.96,3.96,0.96s3.96-0.62,3.96-0.96
			C20.48,18.94,18.98,18.32,16.52,18.32z"/>
	</g>
	<g class="st1">
		<path class="st34" d="M16.14,23.49c-0.99,0-2.77-0.22-3.64-0.81c-0.87-0.59-0.96-1.61-0.75-2.14c0.06-0.16,0.24-0.24,0.4-0.17
			c0.16,0.06,0.23,0.24,0.17,0.4c-0.1,0.26-0.11,0.97,0.52,1.4c0.67,0.46,2.2,0.7,3.3,0.7c1.38,0,2.49-0.16,3.39-0.5
			c0.99-0.37,1.41-0.96,1.28-1.79c-0.03-0.17,0.09-0.33,0.26-0.35c0.17-0.02,0.33,0.09,0.35,0.26c0.12,0.79-0.07,1.86-1.68,2.46
			C18.77,23.32,17.59,23.49,16.14,23.49z"/>
	</g>
	<g class="st1">
		<path class="st34" d="M16.58,26.1c-1.12,0-2.2-0.13-2.97-0.32c-1.77-0.43-2.04-1.92-1.94-2.64c0.02-0.17,0.18-0.29,0.35-0.26
			c0.17,0.02,0.28,0.18,0.26,0.35l0,0c-0.01,0.06-0.19,1.56,1.47,1.96c1.56,0.38,4.49,0.53,6.14-0.29c1.41-0.71,1.11-1.83,1.09-1.88
			c-0.05-0.16,0.05-0.33,0.21-0.38c0.16-0.05,0.33,0.05,0.38,0.21c0.16,0.57,0.08,1.85-1.41,2.6C19.21,25.92,17.87,26.1,16.58,26.1z
			"/>
	</g>
	<g class="st1">
		<path class="st34" d="M16.56,28.53c-1.12,0-2.2-0.14-2.95-0.33c-1.61-0.41-1.98-1.75-1.95-2.41c0.01-0.17,0.16-0.3,0.32-0.29
			c0.17,0.01,0.3,0.15,0.29,0.32c0,0.06-0.03,1.4,1.48,1.78c1.77,0.45,4.61,0.46,6.14-0.29c1.34-0.67,1.17-1.64,1.16-1.69
			c-0.03-0.17,0.08-0.33,0.24-0.36c0.17-0.03,0.33,0.07,0.36,0.24c0.01,0.06,0.29,1.48-1.49,2.36
			C19.18,28.35,17.84,28.53,16.56,28.53z"/>
	</g>
	<g class="st1">
		<path class="st34" d="M16.43,31.08c-1.05,0-2.06-0.12-2.82-0.34c-1.67-0.48-1.93-1.88-1.84-2.56c0.02-0.17,0.18-0.29,0.35-0.26
			c0.17,0.02,0.28,0.18,0.26,0.35l0,0c-0.01,0.06-0.17,1.44,1.4,1.89c1.68,0.48,4.71,0.44,6.24-0.33c1.38-0.7,1.08-1.73,1.07-1.77
			c-0.05-0.16,0.04-0.33,0.2-0.39c0.16-0.05,0.33,0.03,0.39,0.19c0.18,0.54,0.12,1.76-1.37,2.51
			C19.31,30.86,17.85,31.08,16.43,31.08z"/>
	</g>
	<g class="st1">
		<g>
			<path class="st33" d="M23.89,14.62c0,0-0.51,0.95-0.25,1.86c0.27,0.91,2.01,1.71,3.57,1.65c1.56-0.06,3.09,0.13,3.89-0.63
				s0.96-1.19,1.05-1.92c0,0-0.06-0.46-0.43-0.63S23.89,14.62,23.89,14.62z"/>
		</g>
		<g>
			<path class="st33" d="M23.95,17.05c0,0-0.51,0.95-0.25,1.86c0.27,0.91,2.01,1.71,3.57,1.65s3.09,0.13,3.89-0.63
				s0.96-1.19,1.05-1.92c0,0-0.06-0.46-0.43-0.63C31.41,17.22,23.95,17.05,23.95,17.05z"/>
		</g>
		<g>
			<path class="st33" d="M23.9,19.49c0,0-0.53,0.95-0.25,1.86c0.28,0.91,2.07,1.71,3.67,1.65c1.61-0.06,3.18,0.13,4-0.63
				s0.99-1.19,1.08-1.92c0,0-0.06-0.46-0.44-0.63C31.58,19.65,23.9,19.49,23.9,19.49z"/>
		</g>
		<g>
			<path class="st33" d="M23.97,21.74c0,0-0.53,0.95-0.25,1.86c0.28,0.91,2.07,1.71,3.67,1.65c1.61-0.06,3.18,0.13,4-0.63
				c0.82-0.76,0.99-1.19,1.08-1.92c0,0-0.06-0.46-0.44-0.63C31.65,21.91,23.97,21.74,23.97,21.74z"/>
		</g>
		<g>
			<ellipse class="st33" cx="27.81" cy="14.5" rx="3.92" ry="1.17"/>
			<path class="st23" d="M27.81,15.98c-2.03,0-4.22-0.46-4.22-1.48s2.19-1.48,4.22-1.48c2.03,0,4.22,0.46,4.22,1.48
				S29.84,15.98,27.81,15.98z M27.81,13.64c-2.38,0-3.61,0.61-3.61,0.86c0,0.26,1.23,0.86,3.61,0.86s3.61-0.61,3.61-0.86
				C31.41,14.25,30.19,13.64,27.81,13.64z"/>
		</g>
		<g>
			<path class="st34" d="M27.46,18.44c-0.91,0-2.55-0.2-3.36-0.75c-0.8-0.55-0.89-1.51-0.69-2.01c0.06-0.16,0.24-0.23,0.4-0.17
				c0.16,0.06,0.24,0.24,0.17,0.4c-0.09,0.24-0.1,0.88,0.47,1.28c0.61,0.42,2.01,0.65,3.01,0.65c1.26,0,2.27-0.15,3.1-0.46
				c0.8-0.3,1.18-0.85,1.16-1.67c-0.01-0.17,0.13-0.31,0.3-0.32c0.16-0.01,0.31,0.13,0.32,0.3c0.02,0.76-0.23,1.76-1.56,2.27
				C29.88,18.27,28.79,18.44,27.46,18.44z"/>
		</g>
		<g>
			<path class="st34" d="M27.75,20.83c-0.91,0-1.8-0.11-2.52-0.3c-1.48-0.38-1.89-1.74-1.9-2.4c0-0.17,0.13-0.31,0.3-0.31
				c0.18-0.01,0.31,0.13,0.31,0.3c0,0.06,0.05,1.46,1.44,1.82c1.54,0.4,3.95,0.43,5.38-0.3c1.3-0.66,1.11-1.68,1.11-1.69
				c-0.03-0.17,0.08-0.33,0.24-0.36c0.17-0.03,0.33,0.08,0.36,0.24c0.01,0.06,0.27,1.49-1.43,2.36
				C30.15,20.65,28.94,20.83,27.75,20.83z"/>
		</g>
		<g>
			<path class="st34" d="M27.84,23.1c-1.03,0-2.02-0.13-2.71-0.3c-1.49-0.38-1.83-1.64-1.8-2.25c0.01-0.17,0.16-0.31,0.32-0.29
				c0.17,0.01,0.3,0.15,0.29,0.32c0,0.05-0.03,1.28,1.34,1.63c1.61,0.41,4.22,0.43,5.61-0.27c1.21-0.61,1.06-1.5,1.05-1.54
				c-0.03-0.17,0.08-0.33,0.24-0.36c0.17-0.03,0.33,0.07,0.36,0.24c0.01,0.06,0.27,1.38-1.38,2.21
				C30.26,22.94,29.02,23.1,27.84,23.1z"/>
		</g>
		<g>
			<path class="st34" d="M27.72,25.5c-0.97,0-1.91-0.12-2.6-0.35c-1.36-0.45-1.7-1.74-1.69-2.36c0-0.17,0.14-0.3,0.31-0.3
				c0,0,0,0,0,0c0.17,0,0.3,0.14,0.3,0.31c0,0.06,0.01,1.35,1.27,1.77c1.46,0.48,4.26,0.45,5.68-0.31c1.1-0.58,1.01-1.38,1-1.42
				c-0.02-0.17,0.09-0.32,0.26-0.35c0.16-0.02,0.32,0.09,0.35,0.25c0.01,0.05,0.18,1.26-1.32,2.06
				C30.38,25.28,29.02,25.5,27.72,25.5z"/>
		</g>
	</g>
	<g class="st1">
		<path class="st33" d="M24.04,26.45c0,0-0.52,0.95-0.25,1.86c0.27,0.91,2.01,1.71,3.58,1.65c1.57-0.06,3.1,0.13,3.9-0.63
			c0.8-0.76,0.96-1.19,1.05-1.92c0,0-0.06-0.46-0.43-0.63C31.52,26.62,24.04,26.45,24.04,26.45z"/>
	</g>
	<g class="st1">
		<path class="st34" d="M27.62,27.79c-0.91,0-1.79-0.1-2.45-0.27c-1.46-0.38-1.79-1.64-1.76-2.25c0.01-0.17,0.17-0.31,0.32-0.29
			c0.17,0.01,0.3,0.15,0.29,0.32c0,0.05-0.03,1.28,1.3,1.63c1.46,0.38,4.01,0.36,5.47-0.28c1.14-0.5,1.16-1.47,1.16-1.48
			c0-0.17,0.14-0.31,0.31-0.31s0.31,0.14,0.31,0.31c0,0.06-0.02,1.38-1.52,2.04C30.11,27.61,28.83,27.79,27.62,27.79z"/>
	</g>
	<g class="st1">
		<path class="st34" d="M27.61,30.16c-0.92,0-1.8-0.1-2.44-0.3c-1.51-0.45-1.75-1.76-1.66-2.4c0.02-0.17,0.17-0.29,0.35-0.26
			c0.17,0.02,0.29,0.18,0.26,0.34c-0.01,0.06-0.14,1.32,1.23,1.73c1.42,0.42,4.09,0.38,5.55-0.31c1.05-0.5,0.95-1.48,0.95-1.52
			c-0.02-0.17,0.1-0.32,0.27-0.34c0.17-0.02,0.32,0.1,0.34,0.26c0.07,0.5-0.12,1.6-1.3,2.15C30.22,29.96,28.87,30.16,27.61,30.16z"
			/>
	</g>
	<g class="st1">
		<path class="st23" d="M4.81,17.56c-0.87,0-1.59-0.71-1.59-1.59s0.71-1.59,1.59-1.59S6.4,15.1,6.4,15.97S5.69,17.56,4.81,17.56z
			 M4.81,15c-0.54,0-0.97,0.44-0.97,0.97c0,0.54,0.44,0.97,0.97,0.97s0.97-0.44,0.97-0.97C5.78,15.44,5.35,15,4.81,15z"/>
	</g>
	<g class="st1">
		<path class="st23" d="M8.87,13.2c-0.87,0-1.59-0.71-1.59-1.59c0-0.87,0.71-1.59,1.59-1.59c0.87,0,1.59,0.71,1.59,1.59
			C10.46,12.49,9.75,13.2,8.87,13.2z M8.87,10.64c-0.54,0-0.97,0.44-0.97,0.97c0,0.54,0.44,0.97,0.97,0.97
			c0.54,0,0.97-0.44,0.97-0.97C9.84,11.08,9.41,10.64,8.87,10.64z"/>
	</g>
	<g class="st1">
		<path class="st23" d="M15.42,14.21c-0.87,0-1.59-0.71-1.59-1.59c0-0.87,0.71-1.59,1.59-1.59c0.87,0,1.59,0.71,1.59,1.59
			C17.01,13.5,16.3,14.21,15.42,14.21z M15.42,11.65c-0.54,0-0.97,0.44-0.97,0.97c0,0.54,0.44,0.97,0.97,0.97
			c0.54,0,0.97-0.44,0.97-0.97C16.39,12.09,15.96,11.65,15.42,11.65z"/>
	</g>
	<g class="st1">
		<path class="st23" d="M5.51,15.21c-0.08,0-0.16-0.03-0.22-0.09c-0.12-0.12-0.12-0.31,0-0.43l2.43-2.42c0.12-0.12,0.32-0.12,0.43,0
			c0.12,0.12,0.12,0.31,0,0.43l-2.43,2.42C5.67,15.18,5.59,15.21,5.51,15.21z"/>
	</g>
	<g class="st1">
		<path class="st23" d="M14.14,12.93c-0.03,0-0.05,0-0.08-0.01l-3.99-1.01c-0.16-0.04-0.26-0.21-0.22-0.37
			c0.04-0.16,0.21-0.26,0.37-0.22l3.99,1.01c0.16,0.04,0.26,0.21,0.22,0.37C14.41,12.84,14.28,12.93,14.14,12.93z"/>
	</g>
	<g class="st1">
		<path class="st23" d="M16.71,12.43c-0.1,0-0.2-0.05-0.26-0.14c-0.09-0.14-0.06-0.33,0.09-0.43L26.58,5.2
			c0.14-0.09,0.33-0.05,0.43,0.09c0.09,0.14,0.06,0.33-0.09,0.43l-10.04,6.66C16.83,12.41,16.77,12.43,16.71,12.43z"/>
	</g>
	<g class="st1">
		<path class="st23" d="M28.29,7.82l-3.37-4.9h5.51L28.29,7.82z M26.1,3.54l2.08,3.02l1.32-3.02H26.1z"/>
	</g>
</g>
<g class="st0">
	<g class="st1">
		<path class="st35" d="M19.7,27.03h4.9h1.46h4.38c1.07,0,1.95-0.88,1.95-1.95V5.84c0-1.07-0.88-1.95-1.95-1.95h-1.97h-1.45H3.56
			c-1.07,0-1.95,0.88-1.95,1.95v7.64v1.37v10.25c0,1.07,0.88,1.95,1.95,1.95h6.8H19.7z"/>
	</g>
	<g class="st1">
		<path class="st6" d="M30.44,27.35H19.7c-0.17,0-0.31-0.14-0.31-0.31s0.14-0.31,0.31-0.31h10.74c0.9,0,1.63-0.73,1.63-1.63V5.84
			c0-0.9-0.73-1.63-1.63-1.63H3.56c-0.9,0-1.63,0.73-1.63,1.63v19.25c0,0.9,0.73,1.63,1.63,1.63h6.8c0.17,0,0.31,0.14,0.31,0.31
			s-0.14,0.31-0.31,0.31h-6.8c-1.25,0-2.26-1.01-2.26-2.26V5.84c0-1.25,1.01-2.26,2.26-2.26h26.88c1.25,0,2.26,1.01,2.26,2.26v19.25
			C32.7,26.33,31.68,27.35,30.44,27.35z"/>
	</g>
	<g class="st1">
		<rect x="1.61" y="8.79" class="st6" width="30.77" height="0.63"/>
	</g>
	<g class="st1">
		<circle class="st36" cx="5.13" cy="6.52" r="0.88"/>
	</g>
	<g class="st1">
		<circle class="st36" cx="7.89" cy="6.52" r="0.88"/>
	</g>
	<g class="st1">
		<circle class="st36" cx="10.36" cy="6.52" r="0.88"/>
	</g>
	<g class="st1">
		<g>
			<path class="st37" d="M15.44,27.83l-1.74,1.74c-0.19,0.19-0.51,0.12-0.59-0.13l-2.82-7.92c-0.07-0.2,0.12-0.39,0.32-0.32
				l7.87,2.82c0.28,0.1,0.36,0.46,0.15,0.66L17,26.31l2.07,2.15l-1.44,1.53L15.44,27.83z"/>
		</g>
		<g>
			<path class="st23" d="M17.63,30.43l-2.19-2.15l-1.52,1.52c-0.16,0.16-0.4,0.23-0.62,0.18c-0.23-0.05-0.41-0.21-0.49-0.43
				l-2.82-7.92c-0.07-0.21-0.02-0.43,0.13-0.59c0.15-0.15,0.38-0.2,0.59-0.13l7.87,2.82c0.23,0.08,0.4,0.28,0.46,0.52
				c0.05,0.24-0.02,0.49-0.19,0.66l-1.4,1.4l2.06,2.14L17.63,30.43z M15.44,27.39l2.18,2.14l1.02-1.08l-2.08-2.15l1.84-1.83
				c0.03-0.03,0.03-0.06,0.02-0.08c0-0.02-0.02-0.05-0.06-0.06l-7.74-2.78l2.77,7.79c0.01,0.02,0.02,0.03,0.03,0.03
				c0.03,0,0.04-0.01,0.04-0.01L15.44,27.39z"/>
		</g>
	</g>
	<g class="st1">
		<path class="st38" d="M26.53,20.01H8.15c-1.48,0-2.69-1.21-2.69-2.69v-0.65c0-1.48,1.21-2.69,2.69-2.69h18.38
			c1.48,0,2.69,1.21,2.69,2.69v0.65C29.22,18.8,28.01,20.01,26.53,20.01z"/>
		<path class="st6" d="M27.66,20.33H7.02c-1.03,0-1.87-0.84-1.87-1.87v-2.91c0-1.03,0.84-1.87,1.87-1.87h20.64
			c1.03,0,1.87,0.84,1.87,1.87v2.91C29.54,19.49,28.7,20.33,27.66,20.33z M7.02,14.29c-0.69,0-1.25,0.56-1.25,1.25v2.91
			c0,0.69,0.56,1.25,1.25,1.25h20.64c0.69,0,1.25-0.56,1.25-1.25v-2.91c0-0.69-0.56-1.25-1.25-1.25H7.02z"/>
	</g>
</g>
<g class="st0">
	<g class="st1">
		<path class="st39" d="M13.61,4.88v-2.8l-5.27-0.9c0,0-0.55-0.07-0.54,0.4l0,26.12c0,0,1.42,0.56,3.77,0.23l2.03-20.62V4.88z"/>
	</g>
	<g class="st1">
		<polygon class="st40" points="17.57,6.28 17.55,30.13 24.02,28.95 24.02,6.86 		"/>
	</g>
	<g class="st1">
		<polygon class="st41" points="26.14,32.78 31.95,31.23 31.86,17.02 26.47,16.23 		"/>
	</g>
	<g class="st1">
		<polygon class="st6" points="26.22,33.08 26.06,32.48 31.64,30.99 31.55,17.29 26.42,16.54 26.51,15.92 32.17,16.75 32.26,31.47 
					"/>
	</g>
	<g class="st1">
		<path class="st6" d="M23.97,15.37C23.97,15.37,23.97,15.37,23.97,15.37c-0.17,0-0.31-0.14-0.31-0.31l0.04-7.91L17.76,6.6
			c-0.13,0.06-0.42,0.32-0.48,0.43c-0.02,0.15-0.15,0.27-0.31,0.27c-0.17,0-0.31-0.14-0.31-0.31c0-0.11,0.04-0.29,0.35-0.6
			c0.16-0.16,0.47-0.42,0.72-0.42c0,0,0.01,0,0.01,0l6.58,0.6l-0.04,8.48C24.28,15.23,24.14,15.37,23.97,15.37z M17.28,7.04
			L17.28,7.04L17.28,7.04z M17.29,6.99L17.29,6.99L17.29,6.99z M17.78,6.59L17.78,6.59z"/>
	</g>
	<g class="st1">
		<path class="st6" d="M17.45,30.52c-0.15,0-0.28-0.1-0.31-0.25c-0.03-0.17,0.08-0.33,0.25-0.36l1.86-0.35
			c0.17-0.03,0.33,0.08,0.36,0.25s-0.08,0.33-0.25,0.36l-1.86,0.35C17.49,30.52,17.47,30.52,17.45,30.52z"/>
	</g>
	<g class="st1">
		<path class="st6" d="M13.61,5.19c-0.17,0-0.31-0.14-0.31-0.31V2.34L8.28,1.49C8.11,1.46,8,1.3,8.03,1.13
			c0.03-0.17,0.19-0.29,0.36-0.25l5.53,0.94v3.06C13.92,5.05,13.78,5.19,13.61,5.19z"/>
	</g>
	<g class="st1">
		<path class="st42" d="M2.05,27.1V2.22l5.77-0.96L7.8,27.93C7.46,27.93,2.05,27.1,2.05,27.1z"/>
		<path class="st6" d="M8.11,28.24H7.8c-0.34,0-4.89-0.69-5.8-0.83l-0.26-0.04V1.96L8.13,0.9L8.11,28.24z M2.36,26.84
			c1.75,0.27,4.24,0.64,5.13,0.75L7.5,1.63L2.36,2.49V26.84z"/>
	</g>
	<g class="st1">
		<g>
			<path class="st2" d="M17.46,30.21l-6.83-1.42l0.21-22.51h6.71v23.85C17.55,30.18,17.51,30.22,17.46,30.21z"/>
		</g>
		<g>
			<path class="st26" d="M17.48,30.52c-0.03,0-0.05,0-0.08-0.01h0l-7.08-1.47l0.21-23.07h7.33v24.16c0,0.12-0.05,0.23-0.15,0.31
				C17.65,30.49,17.56,30.52,17.48,30.52z M10.94,28.54l6.3,1.31V6.59h-6.09L10.94,28.54z"/>
		</g>
	</g>
	<g class="st1">
		<path class="st15" d="M26.14,32.78l-5.25-2.29V16.7l5.3-0.46v16.47C26.19,32.76,26.17,32.79,26.14,32.78z"/>
		<path class="st6" d="M26.2,33.13l-0.18-0.06l-5.44-2.37V16.41l5.92-0.52v16.81c0,0.14-0.06,0.26-0.17,0.33L26.2,33.13z
			 M21.21,30.29l4.68,2.04V16.58l-4.68,0.41V30.29z"/>
	</g>
	<g class="st1">
		<line class="st42" x1="7.8" y1="27.93" x2="9.49" y2="27.93"/>
		<path class="st6" d="M9.49,28.24H7.8c-0.17,0-0.31-0.14-0.31-0.31c0-0.17,0.14-0.31,0.31-0.31h1.7c0.17,0,0.31,0.14,0.31,0.31
			C9.8,28.1,9.67,28.24,9.49,28.24z"/>
	</g>
	<g class="st1">
		<path class="st6" d="M23.97,15.37C23.97,15.37,23.97,15.37,23.97,15.37c-0.17,0-0.31-0.14-0.31-0.31l0.04-7.91l-5.99-0.55
			c-0.17-0.02-0.3-0.17-0.28-0.34c0.02-0.17,0.17-0.3,0.34-0.28l6.56,0.6l-0.04,8.48C24.28,15.23,24.14,15.37,23.97,15.37z"/>
	</g>
</g>
<g class="st0">
	<g class="st1">
		<path class="st43" d="M24.02,11.15V4.43c0-0.99-0.81-1.8-1.8-1.8h-2.9h-2.05h-7.5h-2H4.6c-0.99,0-1.8,0.81-1.8,1.8V29v1.51v0.56
			c0,0.99,0.81,1.8,1.8,1.8h13.17c0,0,5.63-5.57,6.25-7.14V11.15z"/>
	</g>
	<g class="st1">
		<polygon class="st44" points="19.26,18 17.27,19.97 19.67,22.39 28.86,13.07 26.53,10.77 20.17,17.09 		"/>
	</g>
	<g class="st1">
		<polygon class="st32" points="27.07,17.31 26.63,16.87 30.62,12.88 29.81,12.06 30.25,11.62 31.51,12.88 		"/>
	</g>
	<g class="st1">
		<path class="st6" d="M24.02,26.68c-0.17,0-0.31-0.14-0.31-0.31v-6.61c0-0.17,0.14-0.31,0.31-0.31c0.17,0,0.31,0.14,0.31,0.31v6.61
			C24.33,26.54,24.19,26.68,24.02,26.68z"/>
	</g>
	<g class="st1">
		<path class="st6" d="M17.77,33.18H4.6c-1.16,0-2.11-0.95-2.11-2.11V4.43c0-1.16,0.95-2.11,2.11-2.11h17.62
			c1.16,0,2.11,0.95,2.11,2.11v6.73c0,0.17-0.14,0.31-0.31,0.31c-0.17,0-0.31-0.14-0.31-0.31V4.43c0-0.82-0.67-1.48-1.48-1.48H4.6
			c-0.82,0-1.48,0.67-1.48,1.48v26.64c0,0.82,0.67,1.48,1.48,1.48h13.17c0.17,0,0.31,0.14,0.31,0.31
			C18.08,33.04,17.94,33.18,17.77,33.18z"/>
	</g>
	<g class="st1">
		<rect x="5.55" y="9.26" class="st45" width="15.72" height="0.42"/>
	</g>
	<g class="st1">
		<rect x="5.55" y="14.18" class="st45" width="14.52" height="0.42"/>
	</g>
	<g class="st1">
		<rect x="5.55" y="19.11" class="st45" width="9.85" height="0.42"/>
	</g>
	<g class="st1">
		<rect x="5.55" y="24.03" class="st45" width="7.67" height="0.42"/>
	</g>
	<g class="st1">
		<path class="st6" d="M19.67,22.83l-2.84-2.86l9.7-9.63l2.77,2.73L19.67,22.83z M17.71,19.97l1.96,1.97l8.75-8.87l-1.89-1.86
			L17.71,19.97z M19.26,18L19.26,18L19.26,18z"/>
	</g>
	<g class="st1">
		<path class="st6" d="M28.82,13.57l-2.72-2.8l0.22-0.22c0.11-0.12,1.13-1.13,1.37-1.33c0.36-0.29,0.88-0.41,1.39-0.32
			c0.59,0.1,1.11,0.47,1.45,1.03c0.2,0.33,0.29,0.71,0.24,1.06c-0.05,0.39-0.22,0.74-0.51,1.05L28.82,13.57z M26.97,10.78l1.84,1.89
			l0.99-1.04c0.2-0.21,0.31-0.45,0.35-0.7c0.03-0.21-0.03-0.45-0.16-0.66c-0.32-0.52-0.73-0.69-1.02-0.74
			c-0.34-0.06-0.68,0.01-0.89,0.19C27.93,9.82,27.4,10.35,26.97,10.78z"/>
	</g>
	<g class="st1">
		<path class="st6" d="M15.66,24.78l-0.19-0.14c-0.1-0.09-0.14-0.24-0.1-0.37l1.45-4.3l0.64,0.17l-1.28,3.69l3.25-1.6l0.28,0.56
			L15.66,24.78z"/>
	</g>
	<g class="st1">
		<g>
			<path class="st46" d="M23.93,26.44c0.01-0.01-0.25-0.01-0.26-0.01l-4.92-0.05c-0.98,0.1-0.98,1.03-0.98,1.03l0.11,5.11
				c0,0.01-0.06,0.28-0.03,0.25L23.93,26.44z"/>
		</g>
		<g>
			<path class="st6" d="M17.85,33.15l-0.18-0.12c-0.19-0.13-0.15-0.33-0.1-0.54l-0.11-5.07c0-0.42,0.26-1.24,1.26-1.35l4.96,0.05
				c0.3-0.01,0.46-0.01,0.54,0.19l0.08,0.19l-0.14,0.16l-6.13,6.38L17.85,33.15z M18.74,26.7c-0.62,0.07-0.66,0.61-0.66,0.72
				l0.1,4.56l5.03-5.24L18.74,26.7z"/>
		</g>
	</g>
	<g class="st1">
		<path class="st38" d="M8.9,5.1H8.61c-0.11,0-0.19-0.09-0.19-0.19V1.36c0-0.11,0.09-0.19,0.19-0.19H8.9c0.11,0,0.19,0.09,0.19,0.19
			v3.55C9.09,5.02,9.01,5.1,8.9,5.1z"/>
		<path class="st6" d="M8.78,5.31H8.73c-0.29,0-0.52-0.23-0.52-0.52V1.48c0-0.29,0.23-0.52,0.52-0.52h0.05
			c0.29,0,0.52,0.23,0.52,0.52v3.32C9.3,5.08,9.07,5.31,8.78,5.31z M8.73,1.37c-0.06,0-0.1,0.05-0.1,0.1v3.32
			c0,0.06,0.05,0.1,0.1,0.1h0.05c0.06,0,0.1-0.05,0.1-0.1V1.48c0-0.06-0.05-0.1-0.1-0.1H8.73z"/>
	</g>
	<g class="st1">
		<path class="st38" d="M18.4,5.01h-0.29c-0.11,0-0.19-0.09-0.19-0.19V1.27c0-0.11,0.09-0.19,0.19-0.19h0.29
			c0.11,0,0.19,0.09,0.19,0.19v3.55C18.59,4.93,18.5,5.01,18.4,5.01z"/>
		<path class="st6" d="M18.28,5.22h-0.05c-0.29,0-0.52-0.23-0.52-0.52V1.39c0-0.29,0.23-0.52,0.52-0.52h0.05
			c0.29,0,0.52,0.23,0.52,0.52V4.7C18.8,4.99,18.56,5.22,18.28,5.22z M18.23,1.28c-0.06,0-0.1,0.05-0.1,0.1V4.7
			c0,0.06,0.05,0.1,0.1,0.1h0.05c0.06,0,0.1-0.05,0.1-0.1V1.39c0-0.06-0.05-0.1-0.1-0.1H18.23z"/>
	</g>
</g>
<polygon class="st47" points="17.35,20.49 16.19,23.83 19.19,22.35 "/>
<g class="st0">
	<g class="st1">
		<path class="st48" d="M6.38,8.94c0,0-0.54-3.53,1.56-4.75c0,0,0.34-0.66,5.41-0.56l3.64,0.08c0,0,2.29,0.4,2.61,2.76l0.03,2.99
			l-2.35-0.15l0.01-1.64c0,0,0.46-1.73-1.93-1.73h-5.03c0,0-1.53-0.35-1.57,1.73l0,1.73L6.35,9.47L6.38,8.94z"/>
	</g>
	<g class="st1">
		<path class="st49" d="M4.7,9.47H22c1.66,0,3.02,1.22,3.02,2.71v15.5c0,1.49-1.36,2.71-3.02,2.71H5.53c0,0-1.65-0.03-2.06-0.24
			c-1.02-0.5-1.79-1.37-1.79-2.47v-15.5C1.68,10.68,3.04,9.47,4.7,9.47"/>
	</g>
	<g class="st1">
		<g>
			<path class="st48" d="M9.21,21.84H8.46c-0.29,0-0.52-0.23-0.52-0.52v-2.55c0-0.29,0.23-0.52,0.52-0.52h2.25
				c0.29,0,0.52-0.23,0.52-0.52v-1.98c0-0.29,0.23-0.52,0.52-0.52h2.93c0.29,0,0.52,0.23,0.52,0.52v1.94c0,0.29,0.23,0.52,0.52,0.52
				h2.33c0.29,0,0.52,0.23,0.52,0.52v2.58c0,0.29-0.24,0.52-0.53,0.52l-2.28-0.02c-0.29,0-0.53,0.23-0.53,0.52v1.97
				c0,0.29-0.23,0.52-0.52,0.52h-2.97c-0.29,0-0.52-0.23-0.52-0.52v-1.94c0-0.29-0.23-0.52-0.52-0.52h-0.48H9.21z"/>
		</g>
		<g>
			<path class="st6" d="M14.73,25.12h-2.97c-0.45,0-0.82-0.37-0.82-0.82v-1.94c0-0.12-0.1-0.22-0.22-0.22H8.46
				c-0.45,0-0.82-0.37-0.82-0.82v-2.55c0-0.45,0.37-0.82,0.82-0.82h2.25c0.12,0,0.22-0.1,0.22-0.22v-1.98
				c0-0.45,0.37-0.82,0.82-0.82h2.93c0.45,0,0.82,0.37,0.82,0.82v1.94c0,0.12,0.1,0.22,0.22,0.22h2.33c0.45,0,0.82,0.37,0.82,0.82
				v2.58c0,0.22-0.09,0.43-0.24,0.58c-0.16,0.16-0.36,0.25-0.58,0.24l-2.28-0.02c-0.06-0.01-0.12,0.02-0.16,0.06
				c-0.04,0.04-0.07,0.1-0.07,0.16v1.97C15.55,24.75,15.18,25.12,14.73,25.12z M8.46,18.54c-0.12,0-0.22,0.1-0.22,0.22v2.55
				c0,0.12,0.1,0.22,0.22,0.22h2.25c0.45,0,0.82,0.37,0.82,0.82v1.94c0,0.12,0.1,0.22,0.22,0.22h2.97c0.12,0,0.22-0.1,0.22-0.22
				v-1.97c0-0.22,0.09-0.43,0.24-0.58c0.16-0.16,0.36-0.23,0.58-0.24l2.28,0.02c0.05-0.01,0.12-0.02,0.16-0.06
				c0.04-0.04,0.07-0.1,0.07-0.16v-2.58c0-0.12-0.1-0.22-0.22-0.22h-2.33c-0.45,0-0.82-0.37-0.82-0.82v-1.94
				c0-0.12-0.1-0.22-0.22-0.22h-2.93c-0.12,0-0.22,0.1-0.22,0.22v1.98c0,0.45-0.37,0.82-0.82,0.82H8.46z"/>
		</g>
	</g>
	<g class="st1">
		<path class="st49" d="M10.24,21.84h0.48c0.29,0,0.52,0.23,0.52,0.52v1.94c0,0.29,0.23,0.52,0.52,0.52h2.97
			c0.29,0,0.52-0.23,0.52-0.52v-1.97c0-0.29,0.24-0.52,0.53-0.52l2.28,0.02c0.29,0,0.53-0.23,0.53-0.52v-2.58
			c0-0.29-0.23-0.52-0.52-0.52h-2.33c-0.29,0-0.52-0.23-0.52-0.52v-1.94c0-0.29-0.23-0.52-0.52-0.52h-2.93
			c-0.29,0-0.52,0.23-0.52,0.52v1.98c0,0.29-0.23,0.52-0.52,0.52H8.46c-0.29,0-0.52,0.23-0.52,0.52v2.55c0,0.29,0.23,0.52,0.52,0.52
			h0.74"/>
	</g>
	<g class="st1">
		<g>
			<path class="st50" d="M27.2,27.13l-1.67-2.54c-0.57-0.77-0.22-1.79,0.54-2.25l0,0c0.82-0.57,1.91-0.26,2.48,0.51l1.71,2.46"/>
		</g>
		<g>
			<path class="st6" d="M26.96,27.29l-1.67-2.54c-0.28-0.39-0.39-0.87-0.29-1.36c0.11-0.54,0.45-1.01,0.93-1.3
				c0.9-0.62,2.17-0.37,2.87,0.59l1.72,2.47l-0.49,0.34l-1.71-2.46c-0.43-0.59-1.35-0.93-2.07-0.44c-0.35,0.21-0.6,0.55-0.67,0.92
				c-0.05,0.23-0.05,0.57,0.2,0.91l1.68,2.55L26.96,27.29z"/>
		</g>
	</g>
	<g class="st1">
		<path class="st49" d="M30.34,25.24c0.54,0.77,3.42,3.5,1.11,4.71l0,0c-2.17,1.46-3.69-2.15-4.23-2.92L30.34,25.24z"/>
	</g>
	<g class="st1">
		<path class="st6" d="M30.47,30.67c-0.71,0-1.4-0.32-1.8-0.89l-1.68-2.41c-0.09-0.13-0.06-0.32,0.07-0.41
			c0.13-0.09,0.32-0.06,0.41,0.07l1.68,2.41c0.45,0.65,1.42,0.84,2.15,0.42c0.36-0.2,0.6-0.52,0.69-0.89
			C32.07,28.64,32,28.29,31.8,28l-1.7-2.42c-0.09-0.13-0.06-0.32,0.07-0.41c0.13-0.09,0.32-0.06,0.41,0.07l1.7,2.42
			c0.3,0.43,0.4,0.94,0.29,1.44c-0.12,0.53-0.47,0.99-0.97,1.28C31.25,30.58,30.86,30.67,30.47,30.67z"/>
	</g>
	<g class="st1">
		<path class="st6" d="M27.21,27.23c-0.07,0-0.14-0.04-0.17-0.1c-0.05-0.09-0.02-0.22,0.07-0.27l3.12-1.79
			c0.09-0.05,0.22-0.02,0.27,0.07c0.05,0.09,0.02,0.22-0.07,0.27l-3.12,1.79C27.28,27.22,27.25,27.23,27.21,27.23z"/>
	</g>
	<g class="st1">
		<path class="st6" d="M3.47,30.44c-0.04,0-0.07-0.01-0.11-0.02c-1.2-0.48-1.98-1.56-1.98-2.75v-15.5c0-1.66,1.49-3,3.32-3
			C4.86,9.17,5,9.3,5,9.47s-0.13,0.3-0.3,0.3c-1.5,0-2.72,1.08-2.72,2.41v15.5c0,0.94,0.63,1.8,1.61,2.19
			c0.15,0.06,0.23,0.23,0.16,0.39C3.7,30.37,3.59,30.44,3.47,30.44z"/>
	</g>
	<g class="st1">
		<path class="st6" d="M22,30.67H5.53c-0.16,0-0.3-0.13-0.3-0.3s0.13-0.3,0.3-0.3H22c1.5,0,2.72-1.08,2.72-2.41v-15.5
			c0-1.33-1.22-2.41-2.72-2.41H4.7c-0.16,0-0.3-0.13-0.3-0.3s0.13-0.3,0.3-0.3H22c1.83,0,3.32,1.35,3.32,3v15.5
			C25.32,29.33,23.83,30.67,22,30.67z"/>
	</g>
	<g class="st1">
		<path class="st22" d="M9.06,9.39H8.47V7.24c0-0.01-0.03-0.69,0.41-1.16c0.28-0.29,0.66-0.44,1.14-0.44h6.01
			c0.51,0,1.49,0.32,1.53,1.51c0.05,1.26,0,2.14,0,2.17l-0.59-0.03c0-0.01,0.05-0.88,0-2.12c-0.03-0.91-0.85-0.94-0.94-0.94h-6.01
			c-0.31,0-0.55,0.09-0.71,0.25C9.04,6.77,9.06,7.22,9.06,7.22L9.06,9.39z"/>
	</g>
	<g class="st1">
		<path class="st22" d="M6.38,9.6c-0.16,0-0.3-0.13-0.3-0.3V7.03c0-0.04,0.13-3.57,3.81-3.7l3.82,0c0.16,0,0.3,0.13,0.3,0.3
			s-0.13,0.3-0.3,0.3H9.91C6.8,4.04,6.69,6.92,6.68,7.04v2.27C6.68,9.47,6.55,9.6,6.38,9.6z"/>
	</g>
	<g class="st1">
		<path class="st22" d="M19.35,9.78l-0.03-0.29c0-0.03,0-0.06,0.01-0.09c0-0.12,0.01-0.6-0.01-2.49c-0.02-2.93-2.88-2.98-3-2.98
			h-0.96c-0.16,0-0.3-0.13-0.3-0.3s0.13-0.3,0.3-0.3h0.97c0.04,0,3.57,0.07,3.6,3.57c0.01,1.39,0.02,2.1-0.01,2.47
			c0.01,0.02,0.01,0.04,0.01,0.07l-0.02,0c-0.04,0.32-0.11,0.32-0.26,0.33L19.35,9.78z"/>
	</g>
</g>
<g class="st0">
	<g class="st1">
		<polygon class="st51" points="31.27,16.93 31.27,11.61 29.98,11.88 29.98,16.93 		"/>
		<path class="st52" d="M31.47,17.14h-1.69v-5.42l1.69-0.36V17.14z M30.18,16.73h0.88v-4.87l-0.88,0.19V16.73z"/>
	</g>
	<g class="st1">
		<path class="st53" d="M26.37,14.78l-9.11,3.68c-0.08,0.03-0.17,0.05-0.26,0.05c-0.09,0-0.18-0.02-0.26-0.05l-9.11-3.68v9.1h0.01
			L7.61,24c0,1.08,4.2,3.5,9.38,3.5c5.18,0,9.37-2.42,9.37-3.5l-0.02-0.13h0.03V14.78z"/>
		<path class="st52" d="M16.99,27.81c-4.95,0-9.32-2.18-9.66-3.63l0-0.01C7.32,24.12,7.31,24.06,7.31,24l0.01-9.68l9.53,3.85
			c0.09,0.04,0.2,0.04,0.29,0l9.53-3.85v9.86h-0.03C26.3,25.62,21.94,27.81,16.99,27.81z M7.92,24.02c0.07,0.77,3.91,3.18,9.08,3.18
			c5.16,0,9-2.4,9.06-3.18l-0.08-0.45h0.09v-8.35l-8.7,3.51c-0.24,0.1-0.51,0.1-0.75,0l-8.69-3.51v8.35h0.05L7.92,24.02z"/>
	</g>
	<g class="st1">
		<polygon class="st54" points="7.63,13.27 17,16.44 26.37,13.27 30.45,11.88 31.27,11.61 31.69,11.46 17,6.51 2.31,11.46 		"/>
		<path class="st52" d="M17,16.77L1.36,11.46L17,6.19l0.1,0.03l15.55,5.24L17,16.77z M7.72,12.98L17,16.12l13.75-4.66L17,6.83
			L3.25,11.46L7.72,12.98z"/>
	</g>
	<g class="st1">
		<path class="st51" d="M30.12,18.53v2.53c0,0.43,0.26,0.78,0.57,0.78c0.32,0,0.57-0.35,0.57-0.78v-2.53c0-0.21-0.06-0.41-0.17-0.55
			h-0.82C30.18,18.12,30.12,18.31,30.12,18.53"/>
		<path class="st52" d="M30.69,22.04c-0.44,0-0.78-0.43-0.78-0.98v-2.53c0-0.25,0.07-0.49,0.2-0.67l0.06-0.08h1.02l0.06,0.08
			c0.13,0.18,0.2,0.42,0.2,0.67v2.53C31.47,21.61,31.13,22.04,30.69,22.04z M30.4,18.18c-0.05,0.1-0.08,0.22-0.08,0.35v2.53
			c0,0.31,0.17,0.58,0.37,0.58s0.37-0.26,0.37-0.58v-2.53c0-0.12-0.03-0.25-0.08-0.35H30.4z"/>
	</g>
	<g class="st1">
		<polygon class="st51" points="29.03,16.93 29.03,18.1 29.26,18.1 31.86,18.1 32.09,18.1 32.09,16.93 31.33,16.93 29.79,16.93 		
			"/>
		<path class="st52" d="M32.29,18.3h-3.46v-1.57h3.46V18.3z M29.23,17.9h2.65v-0.76h-2.65V17.9z"/>
	</g>
</g>
<g class="st0">
	<g class="st1">
		<polyline class="st55" points="10.35,6.65 2.72,6.65 2.72,32.53 10.35,32.53 		"/>
	</g>
	<g class="st1">
		<polyline class="st20" points="19.58,4.34 10.24,4.34 10.24,32.53 19.58,32.53 		"/>
	</g>
	<g class="st1">
		<rect x="19.72" y="1.47" class="st56" width="11.56" height="31.07"/>
		<path class="st57" d="M31.59,32.84H19.41V1.16h12.18V32.84z M20.03,32.22h10.94V1.78H20.03V32.22z"/>
	</g>
	<g class="st1">
		<polygon class="st27" points="27.73,1.47 27.73,11.2 25.45,10.04 23.22,11.2 23.22,1.47 		"/>
	</g>
	<g class="st1">
		<polygon class="st22" points="22.91,11.71 22.91,1.47 23.53,1.47 23.53,10.69 25.45,9.7 27.42,10.69 27.42,1.47 28.04,1.47 
			28.04,11.7 25.45,10.39 		"/>
	</g>
	<g class="st1">
		<rect x="4.93" y="9.7" class="st22" width="3.3" height="0.62"/>
	</g>
	<g class="st1">
		<rect x="13.23" y="12.31" class="st22" width="3.3" height="0.62"/>
	</g>
	<g class="st1">
		<rect x="23.64" y="27.31" class="st22" width="3.3" height="0.62"/>
	</g>
	<g class="st1">
		<path class="st22" d="M25.5,25.59c-1.04,0-1.89-0.85-1.89-1.89s0.85-1.89,1.89-1.89s1.89,0.85,1.89,1.89S26.54,25.59,25.5,25.59z
			 M25.5,22.44c-0.7,0-1.27,0.57-1.27,1.27c0,0.7,0.57,1.27,1.27,1.27s1.27-0.57,1.27-1.27C26.76,23.01,26.19,22.44,25.5,22.44z"/>
	</g>
	<g class="st1">
		<path class="st22" d="M14.91,11.02c-1.04,0-1.89-0.85-1.89-1.89s0.85-1.89,1.89-1.89S16.8,8.1,16.8,9.14S15.95,11.02,14.91,11.02z
			 M14.91,7.87c-0.7,0-1.27,0.57-1.27,1.27c0,0.7,0.57,1.27,1.27,1.27s1.27-0.57,1.27-1.27C16.18,8.44,15.61,7.87,14.91,7.87z"/>
	</g>
	<g class="st1">
		<path class="st23" d="M17.97,32.84h-7.75V4.03h7.47c0.17,0,0.31,0.14,0.31,0.31s-0.14,0.31-0.31,0.31h-6.85v27.57h7.13
			c0.17,0,0.31,0.14,0.31,0.31C18.28,32.71,18.14,32.84,17.97,32.84z"/>
	</g>
	<g class="st1">
		<path class="st24" d="M8.87,32.84H2.41V6.34h6.46c0.17,0,0.31,0.14,0.31,0.31S9.05,6.96,8.87,6.96H3.03v25.27h5.84
			c0.17,0,0.31,0.14,0.31,0.31C9.18,32.71,9.05,32.84,8.87,32.84z"/>
	</g>
	<g class="st1">
		<path class="st23" d="M31.59,32.84H19.41V1.16h12.18V32.84z M20.03,32.22h10.94V1.78H20.03V32.22z"/>
	</g>
</g>
<g class="st0">
	<g class="st1">
		<g>
			<path class="st58" d="M20.64,4.79h5.18c0,0,2.45,0.11,2.45,2.16v22.78c0,0,0.62,3.07-2.93,3.02H8.62c0,0-2.79,0.39-2.93-2.32
				V7.12c0,0-0.19-2.19,2.26-2.32h5.35"/>
		</g>
		<g>
			<path class="st26" d="M8.26,33.1c-0.49,0-1.32-0.09-1.98-0.63c-0.56-0.46-0.87-1.14-0.91-2.02l0-23.33c0-0.01-0.08-1.02,0.59-1.8
				c0.45-0.52,1.11-0.8,1.97-0.85l5.36,0v0.65H7.95c-0.66,0.04-1.17,0.25-1.5,0.62C5.96,6.3,6.01,7.08,6.01,7.09l0,23.34
				c0.04,0.67,0.26,1.2,0.68,1.54c0.75,0.62,1.87,0.47,1.88,0.47l0.05,0h16.72c1.03,0.01,1.77-0.25,2.2-0.77
				c0.63-0.76,0.42-1.86,0.42-1.87l-0.01-0.06V6.95c0-1.71-2.05-1.83-2.14-1.83l-5.16,0V4.47h5.18c0.97,0.04,2.77,0.61,2.77,2.48
				V29.7c0.04,0.23,0.21,1.45-0.56,2.38c-0.56,0.68-1.48,1-2.7,1H8.64C8.59,33.08,8.45,33.1,8.26,33.1z"/>
		</g>
	</g>
	<g class="st1">
		<circle class="st59" cx="17.04" cy="17.44" r="7.65"/>
		<path class="st23" d="M17.04,25.39c-4.39,0-7.96-3.57-7.96-7.96s3.57-7.96,7.96-7.96S25,13.05,25,17.44S21.43,25.39,17.04,25.39z
			 M17.04,10.1c-4.05,0-7.34,3.29-7.34,7.34s3.29,7.34,7.34,7.34s7.34-3.29,7.34-7.34S21.08,10.1,17.04,10.1z"/>
	</g>
	<g class="st1">
		<g>
			<path class="st31" d="M14.59,1.23h4.91v4.76c0,0-0.09,2.55-2.44,2.68c0,0-2.32-0.15-2.47-2.55V1.23z"/>
		</g>
		<g>
			<path class="st26" d="M17.08,8.99c-0.94-0.06-2.68-0.73-2.81-2.85l0-5.23h5.55v5.08C19.79,6.98,19.17,8.87,17.08,8.99z
				 M14.92,1.55v4.57c0.13,2.07,2.08,2.22,2.17,2.23c1.99-0.12,2.09-2.28,2.1-2.37l0-4.42H14.92z"/>
		</g>
	</g>
	<g class="st1">
		<path class="st23" d="M17.07,7.12c-0.73,0-1.32-0.59-1.32-1.32s0.59-1.32,1.32-1.32s1.32,0.59,1.32,1.32S17.79,7.12,17.07,7.12z
			 M17.07,5.1c-0.39,0-0.7,0.31-0.7,0.7s0.31,0.7,0.7,0.7s0.7-0.31,0.7-0.7S17.45,5.1,17.07,5.1z"/>
	</g>
	<g class="st1">
		<path class="st30" d="M11.05,21.98c0,0,3.95-5.27,9.69-2.33c0,0,2.3,1.39,2.17,2.76C22.91,22.41,17.31,28.05,11.05,21.98z"/>
	</g>
	<g class="st1">
		<path class="st23" d="M17.04,25.39c-4.39,0-7.96-3.57-7.96-7.96s3.57-7.96,7.96-7.96S25,13.05,25,17.44S21.43,25.39,17.04,25.39z
			 M17.04,10.1c-4.05,0-7.34,3.29-7.34,7.34s3.29,7.34,7.34,7.34s7.34-3.29,7.34-7.34S21.08,10.1,17.04,10.1z"/>
	</g>
	<g class="st1">
		<circle class="st25" cx="17.04" cy="16.38" r="2.81"/>
		<path class="st23" d="M17.04,19.5c-1.72,0-3.12-1.4-3.12-3.12s1.4-3.12,3.12-3.12s3.12,1.4,3.12,3.12S18.76,19.5,17.04,19.5z
			 M17.04,13.87c-1.38,0-2.5,1.12-2.5,2.5s1.12,2.5,2.5,2.5s2.5-1.12,2.5-2.5S18.42,13.87,17.04,13.87z"/>
	</g>
	<g class="st1">
		<path class="st23" d="M22.91,22.65c-0.11,0-0.22-0.06-0.27-0.16c-0.01-0.03-1.57-2.81-4.62-3.13c-0.17-0.02-0.29-0.17-0.28-0.34
			c0.02-0.17,0.18-0.3,0.34-0.28c3.39,0.36,5.03,3.32,5.1,3.45c0.08,0.15,0.03,0.34-0.12,0.42C23.01,22.64,22.96,22.65,22.91,22.65z
			"/>
	</g>
	<g class="st1">
		<path class="st23" d="M11.06,22.52c-0.06,0-0.11-0.02-0.16-0.05c-0.15-0.09-0.19-0.28-0.1-0.43c0.07-0.11,1.75-2.73,5.28-3.29
			c0.17-0.03,0.33,0.09,0.36,0.26c0.03,0.17-0.09,0.33-0.26,0.36c-3.26,0.52-4.84,2.98-4.86,3.01
			C11.27,22.47,11.17,22.52,11.06,22.52z"/>
	</g>
	<g class="st1">
		<path class="st23" d="M25.05,29.38H9.08c-0.17,0-0.31-0.14-0.31-0.31c0-0.17,0.14-0.31,0.31-0.31h15.96
			c0.17,0,0.31,0.14,0.31,0.31C25.36,29.24,25.22,29.38,25.05,29.38z"/>
	</g>
</g>
<g class="st0">
	<g class="st1">
		<path class="st4" d="M12.45,15.5c-0.06,0-0.12,0-0.19,0c-2.66,0-4.84-2.19-4.84-4.84s2.19-4.84,4.84-4.84
			c1.1,0,2.16,0.38,3.01,1.05"/>
	</g>
	<g class="st1">
		<path class="st4" d="M15.27,6.87c0.28,0.22,0.54,0.48,0.77,0.77c0,0,1.26,5.78-2.69,7.73c-0.3,0.07-0.6,0.11-0.91,0.12"/>
	</g>
	<g class="st1">
		<path class="st4" d="M20.48,15.33c0.36,0.09,0.72,0.15,1.09,0.16c2.65,0.07,4.9-2.05,4.97-4.71s-2.05-4.9-4.71-4.97
			c-1.47-0.04-2.88,0.59-3.83,1.72C18.01,7.53,16.84,13.11,20.48,15.33z"/>
	</g>
	<g class="st1">
		<path class="st11" d="M24.18,19.03c0,0,1.18-2.79,2.55-2.33c0,0,4.54,0.57,5.23,4.32l0.35,5.77l-5.22,0.35
			C27.09,27.13,25.79,19.68,24.18,19.03z"/>
	</g>
	<g class="st1">
		<path class="st11" d="M9.82,18.76c0,0-1.18-2.79-2.55-2.33c0,0-4.54,0.57-5.23,4.32l-0.35,5.77l5.22,0.35
			C6.91,26.86,8.21,19.41,9.82,18.76z"/>
	</g>
	<g class="st1">
		<g>
			<circle class="st4" cx="16.93" cy="12.11" r="4.59"/>
		</g>
		<g>
			<path class="st32" d="M16.93,17.01c-2.7,0-4.9-2.2-4.9-4.9s2.2-4.9,4.9-4.9s4.9,2.2,4.9,4.9S19.64,17.01,16.93,17.01z
				 M16.93,7.84c-2.36,0-4.27,1.92-4.27,4.27s1.92,4.27,4.27,4.27s4.27-1.92,4.27-4.27S19.29,7.84,16.93,7.84z"/>
		</g>
	</g>
	<g class="st1">
		<path d="M12.26,15.82c-2.84,0-5.16-2.31-5.16-5.16c0-2.84,2.31-5.16,5.16-5.16c1.16,0,2.3,0.4,3.21,1.12
			c0.14,0.11,0.16,0.31,0.05,0.45c-0.11,0.14-0.31,0.16-0.45,0.05c-0.8-0.63-1.8-0.98-2.82-0.98c-2.49,0-4.52,2.03-4.52,4.52
			c0,2.49,2.03,4.52,4.52,4.52c0.04,0,0.18-0.01,0.27-0.01l0.08,0c0,0,0.01,0,0.01,0c0.17,0,0.31,0.13,0.32,0.3
			c0.01,0.17-0.13,0.32-0.3,0.33l-0.08,0C12.46,15.81,12.31,15.82,12.26,15.82z"/>
	</g>
	<g class="st1">
		<path d="M21.71,15.81c-0.05,0-0.09,0-0.14,0c-0.17,0-0.31-0.15-0.31-0.33c0-0.17,0.15-0.31,0.33-0.31
			c2.49,0.06,4.58-1.91,4.64-4.4c0.03-1.2-0.41-2.35-1.24-3.23c-0.84-0.88-1.96-1.39-3.16-1.42c-0.99-0.03-1.98,0.28-2.79,0.87
			C18.9,7.1,18.7,7.07,18.6,6.93c-0.1-0.14-0.07-0.34,0.07-0.44c0.92-0.67,2.05-1.02,3.18-0.99c1.37,0.04,2.65,0.61,3.6,1.62
			c0.95,1,1.46,2.31,1.42,3.68s-0.61,2.65-1.62,3.6C24.28,15.31,23.03,15.81,21.71,15.81z"/>
	</g>
	<g class="st1">
		<path class="st60" d="M12.61,17.76l3.35,6.13c0,0,1.75,0.09,1.75,0S21,18.02,21,18.02s5.79,0.65,6.05,5.08l0.18,5.09H6.4v-3.68
			c0,0-0.26-4.17,3.25-5.53L12.61,17.76z"/>
		<path class="st57" d="M27.56,28.51H6.08v-4c0-0.02-0.23-4.39,3.45-5.82l3.23-1.33l3.4,6.23c0.53,0.02,1.11,0.04,1.35,0.03
			c0.23-0.46,0.96-1.76,3.22-5.75l0.1-0.18l0.21,0.02c0.06,0.01,6.06,0.74,6.33,5.38L27.56,28.51z M6.71,27.88H26.9l-0.16-4.76
			c-0.22-3.65-4.57-4.58-5.57-4.75c-1.2,2.12-2.91,5.14-3.14,5.59v0.07l-0.1,0.1c-0.1,0.1-0.18,0.17-1.99,0.08l-0.18-0.01
			l-3.29-6.04l-2.71,1.11c-3.25,1.26-3.06,5.05-3.05,5.21L6.71,27.88z M17.46,23.71c-0.03,0.04-0.06,0.1-0.06,0.17
			C17.4,23.85,17.41,23.81,17.46,23.71z"/>
	</g>
	<g class="st1">
		<path d="M32.64,27.1h-5.06v-0.63h4.4l-0.23-4.44c-0.07-2.77-1.76-3.63-2.67-4.1l-0.15-0.08c-0.67-0.35-2.26-0.85-2.86-1.03
			l-0.66,1.1l-0.54-0.33l0.91-1.52l0.23,0.07c0.09,0.03,2.32,0.68,3.21,1.14l0.14,0.07c0.95,0.49,2.93,1.5,3.01,4.64L32.64,27.1z"/>
	</g>
	<g class="st1">
		<path d="M6.39,27.1H1.36l0.01-0.33c0-0.03,0.13-3.23,0.33-5.58c0.21-2.34,1.9-3.31,2.91-3.89l0.23-0.13
			c0.95-0.56,2.99-1.01,3.08-1.03l0.21-0.05l0.97,1.49l-0.53,0.35l-0.73-1.12c-0.54,0.13-1.99,0.5-2.68,0.91l-0.24,0.14
			c-0.96,0.55-2.42,1.38-2.59,3.39c-0.17,1.89-0.28,4.34-0.32,5.22h4.38V27.1z"/>
	</g>
</g>
<g class="st0">
	<g class="st1">
		<polygon class="st51" points="31.27,16.93 31.27,11.61 29.98,11.88 29.98,16.93 		"/>
		<path class="st52" d="M31.47,17.14h-1.69v-5.42l1.69-0.36V17.14z M30.18,16.73h0.88v-4.87l-0.88,0.19V16.73z"/>
	</g>
	<path class="st61" d="M26.37,14.78l-9.11,3.68c-0.08,0.03-0.17,0.05-0.26,0.05c-0.09,0-0.18-0.02-0.26-0.05l-9.11-3.68v9.1h0.01
		L7.61,24c0,1.08,4.2,3.5,9.38,3.5c5.18,0,9.37-2.42,9.37-3.5l-0.02-0.13h0.03V14.78z"/>
	<path class="st62" d="M16.99,27.81c-4.95,0-9.32-2.18-9.66-3.63l0-0.01C7.32,24.12,7.31,24.06,7.31,24l0.01-9.68l9.53,3.85
		c0.09,0.04,0.2,0.04,0.29,0l9.53-3.85l-0.03,9.81l-0.01,0.05C26.3,25.62,21.94,27.81,16.99,27.81z M7.92,24.02
		c0.07,0.77,3.91,3.18,9.08,3.18c5.16,0,9-2.4,9.06-3.18l0.01-0.46v-8.33l-8.7,3.51c-0.24,0.1-0.51,0.1-0.75,0l-8.69-3.51v8.35h0.05
		L7.92,24.02z"/>
	<polygon class="st61" points="7.63,13.27 17,16.44 26.37,13.27 30.45,11.88 31.27,11.61 31.69,11.46 17,6.51 2.31,11.46 	"/>
	<path class="st62" d="M17,16.77L1.36,11.46L17,6.19l0.1,0.03l15.55,5.24L17,16.77z M7.72,12.98L17,16.12l13.75-4.66L17,6.83
		L3.25,11.46L7.72,12.98z"/>
	<g class="st1">
		<path class="st51" d="M30.12,18.53v2.53c0,0.43,0.26,0.78,0.57,0.78c0.32,0,0.57-0.35,0.57-0.78v-2.53c0-0.21-0.06-0.41-0.17-0.55
			h-0.82C30.18,18.12,30.12,18.31,30.12,18.53"/>
		<path class="st52" d="M30.69,22.04c-0.44,0-0.78-0.43-0.78-0.98v-2.53c0-0.25,0.07-0.49,0.2-0.67l0.06-0.08h1.02l0.06,0.08
			c0.13,0.18,0.2,0.42,0.2,0.67v2.53C31.47,21.61,31.13,22.04,30.69,22.04z M30.4,18.18c-0.05,0.1-0.08,0.22-0.08,0.35v2.53
			c0,0.31,0.17,0.58,0.37,0.58s0.37-0.26,0.37-0.58v-2.53c0-0.12-0.03-0.25-0.08-0.35H30.4z"/>
	</g>
	<g class="st1">
		<polygon class="st51" points="29.03,16.93 29.03,18.1 29.26,18.1 31.86,18.1 32.09,18.1 32.09,16.93 31.33,16.93 29.79,16.93 		
			"/>
		<path class="st52" d="M32.29,18.3h-3.46v-1.57h3.46V18.3z M29.23,17.9h2.65v-0.76h-2.65V17.9z"/>
	</g>
</g>
<g>
	<g>
		<path class="st4" d="M12.45,15.5c-0.06,0-0.12,0-0.19,0c-2.66,0-4.84-2.19-4.84-4.84s2.19-4.84,4.84-4.84
			c1.1,0,2.16,0.38,3.01,1.05"/>
	</g>
	<g>
		<path class="st4" d="M15.27,6.87c0.28,0.22,0.54,0.48,0.77,0.77c0,0,1.26,5.78-2.69,7.73c-0.3,0.07-0.6,0.11-0.91,0.12"/>
	</g>
	<g>
		<path class="st4" d="M20.48,15.33c0.36,0.09,0.72,0.15,1.09,0.16c2.65,0.07,4.9-2.05,4.97-4.71s-2.05-4.9-4.71-4.97
			c-1.47-0.04-2.88,0.59-3.83,1.72C18.01,7.53,16.84,13.11,20.48,15.33z"/>
	</g>
	<g>
		<path class="st2" d="M24.18,19.03c0,0,1.18-2.79,2.55-2.33c0,0,4.54,0.57,5.23,4.32l0.35,5.77l-5.22,0.35
			C27.09,27.13,25.79,19.68,24.18,19.03z"/>
	</g>
	<g>
		<path class="st63" d="M9.82,18.76c0,0-1.18-2.79-2.55-2.33c0,0-4.54,0.57-5.23,4.32l-0.35,5.77l5.22,0.35
			C6.91,26.86,8.21,19.41,9.82,18.76z"/>
	</g>
	<g>
		<g>
			<circle class="st4" cx="16.93" cy="12.11" r="4.59"/>
		</g>
		<g>
			<path class="st32" d="M16.93,17.01c-2.7,0-4.9-2.2-4.9-4.9s2.2-4.9,4.9-4.9s4.9,2.2,4.9,4.9S19.64,17.01,16.93,17.01z
				 M16.93,7.84c-2.36,0-4.27,1.92-4.27,4.27s1.92,4.27,4.27,4.27s4.27-1.92,4.27-4.27S19.29,7.84,16.93,7.84z"/>
		</g>
	</g>
	<g>
		<path d="M12.26,15.82c-2.84,0-5.16-2.31-5.16-5.16c0-2.84,2.31-5.16,5.16-5.16c1.16,0,2.3,0.4,3.21,1.12
			c0.14,0.11,0.16,0.31,0.05,0.45c-0.11,0.14-0.31,0.16-0.45,0.05c-0.8-0.63-1.8-0.98-2.82-0.98c-2.49,0-4.52,2.03-4.52,4.52
			c0,2.49,2.03,4.52,4.52,4.52c0.04,0,0.18-0.01,0.27-0.01l0.08,0c0,0,0.01,0,0.01,0c0.17,0,0.31,0.13,0.32,0.3
			c0.01,0.17-0.13,0.32-0.3,0.33l-0.08,0C12.46,15.81,12.31,15.82,12.26,15.82z"/>
	</g>
	<g>
		<path d="M21.71,15.81c-0.05,0-0.09,0-0.14,0c-0.17,0-0.31-0.15-0.31-0.33c0-0.17,0.15-0.31,0.33-0.31
			c2.49,0.06,4.58-1.91,4.64-4.4c0.03-1.2-0.41-2.35-1.24-3.23c-0.84-0.88-1.96-1.39-3.16-1.42c-0.99-0.03-1.98,0.28-2.79,0.87
			C18.9,7.1,18.7,7.07,18.6,6.93c-0.1-0.14-0.07-0.34,0.07-0.44c0.92-0.67,2.05-1.02,3.18-0.99c1.37,0.04,2.65,0.61,3.6,1.62
			c0.95,1,1.46,2.31,1.42,3.68s-0.61,2.65-1.62,3.6C24.28,15.31,23.03,15.81,21.71,15.81z"/>
	</g>
	<path class="st64" d="M12.61,17.76l3.35,6.13c0,0,1.75,0.09,1.75,0S21,18.02,21,18.02s5.79,0.65,6.05,5.08l0.18,5.09H6.4v-3.68
		c0,0-0.26-4.17,3.25-5.53L12.61,17.76z"/>
	<path class="st57" d="M27.56,28.51H6.08v-4c0-0.02-0.23-4.39,3.45-5.82l3.23-1.33l3.4,6.23c0.53,0.02,1.11,0.04,1.35,0.03
		c0.23-0.46,0.96-1.76,3.22-5.75l0.1-0.18l0.21,0.02c0.06,0.01,6.06,0.74,6.33,5.38L27.56,28.51z M6.71,27.88H26.9l-0.16-4.76
		c-0.22-3.65-4.57-4.58-5.57-4.75c-1.2,2.12-2.91,5.14-3.14,5.59v0.07l-0.1,0.1c-0.1,0.1-0.18,0.17-1.99,0.08l-0.18-0.01l-3.29-6.04
		l-2.71,1.11c-3.25,1.26-3.06,5.05-3.05,5.21L6.71,27.88z M17.46,23.71c-0.03,0.04-0.06,0.1-0.06,0.17
		C17.4,23.85,17.41,23.81,17.46,23.71z"/>
	<g>
		<path d="M32.64,27.1h-5.06v-0.63h4.4l-0.23-4.44c-0.07-2.77-1.76-3.63-2.67-4.1l-0.15-0.08c-0.67-0.35-2.26-0.85-2.86-1.03
			l-0.66,1.1l-0.54-0.33l0.91-1.52l0.23,0.07c0.09,0.03,2.32,0.68,3.21,1.14l0.14,0.07c0.95,0.49,2.93,1.5,3.01,4.64L32.64,27.1z"/>
	</g>
	<g>
		<path d="M6.39,27.1H1.36l0.01-0.33c0-0.03,0.13-3.23,0.33-5.58c0.21-2.34,1.9-3.31,2.91-3.89l0.23-0.13
			c0.95-0.56,2.99-1.01,3.08-1.03l0.21-0.05l0.97,1.49l-0.53,0.35l-0.73-1.12c-0.54,0.13-1.99,0.5-2.68,0.91l-0.24,0.14
			c-0.96,0.55-2.42,1.38-2.59,3.39c-0.17,1.89-0.28,4.34-0.32,5.22h4.38V27.1z"/>
	</g>
</g>
</svg>
