<?xml version="1.0" encoding="utf-8"?>
<!-- Generator: Adobe Illustrator 23.0.5, SVG Export Plug-In . SVG Version: 6.00 Build 0)  -->
<svg version="1.1" id="Layer_1" xmlns="http://www.w3.org/2000/svg" xmlns:xlink="http://www.w3.org/1999/xlink" x="0px" y="0px"
	 viewBox="0 0 34 34" style="enable-background:new 0 0 34 34;" xml:space="preserve">
<style type="text/css">
	.st0{fill:#E53525;}
	.st1{fill:none;}
	.st2{fill:#E15750;}
	.st3{fill:#070808;}
</style>
<g>
	<g>
		<path class="st0" d="M6.08,8.7c0,0-0.56-3.64,1.6-4.89c0,0,0.35-0.68,5.56-0.58l3.74,0.09c0,0,2.36,0.41,2.68,2.84l0.03,3.08
			l-2.42-0.16l0.01-1.69c0,0,0.47-1.78-1.98-1.78h-5.17c0,0-1.57-0.36-1.61,1.78l0,1.78L6.04,9.25L6.08,8.7z"/>
	</g>
	<g>
		<path class="st1" d="M4.34,9.25h17.81c1.71,0,3.11,1.25,3.11,2.79v15.95c0,1.53-1.4,2.79-3.11,2.79H5.2c0,0-1.69-0.03-2.12-0.24
			c-1.05-0.51-1.84-1.41-1.84-2.54V12.03C1.23,10.5,2.63,9.25,4.34,9.25"/>
	</g>
	<g>
		<path class="st0" d="M8.99,21.98H8.22c-0.3,0-0.54-0.24-0.54-0.54v-2.63c0-0.3,0.24-0.54,0.54-0.54h2.32
			c0.3,0,0.54-0.24,0.54-0.54V15.7c0-0.3,0.24-0.54,0.54-0.54h3.02c0.3,0,0.54,0.24,0.54,0.54v2c0,0.3,0.24,0.54,0.54,0.54h2.4
			c0.3,0,0.54,0.24,0.54,0.54v2.66c0,0.3-0.24,0.54-0.54,0.54l-2.35-0.03c-0.3,0-0.54,0.24-0.54,0.54v2.03
			c0,0.3-0.24,0.54-0.54,0.54h-3.06c-0.3,0-0.54-0.24-0.54-0.54v-2c0-0.3-0.24-0.54-0.54-0.54h-0.49H8.99z"/>
	</g>
	<g>
		<path class="st1" d="M10.05,21.98h0.49c0.3,0,0.54,0.24,0.54,0.54v2c0,0.3,0.24,0.54,0.54,0.54h3.06c0.3,0,0.54-0.24,0.54-0.54
			v-2.03c0-0.3,0.24-0.54,0.54-0.54l2.35,0.03c0.3,0,0.54-0.24,0.54-0.54v-2.66c0-0.3-0.24-0.54-0.54-0.54h-2.4
			c-0.3,0-0.54-0.24-0.54-0.54v-2c0-0.3-0.24-0.54-0.54-0.54h-3.02c-0.3,0-0.54,0.24-0.54,0.54v2.04c0,0.3-0.24,0.54-0.54,0.54H8.22
			c-0.3,0-0.54,0.24-0.54,0.54v2.63c0,0.3,0.24,0.54,0.54,0.54h0.77"/>
	</g>
	<g>
		<path class="st2" d="M27.36,27.42l-1.68-2.56c-0.58-0.77-0.13-1.87,0.74-2.4l0,0c0.94-0.65,2.13-0.39,2.7,0.38l1.74,2.49"/>
	</g>
	<g>
		<path class="st1" d="M30.73,25.48c0.55,0.79,3.52,3.6,1.14,4.84l0,0c-2.23,1.51-3.8-2.21-4.35-3L30.73,25.48z"/>
	</g>
	<g>
		<path d="M30.86,30.79c-0.69,0-1.37-0.31-1.77-0.87l-1.73-2.48c-0.06-0.09-0.04-0.22,0.05-0.28c0.09-0.06,0.22-0.04,0.28,0.05
			l1.73,2.48c0.5,0.71,1.55,0.92,2.35,0.46c0.39-0.22,0.66-0.57,0.76-0.98c0.08-0.37,0.01-0.76-0.22-1.08l-1.75-2.49
			c-0.06-0.09-0.04-0.22,0.05-0.28c0.09-0.06,0.22-0.04,0.28,0.05l1.75,2.49c0.29,0.42,0.39,0.91,0.28,1.4
			c-0.12,0.51-0.46,0.97-0.95,1.25C31.63,30.7,31.24,30.79,30.86,30.79z"/>
	</g>
	<g>
		<path d="M27.52,27.53c-0.07,0-0.14-0.04-0.18-0.1c-0.06-0.1-0.02-0.22,0.08-0.28l3.21-1.84c0.1-0.06,0.22-0.02,0.28,0.08
			c0.06,0.1,0.02,0.22-0.08,0.28l-3.21,1.84C27.59,27.52,27.55,27.53,27.52,27.53z"/>
	</g>
	<g>
		<path d="M27.77,20.31c-0.06,0-0.12-0.03-0.16-0.08c-0.07-0.09-0.05-0.22,0.04-0.29l1.33-1.04c0.09-0.07,0.22-0.05,0.29,0.04
			c0.07,0.09,0.05,0.22-0.04,0.29l-1.33,1.04C27.86,20.3,27.81,20.31,27.77,20.31z"/>
	</g>
	<g>
		<path d="M3.08,30.73c-0.03,0-0.05,0-0.08-0.01c-1.2-0.48-1.97-1.55-1.97-2.73V12.03c0-1.65,1.49-2.99,3.31-2.99
			c0.11,0,0.2,0.09,0.2,0.2c0,0.11-0.09,0.2-0.2,0.2c-1.6,0-2.91,1.16-2.91,2.58v15.95c0,1.01,0.67,1.93,1.72,2.35
			c0.1,0.04,0.16,0.16,0.11,0.27C3.24,30.68,3.16,30.73,3.08,30.73z"/>
	</g>
	<g>
		<path d="M22.15,30.97H5.2c-0.11,0-0.2-0.09-0.2-0.2c0-0.11,0.09-0.2,0.2-0.2h16.95c1.6,0,2.91-1.16,2.91-2.58V12.03
			c0-1.42-1.3-2.58-2.91-2.58H4.34c-0.11,0-0.2-0.09-0.2-0.2c0-0.11,0.09-0.2,0.2-0.2h17.81c1.83,0,3.31,1.34,3.31,2.99v15.95
			C25.47,29.63,23.98,30.97,22.15,30.97z"/>
	</g>
	<g>
		<path d="M27.77,20.31c-0.06,0-0.12-0.03-0.16-0.08c-0.07-0.09-0.05-0.22,0.04-0.29l1.33-1.04c0.09-0.07,0.22-0.05,0.29,0.04
			c0.07,0.09,0.05,0.22-0.04,0.29l-1.33,1.04C27.86,20.3,27.81,20.31,27.77,20.31z"/>
	</g>
	<g>
		<path class="st3" d="M8.73,9.17H8.32V6.95c0-0.02-0.03-0.67,0.4-1.12c0.26-0.28,0.63-0.42,1.1-0.42h6.19
			c0.49,0,1.43,0.3,1.48,1.46c0.05,1.3,0,2.22,0,2.23l-0.41-0.02c0-0.01,0.05-0.91,0-2.19c-0.04-1.05-1.03-1.06-1.07-1.06H9.82
			c-0.35,0-0.62,0.1-0.8,0.29C8.71,6.43,8.73,6.94,8.73,6.94L8.73,9.17z"/>
	</g>
	<g>
		<path class="st3" d="M6.08,9.28c-0.11,0-0.2-0.09-0.2-0.2V6.74C5.88,6.7,6,3.17,9.7,3.03l3.93,0c0.11,0,0.2,0.09,0.2,0.2
			c0,0.11-0.09,0.2-0.2,0.2H9.71C6.41,3.56,6.29,6.62,6.28,6.75v2.34C6.28,9.19,6.19,9.28,6.08,9.28z"/>
	</g>
	<g>
		<path class="st3" d="M19.52,9.46l-0.02-0.2c0-0.02,0-0.05,0.01-0.07c0-0.12,0.01-0.6-0.01-2.58c-0.03-3.11-3.06-3.17-3.19-3.17
			h-0.99c-0.11,0-0.2-0.09-0.2-0.2c0-0.11,0.09-0.2,0.2-0.2h0.99c0.04,0,3.57,0.07,3.6,3.58c0.01,1.53,0.02,2.24-0.01,2.56
			c0.01,0.02,0.01,0.03,0.01,0.05l-0.02,0c-0.03,0.22-0.08,0.22-0.17,0.23L19.52,9.46z"/>
	</g>
</g>
</svg>
