<?xml version="1.0" encoding="utf-8"?>
<!-- Generator: Adobe Illustrator 23.0.5, SVG Export Plug-In . SVG Version: 6.00 Build 0)  -->
<svg version="1.1" id="Layer_1" xmlns="http://www.w3.org/2000/svg" xmlns:xlink="http://www.w3.org/1999/xlink" x="0px" y="0px"
	 viewBox="0 0 34 34" style="enable-background:new 0 0 34 34;" xml:space="preserve">
<style type="text/css">
	.st0{display:none;}
	.st1{display:inline;}
	.st2{fill:#E53525;}
	.st3{fill:none;}
	.st4{fill:#E15750;}
	.st5{fill:#070808;}
	.st6{fill:#FFFFFF;}
	.st7{fill:#4E4EA1;}
	.st8{fill:#60A2C6;}
	.st9{fill:#2A58A0;}
	.st10{fill:#EDEDED;}
	.st11{fill:#EF9F5E;}
	.st12{fill:#4EAFAB;}
	.st13{fill:#087D7C;}
	.st14{fill:#2D2D2D;}
</style>
<g class="st0">
	<g class="st1">
		<path class="st2" d="M6.08,8.7c0,0-0.56-3.64,1.6-4.89c0,0,0.35-0.68,5.56-0.58l3.74,0.09c0,0,2.36,0.41,2.68,2.84l0.03,3.08
			l-2.42-0.16l0.01-1.69c0,0,0.47-1.78-1.98-1.78h-5.17c0,0-1.57-0.36-1.61,1.78l0,1.78L6.04,9.25L6.08,8.7z"/>
	</g>
	<g class="st1">
		<path class="st3" d="M4.34,9.25h17.81c1.71,0,3.11,1.25,3.11,2.79v15.95c0,1.53-1.4,2.79-3.11,2.79H5.2c0,0-1.69-0.03-2.12-0.24
			c-1.05-0.51-1.84-1.41-1.84-2.54V12.03C1.23,10.5,2.63,9.25,4.34,9.25"/>
	</g>
	<g class="st1">
		<path class="st2" d="M8.99,21.98H8.22c-0.3,0-0.54-0.24-0.54-0.54v-2.63c0-0.3,0.24-0.54,0.54-0.54h2.32
			c0.3,0,0.54-0.24,0.54-0.54V15.7c0-0.3,0.24-0.54,0.54-0.54h3.02c0.3,0,0.54,0.24,0.54,0.54v2c0,0.3,0.24,0.54,0.54,0.54h2.4
			c0.3,0,0.54,0.24,0.54,0.54v2.66c0,0.3-0.24,0.54-0.54,0.54l-2.35-0.03c-0.3,0-0.54,0.24-0.54,0.54v2.03
			c0,0.3-0.24,0.54-0.54,0.54h-3.06c-0.3,0-0.54-0.24-0.54-0.54v-2c0-0.3-0.24-0.54-0.54-0.54h-0.49H8.99z"/>
	</g>
	<g class="st1">
		<path class="st3" d="M10.05,21.98h0.49c0.3,0,0.54,0.24,0.54,0.54v2c0,0.3,0.24,0.54,0.54,0.54h3.06c0.3,0,0.54-0.24,0.54-0.54
			v-2.03c0-0.3,0.24-0.54,0.54-0.54l2.35,0.03c0.3,0,0.54-0.24,0.54-0.54v-2.66c0-0.3-0.24-0.54-0.54-0.54h-2.4
			c-0.3,0-0.54-0.24-0.54-0.54v-2c0-0.3-0.24-0.54-0.54-0.54h-3.02c-0.3,0-0.54,0.24-0.54,0.54v2.04c0,0.3-0.24,0.54-0.54,0.54H8.22
			c-0.3,0-0.54,0.24-0.54,0.54v2.63c0,0.3,0.24,0.54,0.54,0.54h0.77"/>
	</g>
	<g class="st1">
		<path class="st4" d="M27.36,27.42l-1.68-2.56c-0.58-0.77-0.13-1.87,0.74-2.4l0,0c0.94-0.65,2.13-0.39,2.7,0.38l1.74,2.49"/>
	</g>
	<g class="st1">
		<path class="st3" d="M30.73,25.48c0.55,0.79,3.52,3.6,1.14,4.84l0,0c-2.23,1.51-3.8-2.21-4.35-3L30.73,25.48z"/>
	</g>
	<g class="st1">
		<path d="M30.86,30.79c-0.69,0-1.37-0.31-1.77-0.87l-1.73-2.48c-0.06-0.09-0.04-0.22,0.05-0.28c0.09-0.06,0.22-0.04,0.28,0.05
			l1.73,2.48c0.5,0.71,1.55,0.92,2.35,0.46c0.39-0.22,0.66-0.57,0.76-0.98c0.08-0.37,0.01-0.76-0.22-1.08l-1.75-2.49
			c-0.06-0.09-0.04-0.22,0.05-0.28c0.09-0.06,0.22-0.04,0.28,0.05l1.75,2.49c0.29,0.42,0.39,0.91,0.28,1.4
			c-0.12,0.51-0.46,0.97-0.95,1.25C31.63,30.7,31.24,30.79,30.86,30.79z"/>
	</g>
	<g class="st1">
		<path d="M27.52,27.53c-0.07,0-0.14-0.04-0.18-0.1c-0.06-0.1-0.02-0.22,0.08-0.28l3.21-1.84c0.1-0.06,0.22-0.02,0.28,0.08
			c0.06,0.1,0.02,0.22-0.08,0.28l-3.21,1.84C27.59,27.52,27.55,27.53,27.52,27.53z"/>
	</g>
	<g class="st1">
		<path d="M27.77,20.31c-0.06,0-0.12-0.03-0.16-0.08c-0.07-0.09-0.05-0.22,0.04-0.29l1.33-1.04c0.09-0.07,0.22-0.05,0.29,0.04
			c0.07,0.09,0.05,0.22-0.04,0.29l-1.33,1.04C27.86,20.3,27.81,20.31,27.77,20.31z"/>
	</g>
	<g class="st1">
		<path d="M3.08,30.73c-0.03,0-0.05,0-0.08-0.01c-1.2-0.48-1.97-1.55-1.97-2.73V12.03c0-1.65,1.49-2.99,3.31-2.99
			c0.11,0,0.2,0.09,0.2,0.2c0,0.11-0.09,0.2-0.2,0.2c-1.6,0-2.91,1.16-2.91,2.58v15.95c0,1.01,0.67,1.93,1.72,2.35
			c0.1,0.04,0.16,0.16,0.11,0.27C3.24,30.68,3.16,30.73,3.08,30.73z"/>
	</g>
	<g class="st1">
		<path d="M22.15,30.97H5.2c-0.11,0-0.2-0.09-0.2-0.2c0-0.11,0.09-0.2,0.2-0.2h16.95c1.6,0,2.91-1.16,2.91-2.58V12.03
			c0-1.42-1.3-2.58-2.91-2.58H4.34c-0.11,0-0.2-0.09-0.2-0.2c0-0.11,0.09-0.2,0.2-0.2h17.81c1.83,0,3.31,1.34,3.31,2.99v15.95
			C25.47,29.63,23.98,30.97,22.15,30.97z"/>
	</g>
	<g class="st1">
		<path d="M27.77,20.31c-0.06,0-0.12-0.03-0.16-0.08c-0.07-0.09-0.05-0.22,0.04-0.29l1.33-1.04c0.09-0.07,0.22-0.05,0.29,0.04
			c0.07,0.09,0.05,0.22-0.04,0.29l-1.33,1.04C27.86,20.3,27.81,20.31,27.77,20.31z"/>
	</g>
	<g class="st1">
		<path class="st5" d="M8.73,9.17H8.32V6.95c0-0.02-0.03-0.67,0.4-1.12c0.26-0.28,0.63-0.42,1.1-0.42h6.19
			c0.49,0,1.43,0.3,1.48,1.46c0.05,1.3,0,2.22,0,2.23l-0.41-0.02c0-0.01,0.05-0.91,0-2.19c-0.04-1.05-1.03-1.06-1.07-1.06H9.82
			c-0.35,0-0.62,0.1-0.8,0.29C8.71,6.43,8.73,6.94,8.73,6.94L8.73,9.17z"/>
	</g>
	<g class="st1">
		<path class="st5" d="M6.08,9.28c-0.11,0-0.2-0.09-0.2-0.2V6.74C5.88,6.7,6,3.17,9.7,3.03l3.93,0c0.11,0,0.2,0.09,0.2,0.2
			c0,0.11-0.09,0.2-0.2,0.2H9.71C6.41,3.56,6.29,6.62,6.28,6.75v2.34C6.28,9.19,6.19,9.28,6.08,9.28z"/>
	</g>
	<g class="st1">
		<path class="st5" d="M19.52,9.46l-0.02-0.2c0-0.02,0-0.05,0.01-0.07c0-0.12,0.01-0.6-0.01-2.58c-0.03-3.11-3.06-3.17-3.19-3.17
			h-0.99c-0.11,0-0.2-0.09-0.2-0.2c0-0.11,0.09-0.2,0.2-0.2h0.99c0.04,0,3.57,0.07,3.6,3.58c0.01,1.53,0.02,2.24-0.01,2.56
			c0.01,0.02,0.01,0.03,0.01,0.05l-0.02,0c-0.03,0.22-0.08,0.22-0.17,0.23L19.52,9.46z"/>
	</g>
</g>
<g class="st0">
	<g class="st1">
		<path class="st6" d="M15.55,6.95l12.38,0.17c0,0-1.96,0.96-1.44,3.24s1.78,2.1,1.78,2.1l-12.75-0.01
			C15.52,12.45,13.17,9.63,15.55,6.95z"/>
	</g>
	<g class="st1">
		<path class="st7" d="M6.11,12.45c0,0-1.99-1.59-1.3-3.9c0,0,0.56-1.39,1.88-1.6h9.12c0,0-2.04,1.57-1.07,3.81
			c0,0,0.6,1.31,1.46,1.69L6.11,12.45z"/>
	</g>
	<g class="st1">
		<path class="st6" d="M4.01,19.2c0,0,3.62-2.34,1.32-5.44c0,0-1.09-1.1-2.18-1.31l14.43-0.01c0,0,3.14,2.03,1.97,4.81
			c0,0-0.74,1.94-2.64,1.94H4.01z"/>
	</g>
	<g class="st1">
		<path class="st8" d="M28.64,12.46c0,0,2.58-0.28,3.22,2.27c0.63,2.55-0.98,4.13-1.95,4.47H17.35c0,0,2.72-0.91,2.47-3.69
			c0,0-0.8-1.97-1.69-3.05H28.64z"/>
	</g>
	<g class="st1">
		<path class="st6" d="M16.04,19.95c0,0-0.05-0.74,2.16-0.74H31.8c0,0-0.78,0.5-0.74,2.76l0.04,2.81c0,0-0.34,1.49,1.56,2.26
			l-15.18,0.02c0,0-1.77,0.04-1.74-2.73C15.74,24.33,15.63,21.23,16.04,19.95z"/>
	</g>
	<g class="st1">
		<path class="st9" d="M17.01,27.05H3.84c0,0-2.61,0.53-2.54-2.78l0-3.28c0,0,0.23-1.79,2.08-1.79H16.9c0,0-0.65,0.75-0.63,3.34
			c0.03,2.58-0.28,3.96,1.74,4.51H17.01z"/>
	</g>
	<g class="st1">
		<path d="M32.59,27.25H8.94c-0.11,0-0.21-0.09-0.21-0.21c0-0.11,0.09-0.21,0.21-0.21h22.85c-0.87-0.66-0.88-1.64-0.88-1.65
			c0-0.01-0.06-1.81-0.06-3.85c0-1.02,0.42-1.6,0.88-1.93H15c-0.11,0-0.21-0.09-0.21-0.21s0.09-0.21,0.21-0.21h17.89l0.01,0.41
			c-0.07,0-1.64,0.09-1.64,1.93c0,2.04,0.06,3.83,0.06,3.85c0,0.05,0.03,1.2,1.34,1.65l0.17,0.06l-0.05,0.36L32.59,27.25z"/>
	</g>
	<g class="st1">
		<path d="M6.75,27.25H2.98c-0.05-0.01-1.77-0.33-1.88-2.33l0.01-2.83c0-0.05-0.12-1.68,0.69-2.55c0.33-0.36,0.77-0.54,1.3-0.54
			h8.84c0.11,0,0.21,0.09,0.21,0.21s-0.09,0.21-0.21,0.21H3.09c-0.42,0-0.74,0.13-1,0.41c-0.69,0.74-0.58,2.24-0.58,2.26l-0.01,2.84
			c0.1,1.65,1.45,1.92,1.5,1.93l3.73,0c0.11,0,0.21,0.09,0.21,0.21C6.95,27.16,6.86,27.25,6.75,27.25z"/>
	</g>
	<g class="st1">
		<path d="M17.41,27.23c-1.33-0.66-1.32-2.06-1.32-2.12c0-0.02,0.02-1.94,0-3.57c-0.03-2.07,0.96-2.52,1.01-2.53l0.16,0.38
			l-0.08-0.19l0.08,0.19c-0.01,0-0.78,0.38-0.75,2.15c0.02,1.64,0,3.56,0,3.58c0,0.05,0,1.2,1.09,1.74L17.41,27.23z"/>
	</g>
	<g class="st1">
		<path d="M29.98,19.4l-0.14-0.39c0.83-0.29,2.43-1.76,1.82-4.23c-0.58-2.34-2.89-2.12-2.99-2.11l-24.43,0
			c0.69,0.4,1.22,0.92,1.25,0.95c0.69,0.93,0.94,1.86,0.77,2.79c-0.32,1.78-2.05,2.92-2.13,2.97L3.9,19.03
			c0.02-0.01,1.66-1.09,1.95-2.69c0.15-0.82-0.08-1.64-0.68-2.45l0,0c0,0-1.05-1.04-2.05-1.23l0.04-0.41h25.49
			c0,0,2.75-0.26,3.42,2.43C32.75,17.45,30.95,19.05,29.98,19.4z"/>
	</g>
	<g class="st1">
		<path d="M17.68,19.38l-0.2-0.36c1.35-0.74,2.08-1.63,2.18-2.66c0.19-1.93-1.91-3.74-1.93-3.76L18,12.29
			c0.09,0.08,2.29,1.97,2.07,4.11C19.96,17.57,19.15,18.57,17.68,19.38z"/>
	</g>
	<g class="st1">
		<path d="M27.9,12.67c-0.04,0-0.08-0.01-0.12-0.04c-1.2-0.86-1.45-1.94-1.46-1.98c-0.21-1.29-0.03-2.29,0.53-2.98
			c0.17-0.21,0.36-0.38,0.55-0.5h-4.21c-0.11,0-0.21-0.09-0.21-0.21c0-0.11,0.09-0.21,0.21-0.21h5.4l0.01,0.41
			c-0.01,0-0.87,0.06-1.43,0.77c-0.48,0.6-0.63,1.49-0.44,2.64l0,0c0,0,0.23,0.96,1.29,1.72c0.09,0.07,0.11,0.2,0.05,0.29
			C28.03,12.64,27.96,12.67,27.9,12.67z"/>
	</g>
	<g class="st1">
		<path d="M5.85,12.66c-0.05,0-0.09-0.02-0.13-0.05C5.7,12.59,3.78,11,4.5,8.58c0.02-0.06,0.45-1.61,1.89-1.84l14.97,0
			c0.11,0,0.21,0.09,0.21,0.21c0,0.11-0.09,0.21-0.21,0.21H6.42C5.28,7.34,4.91,8.68,4.9,8.7c-0.64,2.16,1.06,3.58,1.08,3.59
			c0.09,0.07,0.1,0.2,0.03,0.29C5.97,12.63,5.91,12.66,5.85,12.66z"/>
	</g>
	<g class="st1">
		<path d="M15.59,12.62c-0.59-0.5-0.89-1-0.91-1.02c-1.8-2.67,0.89-4.79,0.91-4.81l0.25,0.33c-0.1,0.08-2.41,1.91-0.82,4.26
			c0.01,0.01,0.29,0.47,0.82,0.92L15.59,12.62z"/>
	</g>
	<g class="st1">
		<path class="st10" d="M13.53,15.83"/>
	</g>
	<g class="st1">
		<polygon class="st11" points="15,15.83 15,20.99 13.39,19.75 12.05,20.99 12.05,15.83 		"/>
	</g>
	<g class="st1">
		<rect x="10.5" y="15.62" width="5.77" height="0.42"/>
	</g>
</g>
<g>
	<g>
		<path class="st12" d="M18.34,11.28l-1.48,1.53c0,0-1.11,1.82,0.71,1.53c0,0,0.38,0.04,0.98-0.59c0.6-0.63,1.2-1.25,1.2-1.25
			S18.91,11.24,18.34,11.28z"/>
	</g>
	<g>
		<rect x="12.58" y="5.17" class="st13" width="20.1" height="3.13"/>
	</g>
	<g>
		<path d="M1.31,26.52c-0.07,0-0.14-0.04-0.18-0.1c-0.06-0.1-0.03-0.22,0.07-0.28c0.03-0.02,2.64-1.58,3.37-2.07
			c0.8-0.53,1.75-1.34,1.98-2.94c0.09-0.65,0.21-1.64,0.33-2.63c0.21-1.72,0.41-3.35,0.51-3.69l0.04-0.12
			c0.15-0.49,0.28-0.94,0.69-1.44c0.41-0.5,2.98-2.89,3.09-3c0.08-0.08,0.21-0.07,0.29,0.01c0.08,0.08,0.07,0.21-0.01,0.29
			c-0.03,0.02-2.65,2.47-3.05,2.95c-0.35,0.43-0.47,0.83-0.61,1.29l-0.04,0.12C7.7,15.24,7.49,17,7.3,18.55
			c-0.12,1-0.24,1.99-0.33,2.64c-0.25,1.78-1.35,2.69-2.16,3.22c-0.74,0.49-3.28,2.01-3.38,2.08C1.39,26.51,1.35,26.52,1.31,26.52z"
			/>
	</g>
	<g>
		<path d="M8.22,31.75c-0.06,0-0.12-0.03-0.16-0.07C7.99,31.59,8,31.46,8.09,31.39c0.22-0.18,5.29-4.4,6.17-4.83l0.09-0.05
			c0.96-0.46,3.21-1.53,3.77-3.77c0.01-0.24,0.13-2.05,1.28-3.08c0.08-0.08,0.21-0.07,0.29,0.02c0.08,0.08,0.07,0.22-0.02,0.29
			c-1.07,0.96-1.14,2.79-1.14,2.8l-0.01,0.04c-0.6,2.45-3.07,3.62-4,4.07l-0.09,0.04c-0.67,0.32-4.28,3.26-6.09,4.77
			C8.31,31.74,8.27,31.75,8.22,31.75z"/>
	</g>
	<g>
		<path d="M11.95,24.56c-0.08,0-0.16-0.05-0.19-0.13c-0.04-0.1,0-0.23,0.11-0.27c0,0,0.62-0.28,1.53-1.35
			c0.87-1.02,0.62-1.72,0.6-1.75L13.99,21c-0.06-1.48,1.05-2.41,1.1-2.45l3.75-4.33c1.15-1.3,0.55-2.13,0.55-2.14
			c-0.2-0.34-0.43-0.52-0.73-0.57c-0.71-0.13-1.52,0.52-1.53,0.53c0,0-2.71,2.43-4.2,3.78c-0.57,0.52-1.13,0.76-1.67,0.72
			c-0.64-0.05-1-0.49-1.02-0.51c-0.07-0.09-0.06-0.22,0.03-0.29c0.09-0.07,0.22-0.06,0.29,0.03c0.01,0.02,0.27,0.32,0.73,0.36
			c0.42,0.03,0.88-0.18,1.36-0.61c1.49-1.36,4.21-3.79,4.21-3.79c0.05-0.04,0.97-0.78,1.87-0.62c0.41,0.08,0.75,0.33,0.99,0.75
			c0.02,0.02,0.79,1.09-0.58,2.64l-3.77,4.36c-0.03,0.03-1.01,0.86-0.97,2.11c0.06,0.19,0.24,1.04-0.69,2.13
			c-0.99,1.16-1.66,1.45-1.69,1.46C12,24.56,11.98,24.56,11.95,24.56z"/>
	</g>
	<g>
		<path d="M26.82,18.89c-4.42,0-10.5-0.06-10.57-0.06c-0.11,0-0.21-0.09-0.2-0.21c0-0.11,0.09-0.2,0.21-0.2c0,0,0,0,0,0
			c0.1,0,9.7,0.1,13.54,0.05c0,0,0,0,0,0c0.11,0,0.2,0.09,0.21,0.2c0,0.11-0.09,0.21-0.2,0.21C29.01,18.88,27.97,18.89,26.82,18.89z
			"/>
	</g>
	<g>
		<path d="M31.68,18.73c-0.08,0-0.16-0.05-0.19-0.13c-0.04-0.11,0.01-0.23,0.12-0.27c0.8-0.3,0.88-1.32,0.88-1.33l0-12.67
			c0-1.48-1-1.62-1.01-1.62c-0.14,0-16.37-0.14-17.58,0c-1.04,0.12-1.09,1.33-1.09,1.38v9.35c0,0.11-0.09,0.21-0.21,0.21
			s-0.21-0.09-0.21-0.21V4.1c0.02-0.56,0.34-1.66,1.46-1.79c1.23-0.14,16.99-0.01,17.66,0c0.04,0,1.4,0.19,1.4,2.03v12.68
			c0,0.06-0.09,1.3-1.14,1.7C31.73,18.73,31.7,18.73,31.68,18.73z"/>
	</g>
	<g>
		<path d="M32.69,8.5H29.8c-0.11,0-0.21-0.09-0.21-0.21s0.09-0.21,0.21-0.21h2.89c0.11,0,0.21,0.09,0.21,0.21S32.8,8.5,32.69,8.5z"
			/>
	</g>
	<g>
		<path d="M27.45,8.5H12.58c-0.11,0-0.21-0.09-0.21-0.21s0.09-0.21,0.21-0.21h14.87c0.11,0,0.21,0.09,0.21,0.21S27.57,8.5,27.45,8.5
			z"/>
	</g>
	<g>
		<path class="st14" d="M24.18,15.04h-1.77c-0.28,0-0.5-0.23-0.5-0.5v-0.38c0-0.28,0.23-0.5,0.5-0.5h1.77c0.28,0,0.5,0.23,0.5,0.5
			v0.38C24.68,14.81,24.46,15.04,24.18,15.04z"/>
	</g>
	<g>
		<path class="st13" d="M30.32,15.5H26.8c-0.44,0-0.8-0.36-0.8-0.8V14c0-0.44,0.36-0.8,0.8-0.8h3.52c0.44,0,0.8,0.36,0.8,0.8v0.69
			C31.12,15.14,30.76,15.5,30.32,15.5z"/>
	</g>
</g>
</svg>
