<?xml version="1.0" encoding="utf-8"?>
<!-- Generator: Adobe Illustrator 23.0.5, SVG Export Plug-In . SVG Version: 6.00 Build 0)  -->
<svg version="1.1" id="Layer_1" xmlns="http://www.w3.org/2000/svg" xmlns:xlink="http://www.w3.org/1999/xlink" x="0px" y="0px"
	 viewBox="0 0 34 34" style="enable-background:new 0 0 34 34;" xml:space="preserve">
<style type="text/css">
	.st0{display:none;}
	.st1{display:inline;}
	.st2{fill:#E53525;}
	.st3{fill:none;}
	.st4{fill:#E15750;}
	.st5{fill:#070808;}
	.st6{fill:#FFFFFF;}
	.st7{fill:#4E4EA1;}
	.st8{fill:#60A2C6;}
	.st9{fill:#2A58A0;}
	.st10{fill:#EDEDED;}
	.st11{fill:#EF9F5E;}
	.st12{fill:#4EAFAB;}
	.st13{fill:#087D7C;}
	.st14{fill:#2D2D2D;}
	.st15{fill:#0E151E;}
	.st16{fill:#3F429A;}
	.st17{fill:#101010;}
	.st18{fill:#BEE2D0;}
	.st19{fill:#0065A3;}
</style>
<g class="st0">
	<g class="st1">
		<path class="st2" d="M6.08,8.7c0,0-0.56-3.64,1.6-4.89c0,0,0.35-0.68,5.56-0.58l3.74,0.09c0,0,2.36,0.41,2.68,2.84l0.03,3.08
			l-2.42-0.16l0.01-1.69c0,0,0.47-1.78-1.98-1.78h-5.17c0,0-1.57-0.36-1.61,1.78l0,1.78L6.04,9.25L6.08,8.7z"/>
	</g>
	<g class="st1">
		<path class="st3" d="M4.34,9.25h17.81c1.71,0,3.11,1.25,3.11,2.79v15.95c0,1.53-1.4,2.79-3.11,2.79H5.2c0,0-1.69-0.03-2.12-0.24
			c-1.05-0.51-1.84-1.41-1.84-2.54V12.03C1.23,10.5,2.63,9.25,4.34,9.25"/>
	</g>
	<g class="st1">
		<path class="st2" d="M17.86,16.67h-0.42c-0.05,0-0.09-0.04-0.09-0.09v-0.35c0-0.05-0.04-0.09-0.09-0.09h-0.53
			c-0.05,0-0.09,0.04-0.09,0.09v0.35c0,0.05-0.04,0.09-0.09,0.09h-0.4c-0.05,0-0.09,0.04-0.09,0.09v0.46c0,0.05,0.04,0.09,0.09,0.09
			h0.13h0.18h0.09c0.05,0,0.09,0.04,0.09,0.09v0.35c0,0.05,0.04,0.09,0.09,0.09h0.53c0.05,0,0.09-0.04,0.09-0.09v-0.35
			c0-0.05,0.04-0.09,0.09-0.09l0.41,0c0.05,0,0.09-0.04,0.09-0.09v-0.46C17.95,16.72,17.91,16.67,17.86,16.67z"/>
	</g>
	<g class="st1">
		<path class="st3" d="M10.05,21.98h0.49c0.3,0,0.54,0.24,0.54,0.54v2c0,0.3,0.24,0.54,0.54,0.54h3.06c0.3,0,0.54-0.24,0.54-0.54
			v-2.03c0-0.3,0.24-0.54,0.54-0.54l2.35,0.03c0.3,0,0.54-0.24,0.54-0.54v-2.66c0-0.3-0.24-0.54-0.54-0.54h-2.4
			c-0.3,0-0.54-0.24-0.54-0.54v-2c0-0.3-0.24-0.54-0.54-0.54h-3.02c-0.3,0-0.54,0.24-0.54,0.54v2.04c0,0.3-0.24,0.54-0.54,0.54H8.22
			c-0.3,0-0.54,0.24-0.54,0.54v2.63c0,0.3,0.24,0.54,0.54,0.54h0.77"/>
	</g>
	<g class="st1">
		<path class="st4" d="M27.36,27.42l-1.68-2.56c-0.58-0.77-0.13-1.87,0.74-2.4l0,0c0.94-0.65,2.13-0.39,2.7,0.38l1.74,2.49"/>
	</g>
	<g class="st1">
		<path class="st3" d="M30.73,25.48c0.55,0.79,3.52,3.6,1.14,4.84l0,0c-2.23,1.51-3.8-2.21-4.35-3L30.73,25.48z"/>
	</g>
	<g class="st1">
		<path d="M30.86,30.79c-0.69,0-1.37-0.31-1.77-0.87l-1.73-2.48c-0.06-0.09-0.04-0.22,0.05-0.28c0.09-0.06,0.22-0.04,0.28,0.05
			l1.73,2.48c0.5,0.71,1.55,0.92,2.35,0.46c0.39-0.22,0.66-0.57,0.76-0.98c0.08-0.37,0.01-0.76-0.22-1.08l-1.75-2.49
			c-0.06-0.09-0.04-0.22,0.05-0.28c0.09-0.06,0.22-0.04,0.28,0.05l1.75,2.49c0.29,0.42,0.39,0.91,0.28,1.4
			c-0.12,0.51-0.46,0.97-0.95,1.25C31.63,30.7,31.24,30.79,30.86,30.79z"/>
	</g>
	<g class="st1">
		<path d="M27.52,27.53c-0.07,0-0.14-0.04-0.18-0.1c-0.06-0.1-0.02-0.22,0.08-0.28l3.21-1.84c0.1-0.06,0.22-0.02,0.28,0.08
			c0.06,0.1,0.02,0.22-0.08,0.28l-3.21,1.84C27.59,27.52,27.55,27.53,27.52,27.53z"/>
	</g>
	<g class="st1">
		<path d="M27.77,20.31c-0.06,0-0.12-0.03-0.16-0.08c-0.07-0.09-0.05-0.22,0.04-0.29l1.33-1.04c0.09-0.07,0.22-0.05,0.29,0.04
			c0.07,0.09,0.05,0.22-0.04,0.29l-1.33,1.04C27.86,20.3,27.81,20.31,27.77,20.31z"/>
	</g>
	<g class="st1">
		<path d="M3.08,30.73c-0.03,0-0.05,0-0.08-0.01c-1.2-0.48-1.97-1.55-1.97-2.73V12.03c0-1.65,1.49-2.99,3.31-2.99
			c0.11,0,0.2,0.09,0.2,0.2c0,0.11-0.09,0.2-0.2,0.2c-1.6,0-2.91,1.16-2.91,2.58v15.95c0,1.01,0.67,1.93,1.72,2.35
			c0.1,0.04,0.16,0.16,0.11,0.27C3.24,30.68,3.16,30.73,3.08,30.73z"/>
	</g>
	<g class="st1">
		<path d="M18.28,15.09h-3.1c-0.02,0-0.04,0.02-0.04,0.04c0,0.02,0.02,0.04,0.04,0.04h3.1c0.28,0,0.51,0.2,0.51,0.45v2.78
			c0,0.25-0.23,0.45-0.51,0.45h-2.95c-0.02,0-0.04,0.02-0.04,0.04c0,0.02,0.02,0.04,0.04,0.04h2.95c0.32,0,0.58-0.23,0.58-0.52
			v-2.78C18.86,15.32,18.6,15.09,18.28,15.09z"/>
	</g>
	<g class="st1">
		<path d="M27.77,20.31c-0.06,0-0.12-0.03-0.16-0.08c-0.07-0.09-0.05-0.22,0.04-0.29l1.33-1.04c0.09-0.07,0.22-0.05,0.29,0.04
			c0.07,0.09,0.05,0.22-0.04,0.29l-1.33,1.04C27.86,20.3,27.81,20.31,27.77,20.31z"/>
	</g>
	<g class="st1">
		<path class="st5" d="M8.73,9.17H8.32V6.95c0-0.02-0.03-0.67,0.4-1.12c0.26-0.28,0.63-0.42,1.1-0.42h6.19
			c0.49,0,1.43,0.3,1.48,1.46c0.05,1.3,0,2.22,0,2.23l-0.41-0.02c0-0.01,0.05-0.91,0-2.19c-0.04-1.05-1.03-1.06-1.07-1.06H9.82
			c-0.35,0-0.62,0.1-0.8,0.29C8.71,6.43,8.73,6.94,8.73,6.94L8.73,9.17z"/>
	</g>
	<g class="st1">
		<path class="st5" d="M6.08,9.28c-0.11,0-0.2-0.09-0.2-0.2V6.74C5.88,6.7,6,3.17,9.7,3.03l3.93,0c0.11,0,0.2,0.09,0.2,0.2
			c0,0.11-0.09,0.2-0.2,0.2H9.71C6.41,3.56,6.29,6.62,6.28,6.75v2.34C6.28,9.19,6.19,9.28,6.08,9.28z"/>
	</g>
	<g class="st1">
		<path class="st5" d="M19.52,9.46l-0.02-0.2c0-0.02,0-0.05,0.01-0.07c0-0.12,0.01-0.6-0.01-2.58c-0.03-3.11-3.06-3.17-3.19-3.17
			h-0.99c-0.11,0-0.2-0.09-0.2-0.2c0-0.11,0.09-0.2,0.2-0.2h0.99c0.04,0,3.57,0.07,3.6,3.58c0.01,1.53,0.02,2.24-0.01,2.56
			c0.01,0.02,0.01,0.03,0.01,0.05l-0.02,0c-0.03,0.22-0.08,0.22-0.17,0.23L19.52,9.46z"/>
	</g>
</g>
<g class="st0">
	<g class="st1">
		<path class="st6" d="M15.55,6.95l12.38,0.17c0,0-1.96,0.96-1.44,3.24s1.78,2.1,1.78,2.1l-12.75-0.01
			C15.52,12.45,13.17,9.63,15.55,6.95z"/>
	</g>
	<g class="st1">
		<path class="st7" d="M6.11,12.45c0,0-1.99-1.59-1.3-3.9c0,0,0.56-1.39,1.88-1.6h9.12c0,0-2.04,1.57-1.07,3.81
			c0,0,0.6,1.31,1.46,1.69L6.11,12.45z"/>
	</g>
	<g class="st1">
		<path class="st6" d="M4.01,19.2c0,0,3.62-2.34,1.32-5.44c0,0-1.09-1.1-2.18-1.31l14.43-0.01c0,0,3.14,2.03,1.97,4.81
			c0,0-0.74,1.94-2.64,1.94H4.01z"/>
	</g>
	<g class="st1">
		<path class="st8" d="M28.64,12.46c0,0,2.58-0.28,3.22,2.27c0.63,2.55-0.98,4.13-1.95,4.47H17.35c0,0,2.72-0.91,2.47-3.69
			c0,0-0.8-1.97-1.69-3.05H28.64z"/>
	</g>
	<g class="st1">
		<path class="st6" d="M16.04,19.95c0,0-0.05-0.74,2.16-0.74H31.8c0,0-0.78,0.5-0.74,2.76l0.04,2.81c0,0-0.34,1.49,1.56,2.26
			l-15.18,0.02c0,0-1.77,0.04-1.74-2.73C15.74,24.33,15.63,21.23,16.04,19.95z"/>
	</g>
	<g class="st1">
		<path class="st9" d="M18.15,16.9c0-0.45,0.11-0.58,0.11-0.58h-2.36c-0.32,0-0.36,0.31-0.36,0.31l0,0.57
			c-0.01,0.58,0.44,0.48,0.44,0.48h2.3h0.18C18.1,17.58,18.16,17.35,18.15,16.9z M17.93,17.5v-0.17V17.5z"/>
	</g>
	<g class="st1">
		<path d="M18.83,17.36c0,0-0.01-0.32-0.01-0.67c0-0.32,0.27-0.34,0.29-0.34l0-0.07h-3.12c-0.02,0-0.04,0.02-0.04,0.04
			c0,0.02,0.02,0.04,0.04,0.04h2.92c-0.08,0.06-0.15,0.16-0.15,0.34c0,0.36,0.01,0.67,0.01,0.67c0,0,0,0.17,0.15,0.29h-3.98
			c-0.02,0-0.04,0.02-0.04,0.04s0.02,0.04,0.04,0.04h4.12l0.03,0l0.01-0.06l-0.03-0.01C18.84,17.57,18.83,17.37,18.83,17.36z"/>
	</g>
	<g class="st1">
		<path d="M6.75,27.25H2.98c-0.05-0.01-1.77-0.33-1.88-2.33l0.01-2.83c0-0.05-0.12-1.68,0.69-2.55c0.33-0.36,0.77-0.54,1.3-0.54
			h8.84c0.11,0,0.21,0.09,0.21,0.21s-0.09,0.21-0.21,0.21H3.09c-0.42,0-0.74,0.13-1,0.41c-0.69,0.74-0.58,2.24-0.58,2.26l-0.01,2.84
			c0.1,1.65,1.45,1.92,1.5,1.93l3.73,0c0.11,0,0.21,0.09,0.21,0.21C6.95,27.16,6.86,27.25,6.75,27.25z"/>
	</g>
	<g class="st1">
		<path d="M17.41,27.23c-1.33-0.66-1.32-2.06-1.32-2.12c0-0.02,0.02-1.94,0-3.57c-0.03-2.07,0.96-2.52,1.01-2.53l0.16,0.38
			l-0.08-0.19l0.08,0.19c-0.01,0-0.78,0.38-0.75,2.15c0.02,1.64,0,3.56,0,3.58c0,0.05,0,1.2,1.09,1.74L17.41,27.23z"/>
	</g>
	<g class="st1">
		<path d="M29.98,19.4l-0.14-0.39c0.83-0.29,2.43-1.76,1.82-4.23c-0.58-2.34-2.89-2.12-2.99-2.11l-24.43,0
			c0.69,0.4,1.22,0.92,1.25,0.95c0.69,0.93,0.94,1.86,0.77,2.79c-0.32,1.78-2.05,2.92-2.13,2.97L3.9,19.03
			c0.02-0.01,1.66-1.09,1.95-2.69c0.15-0.82-0.08-1.64-0.68-2.45l0,0c0,0-1.05-1.04-2.05-1.23l0.04-0.41h25.49
			c0,0,2.75-0.26,3.42,2.43C32.75,17.45,30.95,19.05,29.98,19.4z"/>
	</g>
	<g class="st1">
		<path d="M17.68,19.38l-0.2-0.36c1.35-0.74,2.08-1.63,2.18-2.66c0.19-1.93-1.91-3.74-1.93-3.76L18,12.29
			c0.09,0.08,2.29,1.97,2.07,4.11C19.96,17.57,19.15,18.57,17.68,19.38z"/>
	</g>
	<g class="st1">
		<path d="M27.9,12.67c-0.04,0-0.08-0.01-0.12-0.04c-1.2-0.86-1.45-1.94-1.46-1.98c-0.21-1.29-0.03-2.29,0.53-2.98
			c0.17-0.21,0.36-0.38,0.55-0.5h-4.21c-0.11,0-0.21-0.09-0.21-0.21c0-0.11,0.09-0.21,0.21-0.21h5.4l0.01,0.41
			c-0.01,0-0.87,0.06-1.43,0.77c-0.48,0.6-0.63,1.49-0.44,2.64l0,0c0,0,0.23,0.96,1.29,1.72c0.09,0.07,0.11,0.2,0.05,0.29
			C28.03,12.64,27.96,12.67,27.9,12.67z"/>
	</g>
	<g class="st1">
		<path d="M5.85,12.66c-0.05,0-0.09-0.02-0.13-0.05C5.7,12.59,3.78,11,4.5,8.58c0.02-0.06,0.45-1.61,1.89-1.84l14.97,0
			c0.11,0,0.21,0.09,0.21,0.21c0,0.11-0.09,0.21-0.21,0.21H6.42C5.28,7.34,4.91,8.68,4.9,8.7c-0.64,2.16,1.06,3.58,1.08,3.59
			c0.09,0.07,0.1,0.2,0.03,0.29C5.97,12.63,5.91,12.66,5.85,12.66z"/>
	</g>
	<g class="st1">
		<path d="M15.59,12.62c-0.59-0.5-0.89-1-0.91-1.02c-1.8-2.67,0.89-4.79,0.91-4.81l0.25,0.33c-0.1,0.08-2.41,1.91-0.82,4.26
			c0.01,0.01,0.29,0.47,0.82,0.92L15.59,12.62z"/>
	</g>
	<g class="st1">
		<path class="st10" d="M13.53,15.83"/>
	</g>
	<g class="st1">
		<polygon class="st11" points="15,15.83 15,20.99 13.39,19.75 12.05,20.99 12.05,15.83 		"/>
	</g>
	<g class="st1">
		<rect x="10.5" y="15.62" width="5.77" height="0.42"/>
	</g>
</g>
<g class="st0">
	<g class="st1">
		<path class="st12" d="M18.34,11.28l-1.48,1.53c0,0-1.11,1.82,0.71,1.53c0,0,0.38,0.04,0.98-0.59c0.6-0.63,1.2-1.25,1.2-1.25
			S18.91,11.24,18.34,11.28z"/>
	</g>
	<g class="st1">
		<rect x="12.58" y="5.17" class="st13" width="20.1" height="3.13"/>
	</g>
	<g class="st1">
		<path d="M1.31,26.52c-0.07,0-0.14-0.04-0.18-0.1c-0.06-0.1-0.03-0.22,0.07-0.28c0.03-0.02,2.64-1.58,3.37-2.07
			c0.8-0.53,1.75-1.34,1.98-2.94c0.09-0.65,0.21-1.64,0.33-2.63c0.21-1.72,0.41-3.35,0.51-3.69l0.04-0.12
			c0.15-0.49,0.28-0.94,0.69-1.44c0.41-0.5,2.98-2.89,3.09-3c0.08-0.08,0.21-0.07,0.29,0.01c0.08,0.08,0.07,0.21-0.01,0.29
			c-0.03,0.02-2.65,2.47-3.05,2.95c-0.35,0.43-0.47,0.83-0.61,1.29l-0.04,0.12C7.7,15.24,7.49,17,7.3,18.55
			c-0.12,1-0.24,1.99-0.33,2.64c-0.25,1.78-1.35,2.69-2.16,3.22c-0.74,0.49-3.28,2.01-3.38,2.08C1.39,26.51,1.35,26.52,1.31,26.52z"
			/>
	</g>
	<g class="st1">
		<path d="M18.01,15.95c-0.01-0.01-0.04-0.02-0.05,0c-0.2,0.18-0.22,0.5-0.22,0.54c-0.1,0.39-0.49,0.58-0.66,0.66l-0.02,0.01
			c-0.15,0.07-1.04,0.81-1.08,0.84c-0.02,0.01-0.02,0.04,0,0.05c0.01,0.01,0.02,0.01,0.03,0.01c0.01,0,0.02,0,0.02-0.01
			c0.32-0.26,0.94-0.78,1.06-0.83l0.02-0.01c0.16-0.08,0.59-0.28,0.7-0.71l0-0.01c0,0,0.01-0.32,0.2-0.49
			C18.03,15.99,18.03,15.97,18.01,15.95z"/>
	</g>
	<g class="st1">
		<path d="M11.95,24.56c-0.08,0-0.16-0.05-0.19-0.13c-0.04-0.1,0-0.23,0.11-0.27c0,0,0.62-0.28,1.53-1.35
			c0.87-1.02,0.62-1.72,0.6-1.75L13.99,21c-0.06-1.48,1.05-2.41,1.1-2.45l3.75-4.33c1.15-1.3,0.55-2.13,0.55-2.14
			c-0.2-0.34-0.43-0.52-0.73-0.57c-0.71-0.13-1.52,0.52-1.53,0.53c0,0-2.71,2.43-4.2,3.78c-0.57,0.52-1.13,0.76-1.67,0.72
			c-0.64-0.05-1-0.49-1.02-0.51c-0.07-0.09-0.06-0.22,0.03-0.29c0.09-0.07,0.22-0.06,0.29,0.03c0.01,0.02,0.27,0.32,0.73,0.36
			c0.42,0.03,0.88-0.18,1.36-0.61c1.49-1.36,4.21-3.79,4.21-3.79c0.05-0.04,0.97-0.78,1.87-0.62c0.41,0.08,0.75,0.33,0.99,0.75
			c0.02,0.02,0.79,1.09-0.58,2.64l-3.77,4.36c-0.03,0.03-1.01,0.86-0.97,2.11c0.06,0.19,0.24,1.04-0.69,2.13
			c-0.99,1.16-1.66,1.45-1.69,1.46C12,24.56,11.98,24.56,11.95,24.56z"/>
	</g>
	<g class="st1">
		<path d="M26.82,18.89c-4.42,0-10.5-0.06-10.57-0.06c-0.11,0-0.21-0.09-0.2-0.21c0-0.11,0.09-0.2,0.21-0.2c0,0,0,0,0,0
			c0.1,0,9.7,0.1,13.54,0.05c0,0,0,0,0,0c0.11,0,0.2,0.09,0.21,0.2c0,0.11-0.09,0.21-0.2,0.21C29.01,18.88,27.97,18.89,26.82,18.89z
			"/>
	</g>
	<g class="st1">
		<path d="M31.68,18.73c-0.08,0-0.16-0.05-0.19-0.13c-0.04-0.11,0.01-0.23,0.12-0.27c0.8-0.3,0.88-1.32,0.88-1.33l0-12.67
			c0-1.48-1-1.62-1.01-1.62c-0.14,0-16.37-0.14-17.58,0c-1.04,0.12-1.09,1.33-1.09,1.38v9.35c0,0.11-0.09,0.21-0.21,0.21
			s-0.21-0.09-0.21-0.21V4.1c0.02-0.56,0.34-1.66,1.46-1.79c1.23-0.14,16.99-0.01,17.66,0c0.04,0,1.4,0.19,1.4,2.03v12.68
			c0,0.06-0.09,1.3-1.14,1.7C31.73,18.73,31.7,18.73,31.68,18.73z"/>
	</g>
	<g class="st1">
		<path d="M32.69,8.5H29.8c-0.11,0-0.21-0.09-0.21-0.21s0.09-0.21,0.21-0.21h2.89c0.11,0,0.21,0.09,0.21,0.21S32.8,8.5,32.69,8.5z"
			/>
	</g>
	<g class="st1">
		<path d="M27.45,8.5H12.58c-0.11,0-0.21-0.09-0.21-0.21s0.09-0.21,0.21-0.21h14.87c0.11,0,0.21,0.09,0.21,0.21S27.57,8.5,27.45,8.5
			z"/>
	</g>
	<g class="st1">
		<path class="st14" d="M24.18,15.04h-1.77c-0.28,0-0.5-0.23-0.5-0.5v-0.38c0-0.28,0.23-0.5,0.5-0.5h1.77c0.28,0,0.5,0.23,0.5,0.5
			v0.38C24.68,14.81,24.46,15.04,24.18,15.04z"/>
	</g>
	<g class="st1">
		<path class="st13" d="M30.32,15.5H26.8c-0.44,0-0.8-0.36-0.8-0.8V14c0-0.44,0.36-0.8,0.8-0.8h3.52c0.44,0,0.8,0.36,0.8,0.8v0.69
			C31.12,15.14,30.76,15.5,30.32,15.5z"/>
	</g>
</g>
<g class="st0">
	<g class="st1">
		<path class="st9" d="M19.69,3.04c0-0.4-0.21-0.49-0.62-0.49c-0.48,0-0.56,0.51-0.56,0.51L18.3,6.4c0,0-0.07,0.65,0.05,0.96
			c0.15,0.4,0.71,0.45,0.91,0.15c0.11-0.16,0.15-0.47,0.18-0.96l0,0C19.48,6.07,19.69,3.52,19.69,3.04z"/>
	</g>
	<g class="st1">
		<path class="st9" d="M11.91,20.47c0,0,1.87-0.69,3.05-0.51c0,0-0.35,0.72,0.33,1.19s2.07,0.73,2.79,0.23
			c0.71-0.5,0.91-1.17,0.91-1.17s2.26,1.04,2.29,1.54c0,0-1.35,2.1-5.45,1.75C15.83,23.5,12.54,21.85,11.91,20.47z"/>
	</g>
	<g class="st1">
		<path d="M18.72,19.4l-3.09-0.37c-0.18-0.02-0.31-0.14-0.29-0.27l0.45-3.95c0.01-0.06,0.05-0.12,0.11-0.15
			c0.07-0.04,0.15-0.06,0.24-0.05l1.45,0.17c0.02,0,0.04-0.01,0.04-0.04c0-0.02-0.01-0.04-0.04-0.04l-1.45-0.17
			c-0.1-0.01-0.21,0.01-0.29,0.06c-0.09,0.05-0.14,0.13-0.15,0.21l-0.45,3.95c-0.02,0.18,0.14,0.34,0.37,0.36l3.09,0.37c0,0,0,0,0,0
			c0.02,0,0.04-0.01,0.04-0.04C18.75,19.42,18.74,19.4,18.72,19.4z"/>
	</g>
	<g class="st1">
		<path d="M26.4,33.58c-0.1,0-0.19-0.07-0.22-0.17c-0.04-0.12,0.04-0.25,0.16-0.29c0.66-0.19,1.08-0.57,1.13-1.01l2.59-22.64
			c0.09-0.74-0.9-1.49-2.14-1.63l-7.7-0.88c-0.13-0.01-0.22-0.13-0.2-0.26c0.01-0.13,0.13-0.22,0.26-0.2l7.7,0.88
			c1.52,0.17,2.66,1.13,2.55,2.14l-2.59,22.64c-0.07,0.63-0.62,1.16-1.46,1.4C26.44,33.57,26.42,33.58,26.4,33.58z"/>
	</g>
	<g class="st1">
		<path d="M30.16,10.49C28.64,10.21,6.41,7.85,6.18,7.82l0.05-0.46c0.92,0.1,22.47,2.39,24.01,2.67L30.16,10.49z"/>
	</g>
	<g class="st1">
		
			<rect x="15.93" y="19.8" transform="matrix(0.1328 -0.9911 0.9911 0.1328 -13.3331 39.9506)" class="st9" width="0.46" height="15.59"/>
	</g>
	<g class="st1">
		<path d="M17.17,23.73c-3.2,0-5.8-2.52-5.8-5.62c0-2.67,1.29-4.54,3.64-5.28l0.14,0.44c-2.74,0.86-3.31,3.11-3.31,4.84
			c0,2.85,2.4,5.16,5.34,5.16s5.34-2.32,5.34-5.16c0-1.28-0.49-2.51-1.38-3.47l0.34-0.32c0.97,1.04,1.51,2.38,1.51,3.78
			C22.98,21.21,20.37,23.73,17.17,23.73z"/>
	</g>
	<g class="st1">
		<path class="st15" d="M15.04,17.55l0.12-0.6c0,0-0.9-0.37-1.21-0.97c-0.3-0.6-0.05-1.42,0.6-1.93c0,0,0.09-0.93,0.32-1.42
			c0.23-0.49,0.6-1.28,1.86-1.53c1.25-0.26,2.44,0.81,2.69,1.04c0,0,0.74-0.14,1.48,0.16c0.74,0.3,0.49,1.18,0.28,1.44
			s-1.16,0.77-2.74,0.77c0,0-0.74-0.02-1.09-0.05c0,0-0.22-0.12-0.24,0.19c0,0-0.02,0.86-0.57,0.53c0,0-0.6-0.28-0.79-0.09
			s-0.23,0.93,0.02,1.18c0.26,0.26,0.67,0.51,0.42,0.77L15.04,17.55z"/>
	</g>
	<g class="st1">
		<path d="M19.7,19.86c-0.79,0-1.78-0.23-2.38-0.98l0.36-0.29c0.78,0.99,2.55,0.86,2.89,0.67c0.29-0.16,0.36-0.5,0.36-0.5
			c0.05-1.2,0.14-3.64,0.12-3.98c-0.02-0.35-0.14-0.69-0.18-0.74l0.16-0.1l0.01-0.04l-0.14-0.19l0.24-0.02
			c0.25,0.12,0.36,0.88,0.37,1.08c0.02,0.45-0.12,3.91-0.12,4.06c-0.01,0.06-0.11,0.58-0.6,0.85C20.6,19.77,20.19,19.86,19.7,19.86z
			"/>
	</g>
	<g class="st1">
		<path d="M17.06,21.8c-0.25,0-0.51-0.03-0.79-0.09c-1.62-0.34-1.72-0.92-1.69-1.54c0.02-0.48,0.51-2.81,0.53-2.91l0.45,0.09
			c-0.14,0.67-0.5,2.48-0.52,2.84c-0.02,0.42-0.04,0.78,1.33,1.06c1.42,0.3,2.24-0.36,2.33-0.67c0.08-0.3,0.02-0.84-0.01-1.02
			l0.46-0.08c0,0.03,0.12,0.76-0.01,1.22C19.02,21.14,18.29,21.8,17.06,21.8z"/>
	</g>
	<g class="st1">
		<path d="M18.87,7.94c-0.03,0-0.06,0-0.09-0.01c-0.3-0.03-0.54-0.22-0.64-0.49c-0.14-0.37-0.06-1.07-0.06-1.08l0.21-3.32
			c0.04-0.26,0.25-0.73,0.79-0.73c0.21-0.01,0.49,0.02,0.67,0.2c0.12,0.12,0.18,0.29,0.18,0.52c0,0.52-0.24,3.41-0.25,3.53
			c-0.03,0.51-0.07,0.85-0.21,1.06C19.33,7.83,19.11,7.94,18.87,7.94z M19.08,2.78C19.08,2.78,19.08,2.78,19.08,2.78
			c-0.29,0-0.34,0.3-0.34,0.32l-0.21,3.32c-0.02,0.2-0.04,0.67,0.04,0.87c0.06,0.16,0.21,0.19,0.26,0.19
			c0.1,0.01,0.2-0.02,0.24-0.09c0.09-0.14,0.12-0.52,0.14-0.84c0.09-1.04,0.25-3.1,0.25-3.5c0-0.07-0.01-0.16-0.05-0.2
			C19.37,2.8,19.26,2.78,19.08,2.78z"/>
	</g>
	<g class="st1">
		<path d="M17.91,3.66c-0.03,0-0.06-0.01-0.09-0.02c-2.4-0.99-3.4-2.8-3.44-2.88c-0.06-0.11-0.02-0.25,0.09-0.31
			s0.25-0.02,0.31,0.09c0.04,0.07,0.96,1.75,3.21,2.67c0.12,0.05,0.17,0.18,0.13,0.3C18.09,3.61,18,3.66,17.91,3.66z"/>
	</g>
	<g class="st1">
		<path d="M21.81,4.25c-0.49,0-0.91-0.02-1.21-0.05c-0.13-0.01-0.22-0.12-0.21-0.25c0.01-0.13,0.12-0.22,0.25-0.21
			c1.06,0.09,3.71,0.17,5.38-0.87c0.11-0.07,0.25-0.03,0.32,0.07c0.07,0.11,0.03,0.25-0.07,0.32C24.96,4.08,23.13,4.25,21.81,4.25z"
			/>
	</g>
</g>
<g class="st0">
	<g class="st1">
		<circle class="st16" cx="9.61" cy="28.56" r="1.15"/>
	</g>
	<g class="st1">
		<circle class="st16" cx="13.51" cy="28.56" r="1.15"/>
	</g>
	<g class="st1">
		<circle class="st16" cx="21.65" cy="28.56" r="1.15"/>
	</g>
	<g class="st1">
		<circle class="st16" cx="25.56" cy="28.56" r="1.15"/>
	</g>
	<g class="st1">
		<path d="M25.97,24.38c-0.11,0-0.21-0.09-0.21-0.21c0-0.11,0.09-0.21,0.21-0.21c0.05,0,1.14-0.02,1.53-0.93
			c0.55-1.31,4.15-11.12,4.81-12.91H15.3c-0.12,0-0.21-0.09-0.21-0.21S15.18,9.7,15.3,9.7h17.6l-0.1,0.28
			c-0.18,0.48-4.32,11.77-4.92,13.21C27.38,24.37,26.02,24.38,25.97,24.38z"/>
	</g>
	<g class="st1">
		<path d="M24.24,24.38H6.38c-0.42,0-0.77-0.14-1.04-0.41c-0.56-0.57-0.54-1.53-0.54-1.57V8.92c0.12-1.84-1.6-2.37-1.68-2.4
			C3.01,6.49,2.95,6.38,2.98,6.27c0.03-0.11,0.15-0.17,0.26-0.14c0.02,0.01,2.12,0.64,1.97,2.81l0,13.46c0,0.01-0.01,0.83,0.43,1.28
			c0.19,0.19,0.43,0.29,0.74,0.29h17.87c0.12,0,0.21,0.09,0.21,0.21S24.36,24.38,24.24,24.38z"/>
	</g>
	<g class="st1">
		<path d="M12.38,10.1H5.02C4.9,10.1,4.81,10,4.81,9.89c0-0.12,0.09-0.21,0.21-0.21h7.36c0.12,0,0.21,0.09,0.21,0.21
			C12.59,10,12.5,10.1,12.38,10.1z"/>
	</g>
	<g class="st1">
		<path d="M15.96,24.38v-0.42c1.27,0,1.67-1.29,1.67-1.31l5.15-12.71l0.39,0.16L18.02,22.8c0,0,0,0,0,0
			C18.02,22.8,17.53,24.38,15.96,24.38z"/>
	</g>
	<g class="st1">
		
			<rect x="19.7" y="17.22" transform="matrix(0.455 -0.8905 0.8905 0.455 -2.5934 30.6278)" class="st16" width="8.05" height="0.42"/>
	</g>
	<g class="st1">
		
			<rect x="21.53" y="17.42" transform="matrix(0.455 -0.8905 0.8905 0.455 -1.7678 32.3661)" class="st16" width="8.05" height="0.42"/>
	</g>
	<g class="st1">
		<path d="M11.23,9.9l-0.42-0.02c0-0.01,0.04-0.79,0.04-1.17c0-0.06,0-0.13,0.01-0.22c0.03-0.47,0.07-1.34-0.5-2.03
			c-0.59-0.71-1.17-0.79-1.2-0.8l0.05-0.41c0.03,0,0.77,0.1,1.47,0.95c0.68,0.82,0.63,1.8,0.6,2.32c0,0.08-0.01,0.14-0.01,0.2
			C11.27,9.1,11.23,9.87,11.23,9.9z"/>
	</g>
	<g class="st1">
		<path d="M18.84,17.22c-0.03,0-3.35,0.01-3.5,0c-0.04,0-0.07-0.02-0.08-0.04c-0.02-0.03-0.02-0.07-0.02-0.07
			c0.01-0.39,0-0.4-0.01-0.41L15.2,16.7v0.04l-0.03,0.01c0,0.02,0,0.21,0,0.37c0,0.01-0.01,0.07,0.03,0.12
			c0.03,0.04,0.07,0.06,0.13,0.06c0.05,0,0.46,0.01,0.99,0.01c1.01,0,2.42-0.01,2.51-0.01L18.84,17.22z"/>
	</g>
	<g class="st1">
		<path class="st16" d="M8.43,6.31H1.85c-0.41,0-0.75-0.34-0.75-0.75l0-0.5c0-0.41,0.34-0.75,0.75-0.75h6.58
			c0.41,0,0.75,0.34,0.75,0.75v0.5C9.19,5.97,8.85,6.31,8.43,6.31z"/>
	</g>
</g>
<g class="st0">
	<g class="st1">
		<path class="st11" d="M14.22,23.19c0,0-0.37,0.17-0.39,0.6c-0.02,0.43,0.41,0.34,0.52,0.26c0.11-0.08,0.24-0.17,0.33-0.31"/>
	</g>
	<g class="st1">
		<path class="st11" d="M13.17,20.59c0,0-0.52,0.24-0.55,0.84c-0.02,0.6,0.57,0.48,0.73,0.37c0.16-0.12,0.33-0.24,0.46-0.43"/>
	</g>
	<g class="st1">
		<path class="st11" d="M11.12,19.21c0,0-0.56,0.35-0.61,0.96c-0.05,0.61,0.65,0.5,0.83,0.38c0.18-0.12,0.3-0.19,0.51-0.42"/>
	</g>
	<g class="st1">
		<path class="st11" d="M13.41,15.76c0,0,0.75,0.01,0.97,0.4c0.22,0.39-0.05,1.13-0.45,1.49C13.92,17.65,12.45,17.34,13.41,15.76z"
			/>
	</g>
	<g class="st1">
		<path class="st11" d="M29.62,12.26c0,0-2.49,1.04-3.31,1.11c0,0,2.28,3.97,3.27,7.26l0.24,0.99l3-1.15L29.62,12.26z"/>
	</g>
	<g class="st1">
		<path class="st17" d="M18.25,10.7c-0.04,0-0.07-0.01-0.11-0.03c-0.19-0.12-0.89-0.51-1.92-0.66c-0.52-0.07-1.57,0.1-2.69,0.28
			c-0.96,0.15-2.05,0.33-2.99,0.38C8.42,10.79,7.25,9.74,7.2,9.7C7.11,9.62,7.11,9.5,7.18,9.41c0.08-0.08,0.2-0.09,0.29-0.01
			c0.01,0.01,1.1,0.97,3.04,0.86c0.93-0.05,2-0.23,2.95-0.38c1.2-0.19,2.24-0.36,2.81-0.28c1.09,0.16,1.82,0.55,2.08,0.72
			c0.1,0.06,0.12,0.19,0.06,0.28C18.38,10.67,18.32,10.7,18.25,10.7z"/>
	</g>
	<g class="st1">
		<path class="st17" d="M25.35,24.61c-0.36,0-0.76-0.13-1.19-0.38c-1.35-0.8-3.1-2.51-3.95-4.53c-0.04-0.1,0.01-0.22,0.11-0.27
			c0.1-0.04,0.22,0.01,0.27,0.11c0.81,1.94,2.48,3.58,3.78,4.34c0.5,0.3,0.93,0.39,1.27,0.28c0.3-0.09,0.54-0.34,0.72-0.74
			c0.3-0.66-0.87-1.85-1.36-2.36c-0.67-0.69-2.31-2.4-2.31-2.4l0.29-0.28c0,0,1.64,1.71,2.3,2.4c0.65,0.67,1.86,1.91,1.44,2.82
			c-0.23,0.51-0.56,0.83-0.97,0.96C25.63,24.59,25.49,24.61,25.35,24.61z"/>
	</g>
	<g class="st1">
		<path class="st17" d="M22.58,25.34c-0.51,0-1.14-0.18-1.9-0.7c-2.39-1.65-2.62-3.8-2.63-3.9c-0.01-0.11,0.07-0.21,0.18-0.22
			c0.11-0.01,0.21,0.07,0.22,0.18c0,0.02,0.24,2.06,2.46,3.6c1.95,1.35,2.85,0.13,2.88,0.08c0.07-0.09,0.19-0.11,0.28-0.05
			c0.09,0.06,0.11,0.19,0.05,0.28C24.12,24.63,23.6,25.34,22.58,25.34z"/>
	</g>
	<g class="st1">
		<path class="st17" d="M19.9,25.81c-0.34,0-0.72-0.09-1.09-0.34c-1.64-1.1-2.74-3.12-2.78-3.21c-0.05-0.1-0.02-0.22,0.08-0.28
			c0.1-0.05,0.22-0.02,0.28,0.08c0.01,0.02,1.1,2.02,2.65,3.06c0.9,0.6,1.72,0.02,1.76-0.01c0.09-0.07,0.22-0.05,0.28,0.04
			c0.07,0.09,0.05,0.22-0.04,0.28C20.82,25.62,20.4,25.81,19.9,25.81z"/>
	</g>
	<g class="st1">
		<path class="st17" d="M16.94,25.92c-0.31,0-0.66-0.07-1.01-0.3c-0.85-0.55-1.01-0.62-0.94-0.79l0.05-0.08c0,0,0.06-0.1,0.14-0.08
			c0.06,0.01,0.07,0.02,0.11,0.05c0.04,0.02,0.12,0.11,0.85,0.55c0.92,0.57,1.64-0.04,1.67-0.07c0.08-0.07,0.21-0.07,0.29,0.02
			c0.07,0.08,0.07,0.21-0.02,0.29C17.88,25.69,17.46,25.92,16.94,25.92z"/>
	</g>
	<g class="st1">
		<path class="st17" d="M6.89,18.37c-0.04,0-0.09-0.01-0.12-0.04C6.33,17.99,4.5,17.01,4.48,17c-0.1-0.05-0.14-0.18-0.08-0.28
			c0.05-0.1,0.18-0.14,0.28-0.08c0.08,0.04,1.87,1.01,2.34,1.36c0.09,0.07,0.11,0.2,0.04,0.29C7.01,18.34,6.95,18.37,6.89,18.37z"/>
	</g>
	<g class="st1">
		<path class="st17" d="M9.35,22.84c-0.39,0-0.71-0.16-0.96-0.48c-0.19-0.24-0.3-0.47-0.36-0.69C8,21.55,8.07,21.44,8.18,21.41
			c0.11-0.03,0.22,0.04,0.25,0.15c0.04,0.17,0.14,0.35,0.29,0.55c0.2,0.27,0.47,0.37,0.82,0.31c0.24-0.04,0.47-0.17,0.65-0.36
			c0.28-0.29,0.79-0.83,1.13-1.12c0.41-0.35,0.38-0.87,0.14-1.2c-0.27-0.37-0.84-0.49-1.26-0.26c-0.04,0.02-0.08,0.05-0.12,0.07
			c-0.1,0.06-0.22,0.03-0.28-0.07c-0.06-0.1-0.03-0.22,0.07-0.28c0.05-0.03,0.1-0.06,0.14-0.08c0.6-0.33,1.38-0.17,1.78,0.37
			c0.42,0.56,0.33,1.3-0.2,1.75c-0.33,0.28-0.83,0.8-1.1,1.09c-0.24,0.26-0.55,0.43-0.87,0.48C9.52,22.83,9.43,22.84,9.35,22.84z"/>
	</g>
	<g class="st1">
		<path class="st17" d="M10.98,24.39c-0.32,0-0.62-0.11-0.87-0.33c-0.25-0.22-0.37-0.57-0.33-1.03c0.01-0.11,0.12-0.2,0.22-0.19
			c0.11,0.01,0.2,0.11,0.19,0.22c-0.02,0.32,0.04,0.56,0.2,0.69c0.45,0.4,1,0.21,1.38-0.03c0.82-0.51,1.4-1.03,1.59-1.42
			c0.26-0.53,0.25-0.93-0.01-1.25c-0.18-0.23-0.48-0.4-0.77-0.45c-0.11-0.02-0.19-0.12-0.17-0.23c0.02-0.11,0.12-0.19,0.23-0.17
			c0.39,0.06,0.78,0.29,1.03,0.6c0.37,0.46,0.39,1.01,0.06,1.69c-0.29,0.6-1.11,1.2-1.74,1.59C11.64,24.29,11.3,24.39,10.98,24.39z"
			/>
	</g>
	<g class="st1">
		<path class="st17" d="M13.08,25.82c-0.04,0-0.08,0-0.13,0c-0.44-0.03-0.83-0.23-1.05-0.54c-0.16-0.23-0.25-0.41-0.29-0.61
			c-0.02-0.11,0.05-0.22,0.16-0.24c0.11-0.02,0.22,0.05,0.24,0.16c0.03,0.14,0.1,0.28,0.23,0.45c0.15,0.21,0.43,0.35,0.75,0.37
			c0.34,0.02,0.65-0.08,0.85-0.29c0.03-0.02,0.32-0.24,0.46-0.53c0.17-0.35,0.17-0.8-0.01-1.08c-0.12-0.19-0.31-0.29-0.57-0.29
			c-0.11,0-0.2-0.09-0.2-0.2c0-0.11,0.09-0.2,0.2-0.2c0,0,0,0,0,0c0.4,0,0.72,0.17,0.91,0.48c0.24,0.39,0.26,1,0.03,1.47
			c-0.19,0.39-0.54,0.65-0.56,0.66C13.87,25.68,13.49,25.82,13.08,25.82z"/>
	</g>
	<g class="st1">
		<path class="st17" d="M28.57,18.07c-0.08,0-0.15-0.05-0.19-0.12c-0.8-1.86-1.88-3.83-2.17-4.34c-0.98,0.2-2.09,0.17-3.48-0.61
			c-1.62-0.92-2.98-1.58-4.46-1.17l-2.53,1.08l0,0c0,0-0.87,0.47-1.2,1.13c-0.29,0.52-1.05,1.89-1.14,2.11l-0.05,0.11
			c-0.1,0.21-0.16,0.34-0.05,0.63c0.12,0.32,0.49,0.8,1.7,0.53c0.93-0.21,1.31-1.02,1.52-1.46c0.06-0.13,0.1-0.22,0.15-0.28
			c0.15-0.18,0.57-0.23,1.93-0.22c0.21,0,0.41,0,0.47,0c0.42-0.05,1.16,0.5,1.72,1.05c0.49,0.49,2.32,1.67,4.29,0.71
			c0.1-0.05,0.22-0.01,0.27,0.09c0.05,0.1,0.01,0.22-0.09,0.27c-2.19,1.08-4.18-0.2-4.76-0.79c-0.69-0.69-1.24-0.95-1.38-0.93
			c-0.08,0.01-0.24,0.01-0.52,0.01c-0.44,0-1.46-0.01-1.63,0.09c0,0-0.04,0.1-0.08,0.18c-0.22,0.46-0.67,1.43-1.8,1.68
			c-1.57,0.36-2.05-0.43-2.18-0.79c-0.16-0.45-0.05-0.7,0.06-0.94l0.04-0.1c0.12-0.28,1.12-2.06,1.16-2.14
			c0.38-0.77,1.34-1.29,1.38-1.31l2.57-1.1c1.65-0.47,3.09,0.23,4.79,1.2c1.39,0.78,2.44,0.74,3.32,0.54l3.31-1.11l0.14,0.38
			c-0.08,0.03-1.92,0.73-2.89,1c-0.06,0.02-0.12,0.03-0.19,0.05c0.36,0.64,1.38,2.5,2.13,4.27c0.04,0.1,0,0.22-0.11,0.27
			C28.62,18.06,28.59,18.07,28.57,18.07z"/>
	</g>
	<g class="st1">
		<path class="st17" d="M29.67,21.91l-0.05-0.24c-0.17-0.87-0.33-1.22-0.33-1.22c-0.11-0.29-0.2-0.54-0.29-0.79
			c-0.09-0.26-0.19-0.53-0.31-0.85c-0.04-0.11,0.01-0.22,0.12-0.26c0.11-0.04,0.22,0.02,0.26,0.12c0.12,0.32,0.21,0.59,0.31,0.85
			c0.09,0.25,0.18,0.5,0.28,0.77l0,0c0,0,0.14,0.31,0.31,1.06l2.78-1.06c0.1-0.04,0.22,0.01,0.26,0.12
			c0.04,0.11-0.01,0.22-0.12,0.26L29.67,21.91z"/>
	</g>
	<g class="st1">
		<path class="st17" d="M26.45,21.71c-0.11,0-0.2-0.08-0.2-0.19c-0.01-0.11,0.08-0.21,0.19-0.22c1.78-0.13,2.28-0.71,2.29-0.71
			c0.07-0.08,0.2-0.1,0.29-0.03c0.09,0.07,0.1,0.2,0.03,0.28c-0.02,0.03-0.59,0.72-2.58,0.87C26.46,21.71,26.45,21.71,26.45,21.71z"
			/>
	</g>
	<g class="st1">
		<path class="st3" d="M13.97,15.91"/>
	</g>
	<g class="st1">
		<path class="st11" d="M8.8,18.6c0,0-0.46,0.24-0.5,0.66c-0.04,0.42,0.46,0.49,0.65,0.35c0.15-0.11,0.25-0.2,0.39-0.36"/>
	</g>
	<g class="st1">
		<path class="st17" d="M7.45,21.37c-0.16,0-0.33-0.04-0.5-0.14c-0.35-0.2-0.52-0.4-0.58-0.69c-0.07-0.36,0.04-0.75,0.27-0.96
			l0.9-0.81c0.08-0.07,0.21-0.07,0.29,0.02C7.91,18.87,7.9,19,7.82,19.08l-0.9,0.81C6.79,20,6.72,20.25,6.77,20.46
			c0.03,0.14,0.1,0.26,0.38,0.42c0.47,0.26,0.96-0.14,1.41-0.63l0.05-0.05c0.41-0.44,0.54-0.65,0.57-0.75
			c0.02-0.05,0.03-0.32-0.11-0.53c-0.09-0.14-0.23-0.22-0.43-0.24c-0.08-0.01-0.16-0.02-0.23,0c-0.11,0.02-0.22-0.05-0.24-0.17
			c-0.02-0.11,0.05-0.22,0.17-0.24c0.12-0.02,0.24-0.01,0.35,0C9,18.32,9.25,18.46,9.41,18.7c0.22,0.33,0.2,0.73,0.16,0.87
			c-0.07,0.22-0.27,0.5-0.66,0.91l-0.05,0.05C8.6,20.81,8.06,21.37,7.45,21.37z"/>
	</g>
	<g class="st1">
		<path class="st18" d="M14.43,17.65"/>
	</g>
	<g class="st1">
		<polygon class="st11" points="7.34,9.55 3.59,17.49 1.18,16.19 5.06,8.29 		"/>
	</g>
	<g class="st1">
		<path class="st17" d="M6.63,11.24c-0.03,0-0.06-0.01-0.09-0.02c-0.1-0.05-0.15-0.17-0.1-0.27l0.62-1.31L4.96,8.47
			c-0.1-0.05-0.13-0.18-0.08-0.28c0.05-0.1,0.18-0.13,0.28-0.08L7.6,9.46l-0.78,1.66C6.78,11.2,6.71,11.24,6.63,11.24z"/>
	</g>
	<g class="st1">
		<path class="st17" d="M3.68,17.77l-2.6-1.4C0.98,16.32,0.94,16.19,1,16.1c0.05-0.1,0.18-0.14,0.28-0.08l2.22,1.2l2.53-5.35
			c0.05-0.1,0.17-0.15,0.27-0.1c0.1,0.05,0.15,0.17,0.1,0.27L3.68,17.77z"/>
	</g>
</g>
<g>
	<g>
		<path d="M1.35,14.02c-0.12,0-0.21-0.1-0.21-0.21V6.03c0-1.21,0.98-2.19,2.19-2.19H27.2c0.12,0,0.21,0.1,0.21,0.21
			s-0.1,0.21-0.21,0.21H3.33c-0.97,0-1.77,0.79-1.77,1.77v7.77C1.56,13.92,1.47,14.02,1.35,14.02z"/>
	</g>
	<g>
		<path d="M12.32,27.81H3.33c-1.21,0-2.19-0.98-2.19-2.19V15.19c0-0.12,0.1-0.21,0.21-0.21s0.21,0.1,0.21,0.21v10.42
			c0,0.97,0.79,1.77,1.77,1.77h8.99c0.12,0,0.21,0.1,0.21,0.21C12.54,27.71,12.44,27.81,12.32,27.81z"/>
	</g>
	<g>
		<path d="M30.67,27.81h-4.45c-0.12,0-0.21-0.1-0.21-0.21c0-0.12,0.1-0.21,0.21-0.21h4.45c0.97,0,1.77-0.79,1.77-1.77V6.03
			c0-0.97-0.79-1.77-1.77-1.77h-2c-0.12,0-0.21-0.1-0.21-0.21s0.1-0.21,0.21-0.21h2c1.21,0,2.19,0.98,2.19,2.19v19.58
			C32.86,26.82,31.88,27.81,30.67,27.81z"/>
	</g>
	<g>
		<path d="M24.73,27.81H18.1c-0.12,0-0.21-0.1-0.21-0.21c0-0.12,0.1-0.21,0.21-0.21h6.64c0.12,0,0.21,0.1,0.21,0.21
			C24.95,27.71,24.85,27.81,24.73,27.81z"/>
	</g>
	<g>
		<rect x="1.35" y="9.14" width="31.3" height="0.43"/>
	</g>
	<g>
		<circle class="st19" cx="4.93" cy="6.73" r="0.9"/>
	</g>
	<g>
		<circle class="st19" cx="7.74" cy="6.73" r="0.9"/>
	</g>
	<g>
		<circle class="st19" cx="10.25" cy="6.73" r="0.9"/>
	</g>
	<g>
		<path class="st19" d="M15.41,27.98l-1.77,1.77c-0.19,0.19-0.51,0.12-0.6-0.14l-2.87-8.06c-0.07-0.2,0.12-0.39,0.32-0.32l8.01,2.87
			c0.28,0.1,0.36,0.46,0.15,0.68L17,26.43l2.11,2.18l-1.47,1.55L15.41,27.98z"/>
	</g>
	<g>
		<path d="M27.84,20.67H6.86c-1,0-1.81-0.81-1.81-1.81v-2.95c0-1,0.81-1.81,1.81-1.81h20.98c1,0,1.81,0.81,1.81,1.81v2.95
			C29.65,19.86,28.84,20.67,27.84,20.67z M6.86,14.53c-0.76,0-1.38,0.62-1.38,1.38v2.95c0,0.76,0.62,1.38,1.38,1.38h20.98
			c0.76,0,1.38-0.62,1.38-1.38v-2.95c0-0.76-0.62-1.38-1.38-1.38H6.86z"/>
	</g>
</g>
</svg>
